<svg width="1248" height="501" viewBox="0 0 1248 501" fill="none" xmlns="http://www.w3.org/2000/svg">
<g filter="url(#filter0_d)">
<rect width="1240" height="493" rx="10" fill="white"/>
</g>
<path d="M717.463 306.805C821.192 224.546 1109.04 396.66 1240 493H0V0C95.3735 7.31811 294.505 46.0207 328.045 142.286C369.969 262.618 587.801 409.629 717.463 306.805Z" fill="url(#paint0_linear)" fill-opacity="0.9"/>
<path d="M89.92 171.44H85.36L90.16 160.4H92.8L89.92 171.44ZM99.52 171.44H94.96L99.76 160.4H102.4L99.52 171.44ZM109.869 183.824C110.989 185.872 112.237 187.52 113.613 188.768C115.021 190.016 116.733 190.64 118.749 190.64C120.541 190.64 121.981 190.144 123.069 189.152C124.157 188.16 124.701 186.896 124.701 185.36C124.701 183.856 124.349 182.656 123.645 181.76C122.941 180.864 122.013 180.144 120.861 179.6C119.741 179.024 118.541 178.512 117.261 178.064C116.429 177.776 115.501 177.408 114.477 176.96C113.453 176.48 112.477 175.888 111.549 175.184C110.621 174.448 109.853 173.552 109.245 172.496C108.669 171.44 108.381 170.144 108.381 168.608C108.381 166.944 108.797 165.456 109.629 164.144C110.461 162.832 111.613 161.808 113.085 161.072C114.557 160.304 116.237 159.92 118.125 159.92C119.949 159.92 121.533 160.272 122.877 160.976C124.253 161.648 125.421 162.528 126.381 163.616C127.341 164.672 128.093 165.792 128.637 166.976L125.133 168.992C124.717 168.16 124.189 167.344 123.549 166.544C122.909 165.744 122.125 165.088 121.197 164.576C120.301 164.064 119.197 163.808 117.885 163.808C116.061 163.808 114.733 164.256 113.901 165.152C113.069 166.016 112.653 166.992 112.653 168.08C112.653 169.488 113.213 170.72 114.333 171.776C115.453 172.832 117.485 173.872 120.429 174.896C121.325 175.216 122.269 175.632 123.261 176.144C124.253 176.656 125.165 177.312 125.997 178.112C126.861 178.88 127.565 179.824 128.109 180.944C128.653 182.032 128.925 183.344 128.925 184.88C128.925 186.832 128.429 188.528 127.437 189.968C126.477 191.408 125.213 192.528 123.645 193.328C122.077 194.096 120.397 194.48 118.605 194.48C116.781 194.48 115.085 194.096 113.517 193.328C111.981 192.528 110.621 191.488 109.437 190.208C108.285 188.896 107.341 187.504 106.605 186.032L109.869 183.824ZM131.318 171.92H134.918V164.24H138.758V171.92H142.358V175.52H138.758V194H134.918V175.52H131.318V171.92ZM150.049 185.36C150.049 187.12 150.449 188.48 151.249 189.44C152.049 190.4 153.217 190.88 154.753 190.88C156.449 190.88 157.809 190.368 158.833 189.344C159.857 188.32 160.369 186.992 160.369 185.36V171.92H164.209V194H160.369V190.544C158.897 193.168 156.705 194.48 153.793 194.48C151.489 194.48 149.649 193.696 148.273 192.128C146.897 190.56 146.209 188.464 146.209 185.84V171.92H150.049V185.36ZM169.508 182.96C169.508 180.56 170.004 178.512 170.996 176.816C171.988 175.088 173.316 173.76 174.98 172.832C176.644 171.904 178.468 171.44 180.452 171.44C182.084 171.44 183.54 171.808 184.82 172.544C186.132 173.28 187.188 174.336 187.988 175.712V156.56H191.828V194H187.988V190.208C187.188 191.584 186.132 192.64 184.82 193.376C183.54 194.112 182.084 194.48 180.452 194.48C178.468 194.48 176.644 194.016 174.98 193.088C173.316 192.16 171.988 190.832 170.996 189.104C170.004 187.376 169.508 185.328 169.508 182.96ZM173.396 182.96C173.396 184.656 173.732 186.096 174.404 187.28C175.108 188.464 176.036 189.36 177.188 189.968C178.34 190.576 179.588 190.88 180.932 190.88C182.052 190.88 183.156 190.576 184.244 189.968C185.332 189.36 186.228 188.464 186.932 187.28C187.636 186.096 187.988 184.656 187.988 182.96C187.988 181.264 187.636 179.824 186.932 178.64C186.228 177.456 185.332 176.56 184.244 175.952C183.156 175.344 182.052 175.04 180.932 175.04C179.588 175.04 178.34 175.344 177.188 175.952C176.036 176.56 175.108 177.456 174.404 178.64C173.732 179.824 173.396 181.264 173.396 182.96ZM207.347 194.48C205.299 194.48 203.475 194 201.875 193.04C200.307 192.048 199.075 190.688 198.179 188.96C197.315 187.232 196.883 185.232 196.883 182.96C196.883 180.656 197.331 178.64 198.227 176.912C199.155 175.184 200.435 173.84 202.067 172.88C203.731 171.92 205.651 171.44 207.827 171.44C211.059 171.44 213.603 172.448 215.459 174.464C217.315 176.48 218.243 179.248 218.243 182.768C218.243 182.992 218.227 183.232 218.195 183.488C218.195 183.712 218.195 183.856 218.195 183.92H200.819C200.979 186.128 201.667 187.84 202.883 189.056C204.099 190.272 205.747 190.88 207.827 190.88C210.835 190.88 213.139 189.552 214.739 186.896L217.859 188.864C215.555 192.608 212.051 194.48 207.347 194.48ZM207.827 174.8C205.939 174.8 204.403 175.312 203.219 176.336C202.035 177.328 201.283 178.768 200.963 180.656H214.067C213.939 178.896 213.299 177.488 212.147 176.432C211.027 175.344 209.587 174.8 207.827 174.8ZM237.666 180.56C237.666 176.88 236.098 175.04 232.962 175.04C231.298 175.04 229.938 175.552 228.882 176.576C227.858 177.6 227.346 178.928 227.346 180.56V194H223.506V171.92H227.346V175.376C228.786 172.752 230.978 171.44 233.922 171.44C236.258 171.44 238.098 172.224 239.442 173.792C240.818 175.328 241.506 177.424 241.506 180.08V194H237.666V180.56ZM245.365 171.92H248.965V164.24H252.805V171.92H256.405V175.52H252.805V194H248.965V175.52H245.365V171.92ZM261.168 187.232C261.84 188.256 262.656 189.136 263.616 189.872C264.608 190.608 265.792 190.976 267.168 190.976C268.256 190.976 269.104 190.736 269.712 190.256C270.352 189.744 270.672 189.056 270.672 188.192C270.672 187.424 270.416 186.784 269.904 186.272C269.424 185.728 268.8 185.28 268.032 184.928C267.264 184.544 266.448 184.192 265.584 183.872C264.624 183.488 263.648 183.04 262.656 182.528C261.696 181.984 260.88 181.296 260.208 180.464C259.568 179.6 259.248 178.528 259.248 177.248C259.248 175.936 259.584 174.848 260.256 173.984C260.96 173.12 261.856 172.48 262.944 172.064C264.064 171.648 265.216 171.44 266.4 171.44C268.16 171.44 269.76 171.856 271.2 172.688C272.64 173.52 273.696 174.544 274.368 175.76L271.296 177.728C270.688 176.896 269.92 176.208 268.992 175.664C268.096 175.12 267.072 174.848 265.92 174.848C265.12 174.848 264.432 175.024 263.856 175.376C263.28 175.728 262.992 176.272 262.992 177.008C262.992 177.904 263.456 178.64 264.384 179.216C265.344 179.76 266.416 180.272 267.6 180.752C268.88 181.264 270.048 181.824 271.104 182.432C272.16 183.008 272.992 183.712 273.6 184.544C274.24 185.376 274.56 186.448 274.56 187.76C274.56 189.68 273.856 191.28 272.448 192.56C271.072 193.84 269.248 194.48 266.976 194.48C265.504 194.48 264.176 194.224 262.992 193.712C261.808 193.168 260.8 192.48 259.968 191.648C259.168 190.816 258.56 189.968 258.144 189.104L261.168 187.232ZM295.734 182.96C295.734 184.496 296.054 185.856 296.694 187.04C297.366 188.224 298.262 189.168 299.382 189.872C300.534 190.544 301.83 190.88 303.27 190.88C305.062 190.88 306.662 190.48 308.07 189.68C309.478 188.88 310.438 187.936 310.95 186.848V191.648C310.182 192.544 309.078 193.248 307.638 193.76C306.23 194.24 304.774 194.48 303.27 194.48C301.126 194.48 299.19 193.984 297.462 192.992C295.734 192 294.358 190.64 293.334 188.912C292.342 187.152 291.846 185.168 291.846 182.96C291.846 180.72 292.342 178.736 293.334 177.008C294.358 175.28 295.734 173.92 297.462 172.928C299.19 171.936 301.126 171.44 303.27 171.44C304.774 171.44 306.23 171.696 307.638 172.208C309.078 172.688 310.182 173.376 310.95 174.272V179.072C310.438 177.984 309.478 177.04 308.07 176.24C306.662 175.44 305.062 175.04 303.27 175.04C301.83 175.04 300.534 175.376 299.382 176.048C298.262 176.72 297.366 177.664 296.694 178.88C296.054 180.064 295.734 181.424 295.734 182.96ZM318.08 177.008L316.208 174.176C317.04 173.568 318.176 172.96 319.616 172.352C321.088 171.744 322.848 171.44 324.896 171.44C327.456 171.44 329.536 172.032 331.136 173.216C332.736 174.368 333.536 176.016 333.536 178.16V194H329.696V191.024C328.992 192.176 327.936 193.04 326.528 193.616C325.12 194.192 323.744 194.48 322.4 194.48C321.056 194.48 319.792 194.208 318.608 193.664C317.456 193.088 316.528 192.272 315.824 191.216C315.12 190.16 314.768 188.88 314.768 187.376C314.768 185.232 315.52 183.52 317.024 182.24C318.56 180.928 320.688 180.272 323.408 180.272C324.88 180.272 326.128 180.448 327.152 180.8C328.208 181.12 329.056 181.488 329.696 181.904V178.688C329.696 177.184 329.2 176.16 328.208 175.616C327.248 175.072 326.08 174.8 324.704 174.8C323.04 174.8 321.648 175.072 320.528 175.616C319.408 176.16 318.592 176.624 318.08 177.008ZM318.656 187.184C318.656 188.464 319.088 189.456 319.952 190.16C320.848 190.832 322 191.168 323.408 191.168C325.168 191.168 326.656 190.64 327.872 189.584C329.088 188.528 329.696 187.12 329.696 185.36V184.544C328.8 184.096 327.888 183.776 326.96 183.584C326.032 183.392 325.056 183.296 324.032 183.296C322.176 183.296 320.816 183.648 319.952 184.352C319.088 185.024 318.656 185.968 318.656 187.184ZM354.198 180.56C354.198 176.88 352.63 175.04 349.494 175.04C347.83 175.04 346.47 175.552 345.414 176.576C344.39 177.6 343.878 178.928 343.878 180.56V194H340.038V171.92H343.878V175.376C345.318 172.752 347.51 171.44 350.454 171.44C352.79 171.44 354.63 172.224 355.974 173.792C357.35 175.328 358.038 177.424 358.038 180.08V194H354.198V180.56ZM377.727 182.96C377.727 180.56 378.223 178.512 379.215 176.816C380.207 175.088 381.535 173.76 383.199 172.832C384.863 171.904 386.687 171.44 388.671 171.44C390.303 171.44 391.759 171.808 393.039 172.544C394.351 173.28 395.407 174.336 396.207 175.712V156.56H400.047V194H396.207V190.208C395.407 191.584 394.351 192.64 393.039 193.376C391.759 194.112 390.303 194.48 388.671 194.48C386.687 194.48 384.863 194.016 383.199 193.088C381.535 192.16 380.207 190.832 379.215 189.104C378.223 187.376 377.727 185.328 377.727 182.96ZM381.615 182.96C381.615 184.656 381.951 186.096 382.623 187.28C383.327 188.464 384.255 189.36 385.407 189.968C386.559 190.576 387.807 190.88 389.151 190.88C390.271 190.88 391.375 190.576 392.463 189.968C393.551 189.36 394.447 188.464 395.151 187.28C395.855 186.096 396.207 184.656 396.207 182.96C396.207 181.264 395.855 179.824 395.151 178.64C394.447 177.456 393.551 176.56 392.463 175.952C391.375 175.344 390.271 175.04 389.151 175.04C387.807 175.04 386.559 175.344 385.407 175.952C384.255 176.56 383.327 177.456 382.623 178.64C381.951 179.824 381.615 181.264 381.615 182.96ZM417.534 176.144C417.022 175.76 416.558 175.488 416.142 175.328C415.726 175.136 415.198 175.04 414.558 175.04C413.118 175.04 412.142 175.568 411.63 176.624C411.118 177.648 410.862 178.96 410.862 180.56V194H407.022V171.92H410.862V174.464C411.47 173.536 412.19 172.8 413.022 172.256C413.854 171.712 414.686 171.44 415.518 171.44C416.318 171.44 417.054 171.552 417.726 171.776C418.43 171.968 419.07 172.368 419.646 172.976L417.534 176.144ZM424.627 177.008L422.755 174.176C423.587 173.568 424.723 172.96 426.163 172.352C427.635 171.744 429.395 171.44 431.443 171.44C434.003 171.44 436.083 172.032 437.683 173.216C439.283 174.368 440.083 176.016 440.083 178.16V194H436.243V191.024C435.539 192.176 434.483 193.04 433.075 193.616C431.667 194.192 430.291 194.48 428.947 194.48C427.603 194.48 426.339 194.208 425.155 193.664C424.003 193.088 423.075 192.272 422.371 191.216C421.667 190.16 421.315 188.88 421.315 187.376C421.315 185.232 422.067 183.52 423.571 182.24C425.107 180.928 427.235 180.272 429.955 180.272C431.427 180.272 432.675 180.448 433.699 180.8C434.755 181.12 435.603 181.488 436.243 181.904V178.688C436.243 177.184 435.747 176.16 434.755 175.616C433.795 175.072 432.627 174.8 431.251 174.8C429.587 174.8 428.195 175.072 427.075 175.616C425.955 176.16 425.139 176.624 424.627 177.008ZM425.203 187.184C425.203 188.464 425.635 189.456 426.499 190.16C427.395 190.832 428.547 191.168 429.955 191.168C431.715 191.168 433.203 190.64 434.419 189.584C435.635 188.528 436.243 187.12 436.243 185.36V184.544C435.347 184.096 434.435 183.776 433.507 183.584C432.579 183.392 431.603 183.296 430.579 183.296C428.723 183.296 427.363 183.648 426.499 184.352C425.635 185.024 425.203 185.968 425.203 187.184ZM442.99 171.92H447.31L452.83 186.272L458.83 170.24L465.262 186.368L470.83 171.92H475.15L465.55 195.68L458.878 179.6L452.59 195.68L442.99 171.92ZM495.094 182.96C495.094 184.496 495.414 185.856 496.054 187.04C496.726 188.224 497.622 189.168 498.742 189.872C499.894 190.544 501.19 190.88 502.63 190.88C504.422 190.88 506.022 190.48 507.43 189.68C508.838 188.88 509.798 187.936 510.31 186.848V191.648C509.542 192.544 508.438 193.248 506.998 193.76C505.59 194.24 504.134 194.48 502.63 194.48C500.486 194.48 498.55 193.984 496.822 192.992C495.094 192 493.718 190.64 492.694 188.912C491.702 187.152 491.206 185.168 491.206 182.96C491.206 180.72 491.702 178.736 492.694 177.008C493.718 175.28 495.094 173.92 496.822 172.928C498.55 171.936 500.486 171.44 502.63 171.44C504.134 171.44 505.59 171.696 506.998 172.208C508.438 172.688 509.542 173.376 510.31 174.272V179.072C509.798 177.984 508.838 177.04 507.43 176.24C506.022 175.44 504.422 175.04 502.63 175.04C501.19 175.04 499.894 175.376 498.742 176.048C497.622 176.72 496.726 177.664 496.054 178.88C495.414 180.064 495.094 181.424 495.094 182.96ZM514.368 182.96C514.368 180.72 514.863 178.736 515.855 177.008C516.88 175.28 518.256 173.92 519.984 172.928C521.712 171.936 523.648 171.44 525.792 171.44C527.968 171.44 529.904 171.936 531.6 172.928C533.328 173.92 534.688 175.28 535.68 177.008C536.704 178.736 537.216 180.72 537.216 182.96C537.216 185.168 536.704 187.152 535.68 188.912C534.688 190.64 533.328 192 531.6 192.992C529.904 193.984 527.968 194.48 525.792 194.48C523.648 194.48 521.712 193.984 519.984 192.992C518.256 192 516.88 190.64 515.855 188.912C514.863 187.152 514.368 185.168 514.368 182.96ZM518.256 182.96C518.256 184.496 518.576 185.856 519.216 187.04C519.888 188.224 520.784 189.168 521.904 189.872C523.056 190.544 524.352 190.88 525.792 190.88C527.232 190.88 528.512 190.544 529.632 189.872C530.784 189.168 531.68 188.224 532.32 187.04C532.992 185.856 533.328 184.496 533.328 182.96C533.328 181.424 532.992 180.064 532.32 178.88C531.68 177.664 530.784 176.72 529.632 176.048C528.512 175.376 527.232 175.04 525.792 175.04C524.352 175.04 523.056 175.376 521.904 176.048C520.784 176.72 519.888 177.664 519.216 178.88C518.576 180.064 518.256 181.424 518.256 182.96ZM556.651 180.56C556.651 176.88 555.083 175.04 551.947 175.04C550.283 175.04 548.923 175.552 547.867 176.576C546.843 177.6 546.331 178.928 546.331 180.56V194H542.491V171.92H546.331V175.376C547.771 172.752 549.963 171.44 552.907 171.44C555.243 171.44 557.083 172.224 558.427 173.792C559.803 175.328 560.491 177.424 560.491 180.08V194H556.651V180.56ZM581.869 180.56C581.869 176.88 580.301 175.04 577.165 175.04C575.501 175.04 574.141 175.552 573.085 176.576C572.061 177.6 571.549 178.928 571.549 180.56V194H567.709V171.92H571.549V175.376C572.989 172.752 575.181 171.44 578.125 171.44C580.461 171.44 582.301 172.224 583.645 173.792C585.021 175.328 585.709 177.424 585.709 180.08V194H581.869V180.56ZM601.472 194.48C599.424 194.48 597.6 194 596 193.04C594.432 192.048 593.2 190.688 592.304 188.96C591.44 187.232 591.008 185.232 591.008 182.96C591.008 180.656 591.456 178.64 592.352 176.912C593.28 175.184 594.56 173.84 596.192 172.88C597.856 171.92 599.776 171.44 601.952 171.44C605.184 171.44 607.728 172.448 609.584 174.464C611.44 176.48 612.368 179.248 612.368 182.768C612.368 182.992 612.352 183.232 612.32 183.488C612.32 183.712 612.32 183.856 612.32 183.92H594.944C595.104 186.128 595.792 187.84 597.008 189.056C598.224 190.272 599.872 190.88 601.952 190.88C604.96 190.88 607.264 189.552 608.864 186.896L611.984 188.864C609.68 192.608 606.176 194.48 601.472 194.48ZM601.952 174.8C600.064 174.8 598.528 175.312 597.344 176.336C596.16 177.328 595.408 178.768 595.088 180.656H608.192C608.064 178.896 607.424 177.488 606.272 176.432C605.152 175.344 603.712 174.8 601.952 174.8ZM619.359 182.96C619.359 184.496 619.679 185.856 620.319 187.04C620.991 188.224 621.887 189.168 623.007 189.872C624.159 190.544 625.455 190.88 626.895 190.88C628.687 190.88 630.287 190.48 631.695 189.68C633.103 188.88 634.063 187.936 634.575 186.848V191.648C633.807 192.544 632.703 193.248 631.263 193.76C629.855 194.24 628.399 194.48 626.895 194.48C624.751 194.48 622.815 193.984 621.087 192.992C619.359 192 617.983 190.64 616.959 188.912C615.967 187.152 615.471 185.168 615.471 182.96C615.471 180.72 615.967 178.736 616.959 177.008C617.983 175.28 619.359 173.92 621.087 172.928C622.815 171.936 624.751 171.44 626.895 171.44C628.399 171.44 629.855 171.696 631.263 172.208C632.703 172.688 633.807 173.376 634.575 174.272V179.072C634.063 177.984 633.103 177.04 631.695 176.24C630.287 175.44 628.687 175.04 626.895 175.04C625.455 175.04 624.159 175.376 623.007 176.048C621.887 176.72 620.991 177.664 620.319 178.88C619.679 180.064 619.359 181.424 619.359 182.96ZM637.193 171.92H640.793V164.24H644.633V171.92H648.233V175.52H644.633V194H640.793V175.52H637.193V171.92ZM652.084 162.8C652.084 162.064 652.34 161.44 652.852 160.928C653.396 160.416 654.02 160.16 654.724 160.16C655.46 160.16 656.084 160.416 656.596 160.928C657.108 161.44 657.364 162.064 657.364 162.8C657.364 163.504 657.108 164.128 656.596 164.672C656.084 165.184 655.46 165.44 654.724 165.44C654.02 165.44 653.396 165.184 652.852 164.672C652.34 164.128 652.084 163.504 652.084 162.8ZM652.804 171.92H656.644V194H652.804V171.92ZM662.633 182.96C662.633 180.72 663.129 178.736 664.121 177.008C665.145 175.28 666.521 173.92 668.249 172.928C669.977 171.936 671.913 171.44 674.057 171.44C676.233 171.44 678.169 171.936 679.865 172.928C681.593 173.92 682.953 175.28 683.945 177.008C684.969 178.736 685.481 180.72 685.481 182.96C685.481 185.168 684.969 187.152 683.945 188.912C682.953 190.64 681.593 192 679.865 192.992C678.169 193.984 676.233 194.48 674.057 194.48C671.913 194.48 669.977 193.984 668.249 192.992C666.521 192 665.145 190.64 664.121 188.912C663.129 187.152 662.633 185.168 662.633 182.96ZM666.521 182.96C666.521 184.496 666.841 185.856 667.481 187.04C668.153 188.224 669.049 189.168 670.169 189.872C671.321 190.544 672.617 190.88 674.057 190.88C675.497 190.88 676.777 190.544 677.897 189.872C679.049 189.168 679.945 188.224 680.585 187.04C681.257 185.856 681.593 184.496 681.593 182.96C681.593 181.424 681.257 180.064 680.585 178.88C679.945 177.664 679.049 176.72 677.897 176.048C676.777 175.376 675.497 175.04 674.057 175.04C672.617 175.04 671.321 175.376 670.169 176.048C669.049 176.72 668.153 177.664 667.481 178.88C666.841 180.064 666.521 181.424 666.521 182.96ZM704.916 180.56C704.916 176.88 703.348 175.04 700.212 175.04C698.548 175.04 697.188 175.552 696.132 176.576C695.108 177.6 694.596 178.928 694.596 180.56V194H690.756V171.92H694.596V175.376C696.036 172.752 698.228 171.44 701.172 171.44C703.508 171.44 705.348 172.224 706.692 173.792C708.068 175.328 708.756 177.424 708.756 180.08V194H704.916V180.56ZM716.887 187.232C717.559 188.256 718.375 189.136 719.335 189.872C720.327 190.608 721.511 190.976 722.887 190.976C723.975 190.976 724.823 190.736 725.431 190.256C726.071 189.744 726.391 189.056 726.391 188.192C726.391 187.424 726.135 186.784 725.623 186.272C725.143 185.728 724.519 185.28 723.751 184.928C722.983 184.544 722.167 184.192 721.303 183.872C720.343 183.488 719.367 183.04 718.375 182.528C717.415 181.984 716.599 181.296 715.927 180.464C715.287 179.6 714.967 178.528 714.967 177.248C714.967 175.936 715.303 174.848 715.975 173.984C716.679 173.12 717.575 172.48 718.663 172.064C719.783 171.648 720.935 171.44 722.119 171.44C723.879 171.44 725.479 171.856 726.919 172.688C728.359 173.52 729.415 174.544 730.087 175.76L727.015 177.728C726.407 176.896 725.639 176.208 724.711 175.664C723.815 175.12 722.791 174.848 721.639 174.848C720.839 174.848 720.151 175.024 719.575 175.376C718.999 175.728 718.711 176.272 718.711 177.008C718.711 177.904 719.175 178.64 720.103 179.216C721.063 179.76 722.135 180.272 723.319 180.752C724.599 181.264 725.767 181.824 726.823 182.432C727.879 183.008 728.711 183.712 729.319 184.544C729.959 185.376 730.279 186.448 730.279 187.76C730.279 189.68 729.575 191.28 728.167 192.56C726.791 193.84 724.967 194.48 722.695 194.48C721.223 194.48 719.895 194.224 718.711 193.712C717.527 193.168 716.519 192.48 715.687 191.648C714.887 190.816 714.279 189.968 713.863 189.104L716.887 187.232ZM748.045 171.92H750.205V163.76C750.205 161.136 750.765 159.2 751.885 157.952C753.005 156.704 754.573 156.08 756.589 156.08C757.613 156.08 758.477 156.288 759.181 156.704C759.917 157.088 760.461 157.52 760.813 158L758.701 161.168C758.381 160.624 757.997 160.288 757.549 160.16C757.133 160 756.733 159.92 756.349 159.92C755.645 159.92 755.085 160.24 754.669 160.88C754.253 161.52 754.045 162.64 754.045 164.24V171.92H759.085V175.52H754.045V194H750.205V175.52H748.045V171.92ZM773.971 176.144C773.459 175.76 772.995 175.488 772.579 175.328C772.163 175.136 771.635 175.04 770.995 175.04C769.555 175.04 768.579 175.568 768.067 176.624C767.555 177.648 767.299 178.96 767.299 180.56V194H763.459V171.92H767.299V174.464C767.907 173.536 768.627 172.8 769.459 172.256C770.291 171.712 771.123 171.44 771.955 171.44C772.755 171.44 773.491 171.552 774.163 171.776C774.867 171.968 775.507 172.368 776.083 172.976L773.971 176.144ZM777.289 182.96C777.289 180.72 777.785 178.736 778.777 177.008C779.801 175.28 781.177 173.92 782.905 172.928C784.633 171.936 786.569 171.44 788.713 171.44C790.889 171.44 792.825 171.936 794.521 172.928C796.249 173.92 797.609 175.28 798.601 177.008C799.625 178.736 800.137 180.72 800.137 182.96C800.137 185.168 799.625 187.152 798.601 188.912C797.609 190.64 796.249 192 794.521 192.992C792.825 193.984 790.889 194.48 788.713 194.48C786.569 194.48 784.633 193.984 782.905 192.992C781.177 192 779.801 190.64 778.777 188.912C777.785 187.152 777.289 185.168 777.289 182.96ZM781.177 182.96C781.177 184.496 781.497 185.856 782.137 187.04C782.809 188.224 783.705 189.168 784.825 189.872C785.977 190.544 787.273 190.88 788.713 190.88C790.153 190.88 791.433 190.544 792.553 189.872C793.705 189.168 794.601 188.224 795.241 187.04C795.913 185.856 796.249 184.496 796.249 182.96C796.249 181.424 795.913 180.064 795.241 178.88C794.601 177.664 793.705 176.72 792.553 176.048C791.433 175.376 790.153 175.04 788.713 175.04C787.273 175.04 785.977 175.376 784.825 176.048C783.705 176.72 782.809 177.664 782.137 178.88C781.497 180.064 781.177 181.424 781.177 182.96ZM835.653 180.08V194H831.812V180.56C831.812 178.672 831.461 177.28 830.757 176.384C830.085 175.488 829.029 175.04 827.589 175.04C826.021 175.04 824.773 175.536 823.845 176.528C822.917 177.488 822.453 178.832 822.453 180.56V194H818.613V180.56C818.613 178.672 818.261 177.28 817.557 176.384C816.885 175.488 815.829 175.04 814.389 175.04C812.821 175.04 811.573 175.536 810.645 176.528C809.717 177.488 809.253 178.832 809.253 180.56V194H805.413V171.92H809.253V175.136C810.565 172.672 812.597 171.44 815.349 171.44C816.885 171.44 818.197 171.808 819.285 172.544C820.405 173.248 821.221 174.256 821.733 175.568C823.269 172.816 825.541 171.44 828.549 171.44C830.821 171.44 832.565 172.192 833.781 173.696C835.029 175.2 835.653 177.328 835.653 180.08ZM879.336 182.96C879.336 185.328 878.84 187.376 877.848 189.104C876.856 190.832 875.528 192.16 873.864 193.088C872.232 194.016 870.408 194.48 868.392 194.48C866.76 194.48 865.288 194.112 863.976 193.376C862.696 192.64 861.656 191.584 860.856 190.208V194H857.016V156.56H860.856V175.712C861.656 174.336 862.696 173.28 863.976 172.544C865.288 171.808 866.76 171.44 868.392 171.44C870.408 171.44 872.232 171.904 873.864 172.832C875.528 173.76 876.856 175.088 877.848 176.816C878.84 178.512 879.336 180.56 879.336 182.96ZM875.448 182.96C875.448 181.264 875.096 179.824 874.392 178.64C873.72 177.456 872.808 176.56 871.656 175.952C870.536 175.344 869.288 175.04 867.912 175.04C866.792 175.04 865.688 175.344 864.6 175.952C863.512 176.56 862.616 177.456 861.912 178.64C861.208 179.824 860.856 181.264 860.856 182.96C860.856 184.656 861.208 186.096 861.912 187.28C862.616 188.464 863.512 189.36 864.6 189.968C865.688 190.576 866.792 190.88 867.912 190.88C869.288 190.88 870.536 190.576 871.656 189.968C872.808 189.36 873.72 188.464 874.392 187.28C875.096 186.096 875.448 184.656 875.448 182.96ZM882.711 182.96C882.711 180.72 883.207 178.736 884.199 177.008C885.223 175.28 886.599 173.92 888.327 172.928C890.055 171.936 891.991 171.44 894.135 171.44C896.311 171.44 898.247 171.936 899.943 172.928C901.671 173.92 903.031 175.28 904.023 177.008C905.047 178.736 905.559 180.72 905.559 182.96C905.559 185.168 905.047 187.152 904.023 188.912C903.031 190.64 901.671 192 899.943 192.992C898.247 193.984 896.311 194.48 894.135 194.48C891.991 194.48 890.055 193.984 888.327 192.992C886.599 192 885.223 190.64 884.199 188.912C883.207 187.152 882.711 185.168 882.711 182.96ZM886.599 182.96C886.599 184.496 886.919 185.856 887.559 187.04C888.231 188.224 889.127 189.168 890.247 189.872C891.399 190.544 892.695 190.88 894.135 190.88C895.575 190.88 896.855 190.544 897.975 189.872C899.127 189.168 900.023 188.224 900.663 187.04C901.335 185.856 901.671 184.496 901.671 182.96C901.671 181.424 901.335 180.064 900.663 178.88C900.023 177.664 899.127 176.72 897.975 176.048C896.855 175.376 895.575 175.04 894.135 175.04C892.695 175.04 891.399 175.376 890.247 176.048C889.127 176.72 888.231 177.664 887.559 178.88C886.919 180.064 886.599 181.424 886.599 182.96ZM908.914 182.96C908.914 180.72 909.41 178.736 910.402 177.008C911.426 175.28 912.802 173.92 914.53 172.928C916.258 171.936 918.194 171.44 920.338 171.44C922.514 171.44 924.45 171.936 926.146 172.928C927.874 173.92 929.234 175.28 930.226 177.008C931.25 178.736 931.762 180.72 931.762 182.96C931.762 185.168 931.25 187.152 930.226 188.912C929.234 190.64 927.874 192 926.146 192.992C924.45 193.984 922.514 194.48 920.338 194.48C918.194 194.48 916.258 193.984 914.53 192.992C912.802 192 911.426 190.64 910.402 188.912C909.41 187.152 908.914 185.168 908.914 182.96ZM912.802 182.96C912.802 184.496 913.122 185.856 913.762 187.04C914.434 188.224 915.33 189.168 916.45 189.872C917.602 190.544 918.898 190.88 920.338 190.88C921.778 190.88 923.058 190.544 924.178 189.872C925.33 189.168 926.226 188.224 926.866 187.04C927.538 185.856 927.874 184.496 927.874 182.96C927.874 181.424 927.538 180.064 926.866 178.88C926.226 177.664 925.33 176.72 924.178 176.048C923.058 175.376 921.778 175.04 920.338 175.04C918.898 175.04 917.602 175.376 916.45 176.048C915.33 176.72 914.434 177.664 913.762 178.88C913.122 180.064 912.802 181.424 912.802 182.96ZM948.798 171.92H953.598L943.998 181.04L954.558 194H949.758L940.638 182.816V194H936.798V156.56H940.638V179.648L948.798 171.92ZM959.09 187.232C959.762 188.256 960.578 189.136 961.538 189.872C962.53 190.608 963.714 190.976 965.09 190.976C966.178 190.976 967.026 190.736 967.634 190.256C968.274 189.744 968.594 189.056 968.594 188.192C968.594 187.424 968.338 186.784 967.826 186.272C967.346 185.728 966.722 185.28 965.954 184.928C965.186 184.544 964.37 184.192 963.506 183.872C962.546 183.488 961.57 183.04 960.578 182.528C959.618 181.984 958.802 181.296 958.13 180.464C957.49 179.6 957.17 178.528 957.17 177.248C957.17 175.936 957.506 174.848 958.178 173.984C958.882 173.12 959.778 172.48 960.866 172.064C961.986 171.648 963.138 171.44 964.322 171.44C966.082 171.44 967.682 171.856 969.122 172.688C970.562 173.52 971.618 174.544 972.29 175.76L969.218 177.728C968.61 176.896 967.842 176.208 966.914 175.664C966.018 175.12 964.994 174.848 963.842 174.848C963.042 174.848 962.354 175.024 961.778 175.376C961.202 175.728 960.914 176.272 960.914 177.008C960.914 177.904 961.378 178.64 962.306 179.216C963.266 179.76 964.338 180.272 965.522 180.752C966.802 181.264 967.97 181.824 969.026 182.432C970.082 183.008 970.914 183.712 971.522 184.544C972.162 185.376 972.482 186.448 972.482 187.76C972.482 189.68 971.778 191.28 970.37 192.56C968.994 193.84 967.17 194.48 964.898 194.48C963.426 194.48 962.098 194.224 960.914 193.712C959.73 193.168 958.722 192.48 957.89 191.648C957.09 190.816 956.482 189.968 956.066 189.104L959.09 187.232ZM988.568 171.92H992.168V164.24H996.008V171.92H999.608V175.52H996.008V194H992.168V175.52H988.568V171.92ZM1017.62 180.56C1017.62 176.88 1016.05 175.04 1012.92 175.04C1011.25 175.04 1009.89 175.568 1008.84 176.624C1007.81 177.648 1007.3 178.96 1007.3 180.56V194H1003.46V156.56H1007.3V175.424C1007.97 174.208 1008.87 173.248 1009.99 172.544C1011.14 171.808 1012.44 171.44 1013.88 171.44C1016.15 171.44 1017.97 172.176 1019.35 173.648C1020.76 175.088 1021.46 177.232 1021.46 180.08V194H1017.62V180.56ZM1029.83 177.008L1027.96 174.176C1028.79 173.568 1029.93 172.96 1031.37 172.352C1032.84 171.744 1034.6 171.44 1036.65 171.44C1039.21 171.44 1041.29 172.032 1042.89 173.216C1044.49 174.368 1045.29 176.016 1045.29 178.16V194H1041.45V191.024C1040.74 192.176 1039.69 193.04 1038.28 193.616C1036.87 194.192 1035.49 194.48 1034.15 194.48C1032.81 194.48 1031.54 194.208 1030.36 193.664C1029.21 193.088 1028.28 192.272 1027.57 191.216C1026.87 190.16 1026.52 188.88 1026.52 187.376C1026.52 185.232 1027.27 183.52 1028.77 182.24C1030.31 180.928 1032.44 180.272 1035.16 180.272C1036.63 180.272 1037.88 180.448 1038.9 180.8C1039.96 181.12 1040.81 181.488 1041.45 181.904V178.688C1041.45 177.184 1040.95 176.16 1039.96 175.616C1039 175.072 1037.83 174.8 1036.45 174.8C1034.79 174.8 1033.4 175.072 1032.28 175.616C1031.16 176.16 1030.34 176.624 1029.83 177.008ZM1030.41 187.184C1030.41 188.464 1030.84 189.456 1031.7 190.16C1032.6 190.832 1033.75 191.168 1035.16 191.168C1036.92 191.168 1038.41 190.64 1039.62 189.584C1040.84 188.528 1041.45 187.12 1041.45 185.36V184.544C1040.55 184.096 1039.64 183.776 1038.71 183.584C1037.78 183.392 1036.81 183.296 1035.78 183.296C1033.93 183.296 1032.57 183.648 1031.7 184.352C1030.84 185.024 1030.41 185.968 1030.41 187.184ZM1048.43 171.92H1052.03V164.24H1055.87V171.92H1059.47V175.52H1055.87V194H1052.03V175.52H1048.43V171.92ZM1074.35 171.92H1077.95V164.24H1081.79V171.92H1085.39V175.52H1081.79V194H1077.95V175.52H1074.35V171.92ZM1103.4 180.56C1103.4 176.88 1101.83 175.04 1098.7 175.04C1097.03 175.04 1095.67 175.568 1094.62 176.624C1093.59 177.648 1093.08 178.96 1093.08 180.56V194H1089.24V156.56H1093.08V175.424C1093.75 174.208 1094.65 173.248 1095.77 172.544C1096.92 171.808 1098.22 171.44 1099.66 171.44C1101.93 171.44 1103.75 172.176 1105.13 173.648C1106.54 175.088 1107.24 177.232 1107.24 180.08V194H1103.4V180.56ZM1123 194.48C1120.96 194.48 1119.13 194 1117.53 193.04C1115.96 192.048 1114.73 190.688 1113.84 188.96C1112.97 187.232 1112.54 185.232 1112.54 182.96C1112.54 180.656 1112.99 178.64 1113.88 176.912C1114.81 175.184 1116.09 173.84 1117.72 172.88C1119.39 171.92 1121.31 171.44 1123.48 171.44C1126.72 171.44 1129.26 172.448 1131.12 174.464C1132.97 176.48 1133.9 179.248 1133.9 182.768C1133.9 182.992 1133.88 183.232 1133.85 183.488C1133.85 183.712 1133.85 183.856 1133.85 183.92H1116.48C1116.64 186.128 1117.32 187.84 1118.54 189.056C1119.76 190.272 1121.4 190.88 1123.48 190.88C1126.49 190.88 1128.8 189.552 1130.4 186.896L1133.52 188.864C1131.21 192.608 1127.71 194.48 1123 194.48ZM1123.48 174.8C1121.6 174.8 1120.06 175.312 1118.88 176.336C1117.69 177.328 1116.94 178.768 1116.62 180.656H1129.72C1129.6 178.896 1128.96 177.488 1127.8 176.432C1126.68 175.344 1125.24 174.8 1123.48 174.8ZM1155.98 171.92L1141.58 204.56H1137.26L1143.31 190.88L1134.86 171.92H1139.42L1145.61 187.136L1151.66 171.92H1155.98ZM96.112 245.144C95.6 244.76 95.136 244.488 94.72 244.328C94.304 244.136 93.776 244.04 93.136 244.04C91.696 244.04 90.72 244.568 90.208 245.624C89.696 246.648 89.44 247.96 89.44 249.56V263H85.6V240.92H89.44V243.464C90.048 242.536 90.768 241.8 91.6 241.256C92.432 240.712 93.264 240.44 94.096 240.44C94.896 240.44 95.632 240.552 96.304 240.776C97.008 240.968 97.648 241.368 98.224 241.976L96.112 245.144ZM109.894 263.48C107.846 263.48 106.022 263 104.422 262.04C102.854 261.048 101.622 259.688 100.726 257.96C99.862 256.232 99.43 254.232 99.43 251.96C99.43 249.656 99.878 247.64 100.774 245.912C101.702 244.184 102.982 242.84 104.614 241.88C106.278 240.92 108.198 240.44 110.374 240.44C113.606 240.44 116.15 241.448 118.006 243.464C119.862 245.48 120.79 248.248 120.79 251.768C120.79 251.992 120.774 252.232 120.742 252.488C120.742 252.712 120.742 252.856 120.742 252.92H103.366C103.526 255.128 104.214 256.84 105.43 258.056C106.646 259.272 108.294 259.88 110.374 259.88C113.382 259.88 115.686 258.552 117.286 255.896L120.406 257.864C118.102 261.608 114.598 263.48 109.894 263.48ZM110.374 243.8C108.486 243.8 106.95 244.312 105.766 245.336C104.582 246.328 103.83 247.768 103.51 249.656H116.614C116.486 247.896 115.846 246.488 114.694 245.432C113.574 244.344 112.134 243.8 110.374 243.8ZM127.205 246.008L125.333 243.176C126.165 242.568 127.301 241.96 128.741 241.352C130.213 240.744 131.973 240.44 134.021 240.44C136.581 240.44 138.661 241.032 140.261 242.216C141.861 243.368 142.661 245.016 142.661 247.16V263H138.821V260.024C138.117 261.176 137.061 262.04 135.653 262.616C134.245 263.192 132.869 263.48 131.525 263.48C130.181 263.48 128.917 263.208 127.733 262.664C126.581 262.088 125.653 261.272 124.949 260.216C124.245 259.16 123.893 257.88 123.893 256.376C123.893 254.232 124.645 252.52 126.149 251.24C127.685 249.928 129.813 249.272 132.533 249.272C134.005 249.272 135.253 249.448 136.277 249.8C137.333 250.12 138.181 250.488 138.821 250.904V247.688C138.821 246.184 138.325 245.16 137.333 244.616C136.373 244.072 135.205 243.8 133.829 243.8C132.165 243.8 130.773 244.072 129.653 244.616C128.533 245.16 127.717 245.624 127.205 246.008ZM127.781 256.184C127.781 257.464 128.213 258.456 129.077 259.16C129.973 259.832 131.125 260.168 132.533 260.168C134.293 260.168 135.781 259.64 136.997 258.584C138.213 257.528 138.821 256.12 138.821 254.36V253.544C137.925 253.096 137.013 252.776 136.085 252.584C135.157 252.392 134.181 252.296 133.157 252.296C131.301 252.296 129.941 252.648 129.077 253.352C128.213 254.024 127.781 254.968 127.781 256.184ZM147.243 251.96C147.243 249.56 147.738 247.512 148.73 245.816C149.723 244.088 151.051 242.76 152.715 241.832C154.379 240.904 156.203 240.44 158.187 240.44C159.819 240.44 161.275 240.808 162.555 241.544C163.867 242.28 164.923 243.336 165.723 244.712V225.56H169.562V263H165.723V259.208C164.923 260.584 163.867 261.64 162.555 262.376C161.275 263.112 159.819 263.48 158.187 263.48C156.203 263.48 154.379 263.016 152.715 262.088C151.051 261.16 149.723 259.832 148.73 258.104C147.738 256.376 147.243 254.328 147.243 251.96ZM151.131 251.96C151.131 253.656 151.467 255.096 152.139 256.28C152.843 257.464 153.771 258.36 154.923 258.968C156.075 259.576 157.323 259.88 158.667 259.88C159.787 259.88 160.891 259.576 161.979 258.968C163.067 258.36 163.963 257.464 164.667 256.28C165.371 255.096 165.723 253.656 165.723 251.96C165.723 250.264 165.371 248.824 164.667 247.64C163.963 246.456 163.067 245.56 161.979 244.952C160.891 244.344 159.787 244.04 158.667 244.04C157.323 244.04 156.075 244.344 154.923 244.952C153.771 245.56 152.843 246.456 152.139 247.64C151.467 248.824 151.131 250.264 151.131 251.96ZM187.568 240.92H191.168V233.24H195.008V240.92H198.608V244.52H195.008V263H191.168V244.52H187.568V240.92ZM200.539 251.96C200.539 249.72 201.035 247.736 202.027 246.008C203.051 244.28 204.427 242.92 206.155 241.928C207.883 240.936 209.819 240.44 211.963 240.44C214.139 240.44 216.075 240.936 217.771 241.928C219.499 242.92 220.859 244.28 221.851 246.008C222.875 247.736 223.387 249.72 223.387 251.96C223.387 254.168 222.875 256.152 221.851 257.912C220.859 259.64 219.499 261 217.771 261.992C216.075 262.984 214.139 263.48 211.963 263.48C209.819 263.48 207.883 262.984 206.155 261.992C204.427 261 203.051 259.64 202.027 257.912C201.035 256.152 200.539 254.168 200.539 251.96ZM204.427 251.96C204.427 253.496 204.747 254.856 205.387 256.04C206.059 257.224 206.955 258.168 208.075 258.872C209.227 259.544 210.523 259.88 211.963 259.88C213.403 259.88 214.683 259.544 215.803 258.872C216.955 258.168 217.851 257.224 218.491 256.04C219.163 254.856 219.499 253.496 219.499 251.96C219.499 250.424 219.163 249.064 218.491 247.88C217.851 246.664 216.955 245.72 215.803 245.048C214.683 244.376 213.403 244.04 211.963 244.04C210.523 244.04 209.227 244.376 208.075 245.048C206.955 245.72 206.059 246.664 205.387 247.88C204.747 249.064 204.427 250.424 204.427 251.96ZM239.693 240.92H243.293V233.24H247.133V240.92H250.733V244.52H247.133V263H243.293V244.52H239.693V240.92ZM268.744 249.56C268.744 245.88 267.176 244.04 264.04 244.04C262.376 244.04 261.016 244.568 259.96 245.624C258.936 246.648 258.424 247.96 258.424 249.56V263H254.584V225.56H258.424V244.424C259.096 243.208 259.992 242.248 261.112 241.544C262.264 240.808 263.56 240.44 265 240.44C267.272 240.44 269.096 241.176 270.472 242.648C271.88 244.088 272.584 246.232 272.584 249.08V263H268.744V249.56ZM288.347 263.48C286.299 263.48 284.475 263 282.875 262.04C281.307 261.048 280.075 259.688 279.179 257.96C278.315 256.232 277.883 254.232 277.883 251.96C277.883 249.656 278.331 247.64 279.227 245.912C280.155 244.184 281.435 242.84 283.067 241.88C284.731 240.92 286.651 240.44 288.827 240.44C292.059 240.44 294.603 241.448 296.459 243.464C298.315 245.48 299.243 248.248 299.243 251.768C299.243 251.992 299.227 252.232 299.195 252.488C299.195 252.712 299.195 252.856 299.195 252.92H281.819C281.979 255.128 282.667 256.84 283.883 258.056C285.099 259.272 286.747 259.88 288.827 259.88C291.835 259.88 294.139 258.552 295.739 255.896L298.859 257.864C296.555 261.608 293.051 263.48 288.347 263.48ZM288.827 243.8C286.939 243.8 285.403 244.312 284.219 245.336C283.035 246.328 282.283 247.768 281.963 249.656H295.067C294.939 247.896 294.299 246.488 293.147 245.432C292.027 244.344 290.587 243.8 288.827 243.8ZM304.506 231.8C304.506 231.064 304.762 230.44 305.274 229.928C305.818 229.416 306.442 229.16 307.146 229.16C307.882 229.16 308.506 229.416 309.018 229.928C309.53 230.44 309.786 231.064 309.786 231.8C309.786 232.504 309.53 233.128 309.018 233.672C308.506 234.184 307.882 234.44 307.146 234.44C306.442 234.44 305.818 234.184 305.274 233.672C304.762 233.128 304.506 232.504 304.506 231.8ZM305.226 240.92H309.066V263H305.226V240.92ZM327.487 245.144C326.975 244.76 326.511 244.488 326.095 244.328C325.679 244.136 325.151 244.04 324.511 244.04C323.071 244.04 322.095 244.568 321.583 245.624C321.071 246.648 320.815 247.96 320.815 249.56V263H316.975V240.92H320.815V243.464C321.423 242.536 322.143 241.8 322.975 241.256C323.807 240.712 324.639 240.44 325.471 240.44C326.271 240.44 327.007 240.552 327.679 240.776C328.383 240.968 329.023 241.368 329.599 241.976L327.487 245.144ZM351.419 273.56H347.579V240.92H351.419V244.712C352.219 243.336 353.259 242.28 354.539 241.544C355.851 240.808 357.323 240.44 358.955 240.44C360.971 240.44 362.795 240.904 364.427 241.832C366.091 242.76 367.419 244.088 368.411 245.816C369.403 247.512 369.899 249.56 369.899 251.96C369.899 254.328 369.403 256.376 368.411 258.104C367.419 259.832 366.091 261.16 364.427 262.088C362.795 263.016 360.971 263.48 358.955 263.48C357.323 263.48 355.851 263.112 354.539 262.376C353.259 261.64 352.219 260.584 351.419 259.208V273.56ZM366.011 251.96C366.011 250.264 365.659 248.824 364.955 247.64C364.283 246.456 363.371 245.56 362.219 244.952C361.099 244.344 359.851 244.04 358.475 244.04C357.355 244.04 356.251 244.344 355.163 244.952C354.075 245.56 353.179 246.456 352.475 247.64C351.771 248.824 351.419 250.264 351.419 251.96C351.419 253.656 351.771 255.096 352.475 256.28C353.179 257.464 354.075 258.36 355.163 258.968C356.251 259.576 357.355 259.88 358.475 259.88C359.851 259.88 361.099 259.576 362.219 258.968C363.371 258.36 364.283 257.464 364.955 256.28C365.659 255.096 366.011 253.656 366.011 251.96ZM383.738 263.48C381.69 263.48 379.866 263 378.266 262.04C376.698 261.048 375.466 259.688 374.57 257.96C373.706 256.232 373.274 254.232 373.274 251.96C373.274 249.656 373.722 247.64 374.618 245.912C375.546 244.184 376.826 242.84 378.458 241.88C380.122 240.92 382.042 240.44 384.218 240.44C387.45 240.44 389.994 241.448 391.85 243.464C393.706 245.48 394.634 248.248 394.634 251.768C394.634 251.992 394.618 252.232 394.586 252.488C394.586 252.712 394.586 252.856 394.586 252.92H377.21C377.37 255.128 378.058 256.84 379.274 258.056C380.49 259.272 382.138 259.88 384.218 259.88C387.226 259.88 389.53 258.552 391.13 255.896L394.25 257.864C391.946 261.608 388.442 263.48 383.738 263.48ZM384.218 243.8C382.33 243.8 380.794 244.312 379.61 245.336C378.426 246.328 377.674 247.768 377.354 249.656H390.458C390.33 247.896 389.69 246.488 388.538 245.432C387.418 244.344 385.978 243.8 384.218 243.8ZM410.409 245.144C409.897 244.76 409.433 244.488 409.017 244.328C408.601 244.136 408.073 244.04 407.433 244.04C405.993 244.04 405.017 244.568 404.505 245.624C403.993 246.648 403.737 247.96 403.737 249.56V263H399.897V240.92H403.737V243.464C404.345 242.536 405.065 241.8 405.897 241.256C406.729 240.712 407.561 240.44 408.393 240.44C409.193 240.44 409.929 240.552 410.601 240.776C411.305 240.968 411.945 241.368 412.521 241.976L410.409 245.144ZM417.262 256.232C417.934 257.256 418.75 258.136 419.71 258.872C420.702 259.608 421.886 259.976 423.262 259.976C424.35 259.976 425.198 259.736 425.806 259.256C426.446 258.744 426.766 258.056 426.766 257.192C426.766 256.424 426.51 255.784 425.998 255.272C425.518 254.728 424.894 254.28 424.126 253.928C423.358 253.544 422.542 253.192 421.678 252.872C420.718 252.488 419.742 252.04 418.75 251.528C417.79 250.984 416.974 250.296 416.302 249.464C415.662 248.6 415.342 247.528 415.342 246.248C415.342 244.936 415.678 243.848 416.35 242.984C417.054 242.12 417.95 241.48 419.038 241.064C420.158 240.648 421.31 240.44 422.494 240.44C424.254 240.44 425.854 240.856 427.294 241.688C428.734 242.52 429.79 243.544 430.462 244.76L427.39 246.728C426.782 245.896 426.014 245.208 425.086 244.664C424.19 244.12 423.166 243.848 422.014 243.848C421.214 243.848 420.526 244.024 419.95 244.376C419.374 244.728 419.086 245.272 419.086 246.008C419.086 246.904 419.55 247.64 420.478 248.216C421.438 248.76 422.51 249.272 423.694 249.752C424.974 250.264 426.142 250.824 427.198 251.432C428.254 252.008 429.086 252.712 429.694 253.544C430.334 254.376 430.654 255.448 430.654 256.76C430.654 258.68 429.95 260.28 428.542 261.56C427.166 262.84 425.342 263.48 423.07 263.48C421.598 263.48 420.27 263.224 419.086 262.712C417.902 262.168 416.894 261.48 416.062 260.648C415.262 259.816 414.654 258.968 414.238 258.104L417.262 256.232ZM433.789 251.96C433.789 249.72 434.285 247.736 435.277 246.008C436.301 244.28 437.677 242.92 439.405 241.928C441.133 240.936 443.069 240.44 445.213 240.44C447.389 240.44 449.325 240.936 451.021 241.928C452.749 242.92 454.109 244.28 455.101 246.008C456.125 247.736 456.637 249.72 456.637 251.96C456.637 254.168 456.125 256.152 455.101 257.912C454.109 259.64 452.749 261 451.021 261.992C449.325 262.984 447.389 263.48 445.213 263.48C443.069 263.48 441.133 262.984 439.405 261.992C437.677 261 436.301 259.64 435.277 257.912C434.285 256.152 433.789 254.168 433.789 251.96ZM437.677 251.96C437.677 253.496 437.997 254.856 438.637 256.04C439.309 257.224 440.205 258.168 441.325 258.872C442.477 259.544 443.773 259.88 445.213 259.88C446.653 259.88 447.933 259.544 449.053 258.872C450.205 258.168 451.101 257.224 451.741 256.04C452.413 254.856 452.749 253.496 452.749 251.96C452.749 250.424 452.413 249.064 451.741 247.88C451.101 246.664 450.205 245.72 449.053 245.048C447.933 244.376 446.653 244.04 445.213 244.04C443.773 244.04 442.477 244.376 441.325 245.048C440.205 245.72 439.309 246.664 438.637 247.88C437.997 249.064 437.677 250.424 437.677 251.96ZM476.073 249.56C476.073 245.88 474.505 244.04 471.369 244.04C469.705 244.04 468.345 244.552 467.289 245.576C466.265 246.6 465.753 247.928 465.753 249.56V263H461.913V240.92H465.753V244.376C467.193 241.752 469.385 240.44 472.329 240.44C474.665 240.44 476.505 241.224 477.849 242.792C479.225 244.328 479.913 246.424 479.913 249.08V263H476.073V249.56ZM488.283 246.008L486.411 243.176C487.243 242.568 488.379 241.96 489.819 241.352C491.291 240.744 493.051 240.44 495.099 240.44C497.659 240.44 499.739 241.032 501.339 242.216C502.939 243.368 503.739 245.016 503.739 247.16V263H499.899V260.024C499.195 261.176 498.139 262.04 496.731 262.616C495.323 263.192 493.947 263.48 492.603 263.48C491.259 263.48 489.995 263.208 488.811 262.664C487.659 262.088 486.731 261.272 486.027 260.216C485.323 259.16 484.971 257.88 484.971 256.376C484.971 254.232 485.723 252.52 487.227 251.24C488.763 249.928 490.891 249.272 493.611 249.272C495.083 249.272 496.331 249.448 497.355 249.8C498.411 250.12 499.259 250.488 499.899 250.904V247.688C499.899 246.184 499.403 245.16 498.411 244.616C497.451 244.072 496.283 243.8 494.907 243.8C493.243 243.8 491.851 244.072 490.731 244.616C489.611 245.16 488.795 245.624 488.283 246.008ZM488.859 256.184C488.859 257.464 489.291 258.456 490.155 259.16C491.051 259.832 492.203 260.168 493.611 260.168C495.371 260.168 496.859 259.64 498.075 258.584C499.291 257.528 499.899 256.12 499.899 254.36V253.544C499.003 253.096 498.091 252.776 497.163 252.584C496.235 252.392 495.259 252.296 494.235 252.296C492.379 252.296 491.019 252.648 490.155 253.352C489.291 254.024 488.859 254.968 488.859 256.184ZM510.241 225.56H514.081V263H510.241V225.56ZM535.694 225.56H539.534V263H535.694V225.56ZM546.756 231.8C546.756 231.064 547.012 230.44 547.524 229.928C548.068 229.416 548.692 229.16 549.396 229.16C550.132 229.16 550.756 229.416 551.268 229.928C551.78 230.44 552.036 231.064 552.036 231.8C552.036 232.504 551.78 233.128 551.268 233.672C550.756 234.184 550.132 234.44 549.396 234.44C548.692 234.44 548.068 234.184 547.524 233.672C547.012 233.128 546.756 232.504 546.756 231.8ZM547.476 240.92H551.316V263H547.476V240.92ZM557.545 240.92H559.705V232.76C559.705 230.136 560.265 228.2 561.385 226.952C562.505 225.704 564.073 225.08 566.089 225.08C567.113 225.08 567.977 225.288 568.681 225.704C569.417 226.088 569.961 226.52 570.313 227L568.201 230.168C567.881 229.624 567.497 229.288 567.049 229.16C566.633 229 566.233 228.92 565.849 228.92C565.145 228.92 564.585 229.24 564.169 229.88C563.753 230.52 563.545 231.64 563.545 233.24V240.92H568.585V244.52H563.545V263H559.705V244.52H557.545V240.92ZM581.503 263.48C579.455 263.48 577.631 263 576.031 262.04C574.463 261.048 573.231 259.688 572.335 257.96C571.471 256.232 571.039 254.232 571.039 251.96C571.039 249.656 571.487 247.64 572.383 245.912C573.311 244.184 574.591 242.84 576.223 241.88C577.887 240.92 579.807 240.44 581.983 240.44C585.215 240.44 587.759 241.448 589.615 243.464C591.471 245.48 592.399 248.248 592.399 251.768C592.399 251.992 592.383 252.232 592.351 252.488C592.351 252.712 592.351 252.856 592.351 252.92H574.975C575.135 255.128 575.823 256.84 577.039 258.056C578.255 259.272 579.903 259.88 581.983 259.88C584.991 259.88 587.295 258.552 588.895 255.896L592.015 257.864C589.711 261.608 586.207 263.48 581.503 263.48ZM581.983 243.8C580.095 243.8 578.559 244.312 577.375 245.336C576.191 246.328 575.439 247.768 575.119 249.656H588.223C588.095 247.896 587.455 246.488 586.303 245.432C585.183 244.344 583.743 243.8 581.983 243.8ZM596.232 261.08C596.232 260.344 596.488 259.72 597 259.208C597.544 258.696 598.168 258.44 598.872 258.44C599.608 258.44 600.232 258.696 600.744 259.208C601.256 259.72 601.512 260.344 601.512 261.08C601.512 261.784 601.256 262.408 600.744 262.952C600.232 263.464 599.608 263.72 598.872 263.72C598.168 263.72 597.544 263.464 597 262.952C596.488 262.408 596.232 261.784 596.232 261.08ZM611.343 229.4H615.903L611.103 240.44H608.463L611.343 229.4ZM620.943 229.4H625.503L620.703 240.44H618.062L620.943 229.4ZM82.24 322.4V318.8H91.84V322.4H82.24ZM114.965 309.296L112.469 332H108.389L112.469 296.72L125.909 321.056L139.349 296.72L143.429 332H139.349L136.853 309.296L125.909 328.88L114.965 309.296ZM149.84 325.232C150.512 326.256 151.328 327.136 152.288 327.872C153.28 328.608 154.464 328.976 155.84 328.976C156.928 328.976 157.776 328.736 158.384 328.256C159.024 327.744 159.344 327.056 159.344 326.192C159.344 325.424 159.088 324.784 158.576 324.272C158.096 323.728 157.472 323.28 156.704 322.928C155.936 322.544 155.12 322.192 154.256 321.872C153.296 321.488 152.32 321.04 151.328 320.528C150.368 319.984 149.552 319.296 148.88 318.464C148.24 317.6 147.92 316.528 147.92 315.248C147.92 313.936 148.256 312.848 148.928 311.984C149.632 311.12 150.528 310.48 151.616 310.064C152.736 309.648 153.888 309.44 155.072 309.44C156.832 309.44 158.432 309.856 159.872 310.688C161.312 311.52 162.368 312.544 163.04 313.76L159.968 315.728C159.36 314.896 158.592 314.208 157.664 313.664C156.768 313.12 155.744 312.848 154.592 312.848C153.792 312.848 153.104 313.024 152.528 313.376C151.952 313.728 151.664 314.272 151.664 315.008C151.664 315.904 152.128 316.64 153.056 317.216C154.016 317.76 155.088 318.272 156.272 318.752C157.552 319.264 158.72 319.824 159.776 320.432C160.832 321.008 161.664 321.712 162.272 322.544C162.912 323.376 163.232 324.448 163.232 325.76C163.232 327.68 162.528 329.28 161.12 330.56C159.744 331.84 157.92 332.48 155.648 332.48C154.176 332.48 152.848 332.224 151.664 331.712C150.48 331.168 149.472 330.48 148.64 329.648C147.84 328.816 147.232 327.968 146.816 327.104L149.84 325.232ZM169.248 330.08C169.248 329.344 169.504 328.72 170.016 328.208C170.56 327.696 171.184 327.44 171.888 327.44C172.624 327.44 173.248 327.696 173.76 328.208C174.272 328.72 174.528 329.344 174.528 330.08C174.528 330.784 174.272 331.408 173.76 331.952C173.248 332.464 172.624 332.72 171.888 332.72C171.184 332.72 170.56 332.464 170.016 331.952C169.504 331.408 169.248 330.784 169.248 330.08ZM220.349 332L216.077 321.92H202.541L198.269 332H193.709L209.309 296.72L224.909 332H220.349ZM209.309 305.984L204.173 318.08H214.445L209.309 305.984ZM228.756 294.56H232.596V332H228.756V294.56ZM243.419 342.56H239.579V309.92H243.419V313.712C244.219 312.336 245.259 311.28 246.539 310.544C247.851 309.808 249.323 309.44 250.955 309.44C252.971 309.44 254.795 309.904 256.427 310.832C258.091 311.76 259.419 313.088 260.411 314.816C261.403 316.512 261.899 318.56 261.899 320.96C261.899 323.328 261.403 325.376 260.411 327.104C259.419 328.832 258.091 330.16 256.427 331.088C254.795 332.016 252.971 332.48 250.955 332.48C249.323 332.48 247.851 332.112 246.539 331.376C245.259 330.64 244.219 329.584 243.419 328.208V342.56ZM258.011 320.96C258.011 319.264 257.659 317.824 256.955 316.64C256.283 315.456 255.371 314.56 254.219 313.952C253.099 313.344 251.851 313.04 250.475 313.04C249.355 313.04 248.251 313.344 247.163 313.952C246.075 314.56 245.179 315.456 244.475 316.64C243.771 317.824 243.419 319.264 243.419 320.96C243.419 322.656 243.771 324.096 244.475 325.28C245.179 326.464 246.075 327.36 247.163 327.968C248.251 328.576 249.355 328.88 250.475 328.88C251.851 328.88 253.099 328.576 254.219 327.968C255.371 327.36 256.283 326.464 256.955 325.28C257.659 324.096 258.011 322.656 258.011 320.96ZM268.346 315.008L266.474 312.176C267.306 311.568 268.442 310.96 269.882 310.352C271.354 309.744 273.114 309.44 275.162 309.44C277.722 309.44 279.802 310.032 281.402 311.216C283.002 312.368 283.802 314.016 283.802 316.16V332H279.962V329.024C279.258 330.176 278.202 331.04 276.794 331.616C275.386 332.192 274.01 332.48 272.666 332.48C271.322 332.48 270.058 332.208 268.874 331.664C267.722 331.088 266.794 330.272 266.09 329.216C265.386 328.16 265.034 326.88 265.034 325.376C265.034 323.232 265.786 321.52 267.29 320.24C268.826 318.928 270.954 318.272 273.674 318.272C275.146 318.272 276.394 318.448 277.418 318.8C278.474 319.12 279.322 319.488 279.962 319.904V316.688C279.962 315.184 279.466 314.16 278.474 313.616C277.514 313.072 276.346 312.8 274.97 312.8C273.306 312.8 271.914 313.072 270.794 313.616C269.674 314.16 268.858 314.624 268.346 315.008ZM268.922 325.184C268.922 326.464 269.354 327.456 270.218 328.16C271.114 328.832 272.266 329.168 273.674 329.168C275.434 329.168 276.922 328.64 278.138 327.584C279.354 326.528 279.962 325.12 279.962 323.36V322.544C279.066 322.096 278.154 321.776 277.226 321.584C276.298 321.392 275.322 321.296 274.298 321.296C272.442 321.296 271.082 321.648 270.218 322.352C269.354 323.024 268.922 323.968 268.922 325.184ZM304.463 318.56C304.463 314.88 302.895 313.04 299.759 313.04C298.095 313.04 296.735 313.552 295.679 314.576C294.655 315.6 294.143 316.928 294.143 318.56V332H290.303V309.92H294.143V313.376C295.583 310.752 297.775 309.44 300.719 309.44C303.055 309.44 304.895 310.224 306.239 311.792C307.615 313.328 308.303 315.424 308.303 318.08V332H304.463V318.56ZM316.674 315.008L314.802 312.176C315.634 311.568 316.77 310.96 318.21 310.352C319.682 309.744 321.442 309.44 323.49 309.44C326.05 309.44 328.13 310.032 329.73 311.216C331.33 312.368 332.13 314.016 332.13 316.16V332H328.29V329.024C327.586 330.176 326.53 331.04 325.122 331.616C323.714 332.192 322.338 332.48 320.994 332.48C319.65 332.48 318.386 332.208 317.202 331.664C316.05 331.088 315.122 330.272 314.418 329.216C313.714 328.16 313.362 326.88 313.362 325.376C313.362 323.232 314.114 321.52 315.618 320.24C317.154 318.928 319.282 318.272 322.002 318.272C323.474 318.272 324.722 318.448 325.746 318.8C326.802 319.12 327.65 319.488 328.29 319.904V316.688C328.29 315.184 327.794 314.16 326.802 313.616C325.842 313.072 324.674 312.8 323.298 312.8C321.634 312.8 320.242 313.072 319.122 313.616C318.002 314.16 317.186 314.624 316.674 315.008ZM317.25 325.184C317.25 326.464 317.682 327.456 318.546 328.16C319.442 328.832 320.594 329.168 322.002 329.168C323.762 329.168 325.25 328.64 326.466 327.584C327.682 326.528 328.29 325.12 328.29 323.36V322.544C327.394 322.096 326.482 321.776 325.554 321.584C324.626 321.392 323.65 321.296 322.626 321.296C320.77 321.296 319.41 321.648 318.546 322.352C317.682 323.024 317.25 323.968 317.25 325.184ZM354.51 321.824C355.63 323.872 356.878 325.52 358.254 326.768C359.662 328.016 361.374 328.64 363.39 328.64C365.182 328.64 366.622 328.144 367.71 327.152C368.798 326.16 369.342 324.896 369.342 323.36C369.342 321.856 368.99 320.656 368.286 319.76C367.582 318.864 366.654 318.144 365.502 317.6C364.382 317.024 363.182 316.512 361.902 316.064C361.07 315.776 360.142 315.408 359.118 314.96C358.094 314.48 357.118 313.888 356.19 313.184C355.262 312.448 354.494 311.552 353.886 310.496C353.31 309.44 353.022 308.144 353.022 306.608C353.022 304.944 353.438 303.456 354.27 302.144C355.102 300.832 356.254 299.808 357.726 299.072C359.198 298.304 360.878 297.92 362.766 297.92C364.59 297.92 366.174 298.272 367.518 298.976C368.894 299.648 370.062 300.528 371.022 301.616C371.982 302.672 372.734 303.792 373.278 304.976L369.774 306.992C369.358 306.16 368.83 305.344 368.19 304.544C367.55 303.744 366.766 303.088 365.838 302.576C364.942 302.064 363.838 301.808 362.526 301.808C360.702 301.808 359.374 302.256 358.542 303.152C357.71 304.016 357.294 304.992 357.294 306.08C357.294 307.488 357.854 308.72 358.974 309.776C360.094 310.832 362.126 311.872 365.07 312.896C365.966 313.216 366.91 313.632 367.902 314.144C368.894 314.656 369.806 315.312 370.638 316.112C371.502 316.88 372.206 317.824 372.75 318.944C373.294 320.032 373.566 321.344 373.566 322.88C373.566 324.832 373.07 326.528 372.078 327.968C371.118 329.408 369.854 330.528 368.286 331.328C366.718 332.096 365.038 332.48 363.246 332.48C361.422 332.48 359.726 332.096 358.158 331.328C356.622 330.528 355.262 329.488 354.078 328.208C352.926 326.896 351.982 325.504 351.246 324.032L354.51 321.824ZM379.319 300.8C379.319 300.064 379.575 299.44 380.087 298.928C380.631 298.416 381.255 298.16 381.959 298.16C382.695 298.16 383.319 298.416 383.831 298.928C384.343 299.44 384.599 300.064 384.599 300.8C384.599 301.504 384.343 302.128 383.831 302.672C383.319 303.184 382.695 303.44 381.959 303.44C381.255 303.44 380.631 303.184 380.087 302.672C379.575 302.128 379.319 301.504 379.319 300.8ZM380.039 309.92H383.879V332H380.039V309.92ZM405.948 318.56C405.948 314.88 404.38 313.04 401.244 313.04C399.58 313.04 398.22 313.552 397.164 314.576C396.14 315.6 395.628 316.928 395.628 318.56V332H391.788V309.92H395.628V313.376C397.068 310.752 399.26 309.44 402.204 309.44C404.54 309.44 406.38 310.224 407.724 311.792C409.1 313.328 409.788 315.424 409.788 318.08V332H405.948V318.56ZM415.518 333.44H419.406C419.406 334.496 419.694 335.472 420.27 336.368C420.846 337.296 421.662 338.032 422.718 338.576C423.774 339.152 425.022 339.44 426.462 339.44C427.582 339.44 428.686 339.168 429.774 338.624C430.862 338.08 431.758 337.216 432.462 336.032C433.198 334.88 433.566 333.376 433.566 331.52V328.208C432.766 329.584 431.71 330.64 430.398 331.376C429.118 332.112 427.662 332.48 426.03 332.48C424.046 332.48 422.222 332.016 420.558 331.088C418.894 330.16 417.566 328.832 416.574 327.104C415.582 325.376 415.086 323.328 415.086 320.96C415.086 318.56 415.582 316.512 416.574 314.816C417.566 313.088 418.894 311.76 420.558 310.832C422.222 309.904 424.046 309.44 426.03 309.44C427.662 309.44 429.118 309.808 430.398 310.544C431.71 311.28 432.766 312.336 433.566 313.712V309.92H437.406V331.52C437.406 334.048 436.878 336.16 435.822 337.856C434.766 339.584 433.406 340.88 431.742 341.744C430.078 342.608 428.318 343.04 426.462 343.04C424.318 343.04 422.414 342.64 420.75 341.84C419.118 341.04 417.838 339.904 416.91 338.432C415.982 336.992 415.518 335.328 415.518 333.44ZM418.974 320.96C418.974 322.656 419.31 324.096 419.982 325.28C420.686 326.464 421.614 327.36 422.766 327.968C423.918 328.576 425.166 328.88 426.51 328.88C427.63 328.88 428.734 328.576 429.822 327.968C430.91 327.36 431.806 326.464 432.51 325.28C433.214 324.096 433.566 322.656 433.566 320.96C433.566 319.264 433.214 317.824 432.51 316.64C431.806 315.456 430.91 314.56 429.822 313.952C428.734 313.344 427.63 313.04 426.51 313.04C425.166 313.04 423.918 313.344 422.766 313.952C421.614 314.56 420.686 315.456 419.982 316.64C419.31 317.824 418.974 319.264 418.974 320.96ZM458.541 318.56C458.541 314.88 456.973 313.04 453.837 313.04C452.173 313.04 450.813 313.568 449.757 314.624C448.733 315.648 448.221 316.96 448.221 318.56V332H444.381V294.56H448.221V313.424C448.893 312.208 449.789 311.248 450.909 310.544C452.061 309.808 453.357 309.44 454.797 309.44C457.069 309.44 458.893 310.176 460.269 311.648C461.677 313.088 462.381 315.232 462.381 318.08V332H458.541V318.56ZM490.231 294.56H493.831C492.167 298.144 490.951 301.936 490.183 305.936C489.415 309.936 489.031 313.984 489.031 318.08C489.031 322.144 489.415 326.176 490.183 330.176C490.951 334.176 492.167 337.984 493.831 341.6H490.231C488.311 337.984 486.903 334.176 486.007 330.176C485.143 326.176 484.711 322.144 484.711 318.08C484.711 313.984 485.143 309.936 486.007 305.936C486.903 301.936 488.311 298.144 490.231 294.56ZM501.49 315.2C501.49 317.792 502.066 320.08 503.218 322.064C504.402 324.048 505.938 325.6 507.826 326.72C509.714 327.84 511.762 328.4 513.97 328.4C516.338 328.4 518.434 327.936 520.258 327.008C522.082 326.08 523.586 324.88 524.77 323.408V328.784C523.362 330.032 521.826 330.96 520.162 331.568C518.498 332.176 516.434 332.48 513.97 332.48C511.634 332.48 509.442 332.064 507.394 331.232C505.378 330.368 503.602 329.168 502.066 327.632C500.53 326.064 499.33 324.224 498.466 322.112C497.602 320 497.17 317.696 497.17 315.2C497.17 312.704 497.602 310.4 498.466 308.288C499.33 306.176 500.53 304.352 502.066 302.816C503.602 301.248 505.378 300.048 507.394 299.216C509.442 298.352 511.634 297.92 513.97 297.92C516.434 297.92 518.498 298.224 520.162 298.832C521.826 299.44 523.362 300.368 524.77 301.616V306.992C523.586 305.488 522.082 304.288 520.258 303.392C518.434 302.464 516.338 302 513.97 302C511.762 302 509.714 302.56 507.826 303.68C505.938 304.8 504.402 306.352 503.218 308.336C502.066 310.288 501.49 312.576 501.49 315.2ZM531.709 298.4H535.789V320.96C535.789 323.264 536.413 325.12 537.661 326.528C538.909 327.936 540.733 328.64 543.133 328.64C545.533 328.64 547.357 327.936 548.605 326.528C549.853 325.12 550.477 323.264 550.477 320.96V298.4H554.557V320.96C554.557 323.168 554.077 325.152 553.117 326.912C552.189 328.64 550.877 330 549.181 330.992C547.485 331.984 545.469 332.48 543.133 332.48C540.829 332.48 538.813 331.984 537.085 330.992C535.389 330 534.061 328.64 533.101 326.912C532.173 325.152 531.709 323.168 531.709 320.96V298.4ZM563.244 321.824C564.364 323.872 565.612 325.52 566.988 326.768C568.396 328.016 570.108 328.64 572.124 328.64C573.916 328.64 575.356 328.144 576.444 327.152C577.532 326.16 578.076 324.896 578.076 323.36C578.076 321.856 577.724 320.656 577.02 319.76C576.316 318.864 575.388 318.144 574.236 317.6C573.116 317.024 571.916 316.512 570.636 316.064C569.804 315.776 568.876 315.408 567.852 314.96C566.828 314.48 565.852 313.888 564.924 313.184C563.996 312.448 563.228 311.552 562.62 310.496C562.044 309.44 561.756 308.144 561.756 306.608C561.756 304.944 562.172 303.456 563.004 302.144C563.836 300.832 564.988 299.808 566.46 299.072C567.932 298.304 569.612 297.92 571.5 297.92C573.324 297.92 574.908 298.272 576.252 298.976C577.628 299.648 578.796 300.528 579.756 301.616C580.716 302.672 581.468 303.792 582.012 304.976L578.508 306.992C578.092 306.16 577.564 305.344 576.924 304.544C576.284 303.744 575.5 303.088 574.572 302.576C573.676 302.064 572.572 301.808 571.26 301.808C569.436 301.808 568.108 302.256 567.276 303.152C566.444 304.016 566.028 304.992 566.028 306.08C566.028 307.488 566.588 308.72 567.708 309.776C568.828 310.832 570.86 311.872 573.804 312.896C574.7 313.216 575.644 313.632 576.636 314.144C577.628 314.656 578.54 315.312 579.372 316.112C580.236 316.88 580.94 317.824 581.484 318.944C582.028 320.032 582.3 321.344 582.3 322.88C582.3 324.832 581.804 326.528 580.812 327.968C579.852 329.408 578.588 330.528 577.02 331.328C575.452 332.096 573.772 332.48 571.98 332.48C570.156 332.48 568.46 332.096 566.892 331.328C565.356 330.528 563.996 329.488 562.812 328.208C561.66 326.896 560.716 325.504 559.98 324.032L563.244 321.824ZM598.373 332H588.293V298.4H598.373C601.637 298.4 604.533 299.104 607.061 300.512C609.589 301.92 611.573 303.888 613.013 306.416C614.453 308.912 615.173 311.84 615.173 315.2C615.173 318.56 614.453 321.504 613.013 324.032C611.573 326.528 609.589 328.48 607.061 329.888C604.533 331.296 601.637 332 598.373 332ZM598.373 302.48H592.373V327.92H598.373C600.901 327.92 603.109 327.408 604.997 326.384C606.917 325.328 608.405 323.856 609.461 321.968C610.549 320.048 611.093 317.792 611.093 315.2C611.093 312.576 610.549 310.32 609.461 308.432C608.405 306.544 606.917 305.088 604.997 304.064C603.109 303.008 600.901 302.48 598.373 302.48ZM622.118 341.6H618.518C620.214 337.984 621.43 334.176 622.166 330.176C622.934 326.176 623.318 322.144 623.318 318.08C623.318 313.984 622.934 309.936 622.166 305.936C621.43 301.936 620.214 298.144 618.518 294.56H622.118C624.038 298.144 625.43 301.936 626.294 305.936C627.19 309.936 627.638 313.984 627.638 318.08C627.638 322.144 627.19 326.176 626.294 330.176C625.43 334.176 624.038 337.984 622.118 341.6Z" fill="#AC3791"/>
<defs>
<filter id="filter0_d" x="0" y="0" width="1248" height="501" filterUnits="userSpaceOnUse" color-interpolation-filters="sRGB">
<feFlood flood-opacity="0" result="BackgroundImageFix"/>
<feColorMatrix in="SourceAlpha" type="matrix" values="0 0 0 0 0 0 0 0 0 0 0 0 0 0 0 0 0 0 127 0"/>
<feOffset dx="4" dy="4"/>
<feGaussianBlur stdDeviation="2"/>
<feColorMatrix type="matrix" values="0 0 0 0 0 0 0 0 0 0 0 0 0 0 0 0 0 0 0.25 0"/>
<feBlend mode="normal" in2="BackgroundImageFix" result="effect1_dropShadow"/>
<feBlend mode="normal" in="SourceGraphic" in2="effect1_dropShadow" result="shape"/>
</filter>
<linearGradient id="paint0_linear" x1="28.9477" y1="56.1472" x2="845.269" y2="833.859" gradientUnits="userSpaceOnUse">
<stop stop-color="#98DCFC"/>
<stop offset="1" stop-color="#FDF1C5"/>
</linearGradient>
</defs>
</svg>
