<svg xmlns="http://www.w3.org/2000/svg" enable-background="new 0 0 2000 2000" viewBox="0 0 2000 2000"><switch><g><path fill="#ffe0a9" d="M272.4,1601.6c4.2-62.3,144.8-72.2,158.4-162.6c10.5-69.2-62.8-122.9-50-137.6
				c19.5-22.4,162.1,136.1,358.6,183.4c202.3,48.8,261.2-68.7,546.2-66.7c171.9,1.2,446,46.1,475.3,170.9
				c16.1,68.3-29.8,89.3-110.2,130c-191.9,96.9-380.2-119.4-681.9-63.2c-153.6,28.6-162.7,114.1-325.2,120.9
				C452.5,1784.6,267.5,1674.6,272.4,1601.6z"/><path fill="#ffc29f" d="M462.5 1596.9c2.1 12.1 46 21.1 84.3 11.7 40.9-10 39.1-32.1 81.2-46.2 47.5-15.9 77.1 2.9 89.9-16 10-14.8 6.3-36.5-10-46.9-20.5-13-36.5 19.8-108.8 43.4-25.2 8.2-88.8 11.6-128 41.7C467.6 1587.3 461.7 1592.1 462.5 1596.9zM757.9 1677.4c-10.5-5.1-17-19.6-14.9-31.6 2.2-12.7 12.9-15 36.4-35.1 21.1-18 36-30.7 41.6-50.8 4.5-16.1-1.2-21.5 4.8-29.8 13.6-18.6 62-17.4 73.2 3.1 8.1 14.8-5.8 35.3-25.4 64-5 7.3-26.3 37.6-66.6 63.5C786.1 1674.2 770.8 1683.7 757.9 1677.4zM1037.1 1599.9c-.8 6.6 31.4 17.8 57.9 22.2 39.8 6.6 53.3-4.4 92.7 3.2 23.5 4.5 24.8 9.6 53.1 18.2 36.1 11.1 61.8 11.4 98.3 13.5 141.1 8.2 157.5 27.2 191.8 6.3 33.1-20.2 25-42.2 59.5-57.1 51.7-22.2 104.6 12.4 114.2-4 5.6-9.7-6.4-33.1-25.4-43.6-36.8-20.3-68.9 24.9-148.2 36.5-51.7 7.5-55.5-9.1-150.6-10.3-42.5-.5-49.8 2.7-113.4 6.3C1120.9 1599.6 1038.4 1589.6 1037.1 1599.9z"/><path fill="#ffe682" d="M394.5,877.1"/><g><path fill="#919416" d="M614.1 560.6c0 0-.2.5-.7 1.3v0c-2.1 3.8-8.5 15.1-18 26.7-.3.4-.6.7-.9 1.1-3.7 4.3-7.7 8.6-12.1 12.6 0 0 0 0 0 0-.5.5-1.1.9-1.6 1.4-7.1 6.1-15.2 11-23.7 13.3-1.2.3-2.4.6-3.7.8-.4.1-.9.1-1.3.2-34.4 5.4-48.8-2.1-52.4-4.5-.7-.5-1-.7-1-.7s.2-.8.6-2.2c1.6-4.8 6.2-16.9 16.6-28.5.9-1 1.9-2 2.9-3.1 6.8-6.8 15.6-13.1 27.1-17.4h0c.7-.3 1.5-.6 2.2-.8 7.6-2.6 16.2-4.3 26.2-4.7.6 0 1.2 0 1.8-.1h0c10.3-.3 22 .9 35.2 3.9C612.1 560.1 613.1 560.3 614.1 560.6zM353.5 543c0 0-.5 0-1.5.2-5 .7-22.1 3.4-37.1 11.7-.4.2-.8.4-1.2.7-7.9 4.6-15.1 10.9-19.5 19.4-.2.4-.4.8-.6 1.3-1.2 2.6-2.1 5.3-2.7 8.3-2 9.8-3 18.1-3.4 25.1 0 .5 0 1-.1 1.5-.6 16.9 2.6 26.1 5.3 30.7.9 1.6 1.7 2.6 2.2 3.2.1.1.2.2.3.3l.4.4c-.4-.2-2.6-1.4-6-3.4-9.6-5.9-28.6-19.1-41.2-38.2-.3-.4-.5-.8-.8-1.1-11-17.1-16.7-38.9-6.1-64.1 2.1-4.9 4.5-9.4 7.1-13.4.3-.4.5-.8.8-1.2 12.8-18.6 31-26.8 48.7-27.1.5 0 .9 0 1.4 0 26.1.1 50.5 17.4 53.7 43.8C353.4 541.7 353.4 542.3 353.5 543z"/><path fill="#a73608" d="M394,829.5c0,0,22.2-34.8,120.6-60.7l-8.1,30.3l-77,39.9L394,829.5z"/><path fill="#de4d08" d="M557.5,910.1c0,0-20.7,14.8-37.7,24.4c-10.8,6.1-35.9,15.2-56,20c-11.6,2.8-21.5,4.1-26.1,2.6
								c-7.9-2.5-22.9-51.6-33.1-88.2c-6.1-22-10.5-39.5-10.5-39.5c18.3-0.4,34.1-2.9,47.6-6.7c19.3-5.4,34-13.4,44.9-21.6
								c21-15.8,28.1-32.3,28.1-32.3c9.7,16.3,17.3,31.8,23.1,46.2c2.9,7.2,5.4,14.2,7.6,20.8C559.6,880.4,557.5,910.1,557.5,910.1z
								"/><path fill="#ca3c08" d="M463.8,954.5c-11.6,2.8-21.5,4.1-26.1,2.6c-7.9-2.5-22.9-51.6-33.1-88.2c8-18.3,21.5-34.2,37-46.2
							c19.3-5.4,34-13.4,44.9-21.6c12.5-2.7,24.4-2.3,34.4,1.8c2.2,0.9,10.6,4.3,16.8,12.1c1.7,2.1,3.3,4.6,4.5,7.4
							c1.8,4.1,2.8,8.6,3,13.4C547.1,873.6,503.4,929.9,463.8,954.5z"/><path fill="#006d24" d="M611 559.9c-18 3.2-32.8 7.4-45.5 12-.7.3-1.3-.5-1-1.2 2.4-4.3 8-11 11.5-14.8-.5 0-.9 0-1.4 0-.2 0-.4.1-.6.3-3.8 4.2-10.6 12.3-11.7 16.5-.1.3-.2.5-.5.6-10.6 4.1-19.6 8.5-27.5 13-.7.4-1.4-.3-1.2-1 3.5-9.7 11.7-20.6 14.9-24.7-.8.3-1.5.5-2.2.8h0c-4.2 5.5-12.3 17-14.8 26.5-.1.2-.2.4-.4.5-6.8 4-12.8 8.1-18.3 11.9-.6.4-1.4-.1-1.3-.8.9-6.3 5.2-15.7 7.6-20.8-1 1-1.9 2-2.8 3-.1.1-.1.1-.1.2-2.8 6.1-6.2 14.5-6.1 19.8-.1.2-.2.4-.3.7-3.6 2.5-6.9 5.1-10 7.9-34.5 30.6-42.2 77.7-42.2 113.3-.1 38.4 8.5 71.3 10 76.8.1.4.6.7 1 .6l.7-.2c.4-.1.7-.6.6-1-1.5-5.4-10-38-9.9-76.2 0-34.6 7.4-80.3 40.2-110.4 3.4-3.1 7-6 11-8.8.3-.2.6-.4 1-.7 5.5 2.9 23.9 12.2 40.3 14 .1 0 .1 0 .2 0 .4-.1.8-.1 1.2-.2 1.2-.2 2.5-.5 3.7-.8-15.6-.1-35.3-9.3-43-13.2-.5-.3-.6-1-.1-1.4 5.7-3.9 11.8-8 18.8-12.2h0c5.8 2.9 28.3 13.5 46.6 13.5.4 0 .8 0 1.2 0 .2 0 .4-.1.5-.2.5-.4.9-.8 1.4-1.2-16.7 1.2-38.5-8.2-47-12.2-.6-.3-.6-1.1-.1-1.4 8-4.5 17-9 27.8-13.2.3-.1.6-.1.8.1 3.5 3 13 10 30.6 14.1.3-.4.6-.7.9-1.1-15.7-3.6-25.1-9.6-29.3-12.9-.5-.4-.4-1.2.2-1.4 13-4.8 28.4-9.1 47.2-12.3v0c.5-.9.7-1.3.7-1.3-.9-.2-1.9-.5-2.8-.7C611.2 559.9 611.1 559.9 611 559.9zM403.2 619.2c-1.2-2.2-2.7-5.2-4.5-8.7-9.1-17.8-24.8-48.6-45.5-69.5-9-9.1-19-16.4-29.7-19.8-.1 0-.2-.1-.3-.2-5.2-3.7-21-15.7-23.7-23.9-.5 0-.9 0-1.4 0 2.2 7.6 14.8 17.9 21.6 23h0c0 0 0 0 0 0 0 0 0 0 0 0-10.4-2.4-20.8-.8-31 4.6-.1 0-.2.1-.3.1-5.8 1.3-18.1 2.8-38.2-.5-.5-.1-.9.1-1.2.5-.1.2-.2.4-.4.6 17.6 3 29.4 2.5 36.4 1.4-1.1.7-2.2 1.4-3.2 2.2-12.4 8.8-20.7 29.3-20.5 51 0 .4 0 .8 0 1.2 0 .1 0 .1 0 .2-.6 4.9-2.2 11.9-6.7 16.8-2 2.1-4.3 3.7-7 4.7.3.4.5.8.8 1.1 2.8-1 5.2-2.7 7.3-4.9 1.9-2.1 3.4-4.5 4.4-7 .5-1.1 2.1-.9 2.3.3 3 19.2 12.5 36.5 27.2 49.8.1.1.1.1.2.1 3.5 2.1 5.7 3.3 5.9 3.4-.1-.1-1.3-1.1-2.9-3.7-.1-.1-.2-.2-.2-.3-23.5-20-28.3-44.8-28.8-59.6 0 0 0 0 0 0 0 0 0 0 0 0v0c3.2 8.2 10.4 22.3 23.7 29 0-.2 0-.5 0-.7 0-.5-.2-.9-.6-1.1-14.3-7.9-21-24.6-23.1-31.2 0 0 0 0 0 0 .3-20.2 8-38.9 19.5-47 1.8-1.3 3.6-2.4 5.3-3.4 1-.5 2.1.4 1.7 1.4-3.5 10.3-9.6 34 3.4 47.1.2-.4.4-.9.6-1.3-14-14.7-3.8-43-1.4-49.1.1-.3.3-.5.6-.7 8.7-3.8 17.6-4.6 26.4-2.4.6.1 1.2.3 1.8.5-4.2 2-7.2 5.1-8.9 9.1-3.2 7.8-1.1 17.4.9 23.3.4-.2.8-.5 1.2-.7-1.9-5.7-3.9-14.9-.9-22.1 1.7-4 4.8-7 9.1-8.8.3-.1.6-.1.9 0 10 3.5 19.4 10.5 27.9 19.2 20.1 20.6 35.6 50.9 44.6 68.5 1.8 3.5 3.3 6.5 4.5 8.7 40.7 74.4 47.5 170.9 48.2 182.6 0 .7.6 1.1 1.2 1.1l0 0c.7 0 1.2-.6 1.1-1.3C451 790.9 444.1 694 403.2 619.2z"/><g><path fill="#ff9172" d="M499.5,1503.7c0,0-11.9,40.1-17.7,50.6c-5.8,10.5-26.3,42.3,5.7,36c32-6.3,96.4-26.7,97.4-32
						c1-5.2-16.1-12.9-28.1-10.4s-37.8,9.3-37.8,9.3l18.8-51.4L499.5,1503.7z"/><path fill="#3f1c7f" d="M478.6,1560.4c0,0,16.6,17.3,17.5,28.1c0,0,81.7-25.6,80.4-28.6c-5.1-12-30.3-9.6-30.3-9.6
						s11.8-10.4,27.7-8.8c13.6,1.4,19.3,5.4,19.6,12.9c0.1,2.3-1.2,4.4-3.3,5.2c-16.9,6.8-97.8,38.8-113.8,36.5
						c-13-1.9-18.3-11.7-10.8-22.9C472.9,1562.4,478.6,1560.4,478.6,1560.4z"/><path fill="#5709dc" d="M498.8,1386.6c-3.8,115.1-33.1,148.7-33.1,148.7s78.6,3.8,92.1-15.3c13.4-19.2,16.2-514.1,16.2-514.1
						l-64.2-11.7c0,0-10.6,31.7-19.2,96.6C483.4,1144.9,501.1,1316.1,498.8,1386.6z"/></g><g><path fill="#ff9172" d="M632.7,1466.4c0,0,16.8,48.8,14.2,59.3c-2.6,10.5,4.7,27.3,17.8,16.8c13.1-10.5,63-42,71.4-61.4
						c8.4-19.4-8.9-16.3-17.8-14.7s-41.5,39.1-41.5,39.1l-22-52.2L632.7,1466.4z"/><path fill="#3f1c7f" d="M646.9,1525.7c0,0-7.9,14.2,0,26.8c7.9,12.6,29.4-10.5,29.4-10.5s63-48.3,65.6-61.9s-10-25.7-23.6-19.4
						c-13.6,6.3-18.9,15.2-18.9,15.2s24.8,7.5,26.2,12.6s-53,49.9-59.8,49.3C658.9,1537.2,646.9,1525.7,646.9,1525.7z"/><path fill="#3f1c9f" d="M549.1,1026.1c0,0-10.6,32-15,62.2c-3.5,23.8,24.6,131.2,31.3,183c6.7,51.8,48.9,258.4,62.8,258.4
						c13.9,0,54.2-30.7,58-49.9c3.8-19.2-64.2-327.5-67.6-392.7l-8.5-71.2C610.2,1015.9,559,990.8,549.1,1026.1z"/></g><g><path fill="#f59481" d="M624,815.4c0,0,15.7,4.1,18.1,24.5c2.4,20.5,20.9,114.5,1.1,140.8c-19.8,26.3-28.7-14.1-28.7-14.1
					S594,817.1,624,815.4z"/></g><g><path fill="#f59481" d="M436.1,956.1c0,0-46.5-17.1-46.5-28.6S507.3,813,513.9,820.5c6.6,7.4,11,35.4,5.1,46.9
					c-5.9,11.5-87.4,62.6-89.9,69.2S436.1,956.1,436.1,956.1z"/></g><g><path fill="#de2c08" d="M549.1,801.4c-11.5,0.9-41.9,6.2-43.9,14c-2,7.8-5.4,51.8-6.4,82.4c-1,30.7-3.5,133.1,1.5,134.1
					c4.9,1,121.7,11.9,129.6-8.9c7.9-20.8-7.9-160.3-7.9-160.3s-15.8-32.4,2-47.4C624,815.4,581.6,798.8,549.1,801.4z"/></g><g><path fill="#f59481" d="M583.3,759.9c0,0-13.4,9.3,0,48l-30.2-3.9l-4-59.5L583.3,759.9z"/><path fill="#ffa58d" d="M604.5,662.7c0,0,21.6,18.3,14.8,54.2c-6.7,35.9-19.6,53.8-40.4,43.4c-23.2-11.5-52.6-76.2-22.3-88.8
							S604.5,662.7,604.5,662.7z"/><path fill="#671c54" d="M607.3,706.7c0.1,2.3,0.1,4.6-0.1,6.9c-0.2,1.6,1.5,3,3,3c1.8,0,2.8-1.4,3-3c0.2-2.3,0.3-4.6,0.1-6.9
								c-0.1-1.6-1.3-3-3-3C608.8,703.7,607.2,705,607.3,706.7L607.3,706.7z"/><path fill="#ff888d" d="M620.3,710.1c0,0,4,22.4,6.2,28.1c0,0-9.8,0.7-12.4-2.1C611.4,733.4,620.3,710.1,620.3,710.1z"/><path fill="#ff988d" d="M602.8,733.2c-0.5,0.1,0.8,0,0.8,0c0.5,0,1,0,1.5,0.1c-0.6-0.1,0.9,0.2,0.8,0.1
								c0.5,0.1,0.9,0.2,1.4,0.4c2.1,0.7,4.7-0.8,5.2-2.9c0.5-2.3-0.7-4.4-2.9-5.2c-3-0.9-5.9-1-8.9-0.6c-2.2,0.3-3.6,3.2-2.9,5.2
								C598.4,732.7,600.4,733.6,602.8,733.2L602.8,733.2z"/><path fill="#ff888d" d="M603.1,754.2C603.1,754.2,603,754.2,603.1,754.2c-0.2,0-17.4-0.9-20.4-19c-0.2-1,0.5-1.9,1.5-2.1
							c1-0.2,1.9,0.5,2.1,1.5c2.5,15.1,16.3,15.9,16.9,15.9c1,0,1.8,0.9,1.7,1.9C604.8,753.5,604.1,754.2,603.1,754.2z"/><path fill="#671c54" d="M597.8,932.9c5.8,8.2,10.2,19.1,9.9,29.5c-0.4,16.2-12.1,31-46.9,31.8c-57.2,1.3-71.4-38.4-70-57.9
							c1.4-19.5,18.2-53.9,20.2-82.2c2-28.3-8.1-62-6.7-93.6c1.4-31.7-16.6-114.8,47.8-123.3c1.9-0.2,3.7-0.4,5.6-0.5
							c12.8-0.8,24.5,1.7,36.3,9.2c5.3,3.3,19.8,16.4,19.8,28.9c0,0-33.1-7.2-29.1,11c4,18.2,13.1,41.8-2.6,57.9
							c-15.7,16.2-10.5,29.6,0,44.4c10.5,14.8,7.8,51.2,1.1,71.4C576.2,879.6,583,912,597.8,932.9z"/><path fill="#ff888d" d="M600.9,701c-0.5,0-0.9-0.2-1.3-0.5c-0.7-0.7-0.7-1.8,0-2.5c7.3-7.5,14.5-3.8,14.8-3.7
							c0.9,0.5,1.2,1.5,0.7,2.4c-0.5,0.9-1.5,1.2-2.4,0.8c-0.2-0.1-5.2-2.5-10.5,3C601.9,700.8,601.4,701,600.9,701z"/><path fill="#4e1c54" d="M607.7,962.4c-0.4,16.2-12.1,31-46.9,31.8c-57.2,1.3-71.4-38.4-70-57.9c1.4-19.5,18.2-53.9,20.2-82.2
						c2-28.3-8.1-62-6.7-93.6c1.4-31.7-16.6-114.8,47.8-123.3c1.9-0.2,3.7-0.4,5.6-0.5c-9.7,4.1-21.2,11.2-25.3,22.7
						c-4.2,11.9,3.7,16.7,6.4,37.5c3.7,28.8-9.7,32.6-7.3,56.7c3.3,32.6,29.5,39,27.4,65.8c-1.4,18.5-14.4,20.8-19.2,36.6
						C528.3,893.1,585.7,929.7,607.7,962.4z"/></g></g><g><path fill="#ff8a1e" d="M993.2,1317.1l-69.9,14h0c-76.3,19.8-172.8-39.6-188.7-49.9c-1.4-0.9-2.1-1.4-2.3-1.5c0,0,0,0,0,0
					l-0.3-4.8c3-34.2,66.5-228,66.5-228l0.1-10l4.8-0.8l105.7,10.7c0,0,1.7,24.6,13.6,110.4C934.5,1243.2,993.2,1317.1,993.2,1317.1
					z"/><path fill="#ff9172" d="M780.7,1238.5c0,0,38.6,166,41.5,179.3c2.9,13.3,36.1,156.1,45.2,165s25.2-3.7,24.6-13.2
						c-0.6-9.4-53.4-346.9-53.4-346.9L780.7,1238.5z"/><path fill="#ff9172" d="M867.3,1582.8c0,0-24.9-28.1-18.5-30.6c6.4-2.4,45.7-10.3,47-7.2c1.3,3.1-3.9,24.6-3.9,24.6L867.3,1582.8z
						"/><path fill="#f31c00" d="M861.5,1569.6c0,0,4.7-13.5,11.3-14.7c7.4-1.4,15.3,8.4,18.4,6.6s2.8-12.9,2.8-12.9l-4.7,0.7l-0.9-5
						c0,0,9.3-5.3,8.3,5.2c-1,10.5-3.7,33.8-10.8,34.7c-7.1,0.9-16,9.4-27.9-7.4s-15.4-26.4-9.2-27.2c6.2-0.8,6.2-0.8,6.2-0.8
						L861.5,1569.6z"/><path fill="#1a6624" d="M937.1,1046.4c-12.6,6.2-24.2,11.3-34.8,15.5c-112.1,44.7-120.2-8.6-120.2-8.6c-0.8-2.8-0.7-13.9-0.2-28.4
					c1.4-39.2,6-104,6-104l6-2.4c7.8-8,4.9-35.7,2.4-51.8l125.9-11.3c3.5,10.5,4.4,20.6,4.4,20.6s-6.1,30.9-9,76.4
					c-1.7,27.1,5.6,55.4,11.8,73.7C933.4,1038.5,937.1,1046.4,937.1,1046.4z"/><path fill="#ffa58d" d="M898.4,1287.4c0,0-35.3-34.1-61.6-20.6c0,0-26.6,138.2-32.5,172.7c0,0-30.7,59.6-36.3,188.3
						c0,0-2.9,11.1-12.7,27.2c-5.5,9.5-11.6,22.8-3.7,23.8c12.3,1.5,24.5,3.1,30.8-1.3c6.2-4.4,45.8-32,43.5-41.1
						c-1.4-5.8-16.4-12-28.9-14.9c20.5-54.5,30.3-134.3,40.8-147.7C850.6,1457.2,898.4,1287.4,898.4,1287.4z"/><path fill="#f31c00" d="M796.9,1621.5l-3.6,12c0,0,29.9,3.1,27.2,12.9c0,0-38.9,26.7-40.7,24.5s2.8-16.8-2.8-18.1
						c-5.5-1.3-18-5-21.8,2.2c-3.8,7.2-19.9,25.7,1.6,27.9c21.6,2.1,30.7,1.2,38.5-5.9c7.8-7.1,30.5-31,31.8-34.4
						C828.4,1639.2,835.8,1625.9,796.9,1621.5z"/><path fill="#ffc01e" d="M993.2,1317.1c-8.2,11.2-36.5,19.4-69.9,14h0c-22.2-3.6-46.6-13.2-68.6-31.8
						c-51.3-43.4-106.9-14.3-120.1-18c-1-0.3-1.8-0.8-2.3-1.5c0,0,0,0,0,0c-0.5-0.7-0.6-2.3-0.3-4.8c3-34.2,66.5-228,66.5-228
						l0.1-10l0-1.3l4.8,0.5l44.4,4.5l61.3,6.2c0,0,1.7,24.6,13.6,110.4C934.5,1243.2,993.2,1317.1,993.2,1317.1z"/><path fill="#ffa31e" d="M993.2,1317.1c-8.2,11.2-36.5,19.4-69.9,14h0c0,0-64.6-72.5-60.7-171.8c2.4-61.7-7.2-99.1-14.8-118.6
						l61.3,6.2c0,0,1.7,24.6,13.6,110.4C934.5,1243.2,993.2,1317.1,993.2,1317.1z"/><g><path fill="#ffa58d" d="M674.3,935.7c0,0,5.5,12.2,22.9,12.8c17.3,0.6,87.2-26.3,96.6-30c9.4-3.7,17.4-37,15.9-50.8
						c-1.4-13.8-8-16.7-8-16.7s-104.1,60.1-124.6,67.5C673,920,674.3,935.7,674.3,935.7z"/><path fill="#ffa58d" d="M534.8,943.4c-14.1,4.7-26.8-11-18.7-23.5c1.7-2.6,4.1-4.7,7.5-6.1c18.1-7.4,33.5-13.7,33.5-13.7
						s-18.5-9.7-19.7-17c0,0,43.9,16.4,57.6,18.8c13.7,2.3,88.3,11.6,106.7,8.8s19.4,29,9.2,34.8c-10.2,5.7-38.9,2.5-52.4,0.2
						s-64-18.3-82.3-14.5C566.2,933.3,548.5,938.9,534.8,943.4z"/></g><g><path fill="#1a8124" d="M937.1,1046.4c-1.8,7.7-16,13.8-34.8,15.5c-17.6,1.6-39.3-0.5-58.5-8.6c-39.8-16.7-61.7,0-61.7,0
						c-0.8-2.8-0.7-13.9-0.2-28.4c1.4-39.2,6-104,6-104l6-2.4c7.8-8,4.9-35.7,2.4-51.8c-1.1-7-2.1-11.7-2.1-11.7l2.5-1.5l19-11.1
						c0,0,59.8-10.3,83.4-10.3c12.3,0,19.2,11.9,23,23.4c3.5,10.5,4.4,20.6,4.4,20.6s-4.6,23.3-7.7,59.2c-0.5,5.4-0.9,11.2-1.3,17.2
						c-1.7,27.1,5.6,55.4,11.8,73.7C933.4,1038.5,937.1,1046.4,937.1,1046.4z"/><path fill="#849324" d="M937.1,1046.4c-3.4,15-53.6,23.6-93.4,6.9s-61.7,0-61.7,0c-0.8-2.8-0.7-13.9-0.2-28.4
						c11.3-4.1,31.3-8.3,57.4-1.3c38,10.2,62.1,22.4,90,2.5C933.4,1038.5,937.1,1046.4,937.1,1046.4z"/><path fill="#1a6a24" d="M926.4,876c0,0-4.6,23.3-7.7,59.2c-15,3.9-42,7.4-69.4-7c-29.9-15.8-51.4-48.3-52.8-74.7l19-11.1
						c0,0,59.8-10.3,83.4-10.3c12.3,0,19.2,11.9,23,23.4C925.6,865.9,926.4,876,926.4,876z"/></g><path fill="#ffa58d" d="M923.6,860.5c0,0,16.2,99.6,18.5,123.4c0.9,9.8-15.6,36.1-18.5,23.2c-2.9-13-16.5-34.1-9.6-63.4
					S923.6,860.5,923.6,860.5z"/><g><path fill="#ff888d" d="M778.8,716.1c0,0-15.3,20.3-16.1,22.6c-0.5,1.7,2.5,4.7,7.8,5.8C775.2,745.5,778.8,716.1,778.8,716.1z"/><path fill="#ffa58d" d="M784.6,688.6c0,0-15.2,45-13.9,52.9c1.4,7.9,8.7,40.1,17.8,35.7c9.1-4.3,17.8-64,17.8-64L784.6,688.6z"/><path fill="#fe751e" d="M956.1,851.7c-9.4,4.4-11.2,12.1-16.2,17.8c-0.8,0.9-1.6,1.7-2.6,2.5c-7.2,5.8-18.7,2.8-24.3,8.6
						c-9.4,9.8-17,17.6-23.9,21.8c-38.3,22.8-65.5-47.8-90.9-92.7c-24.1-42.7-27.9-119.9,0.9-144.1c1.5-1.3,3.1-2.4,4.9-3.4
						c34.1-19.3,52.6-0.2,58.7,13c6.2,13.5,10.1,33.1,14.8,53.4c5.8,24.7,12.9,50.5,27.2,68c12.5,15.2,70.3,31.2,73.2,38.4
						C980.8,842.3,966.9,846.7,956.1,851.7z"/><path fill="#fe611e" d="M939.9,869.5c-0.8,0.9-1.6,1.7-2.6,2.5c-7.2,5.8-18.7,2.8-24.3,8.6c-9.4,9.8-17,17.6-23.9,21.8
						c-38.3,22.8-65.5-47.8-90.9-92.7c-24.1-42.7-27.9-119.9,0.9-144.1c11.1-2.4,27.6-2.5,29.9,17.4c3.4,30.2-6.8,128.9,63.9,160.8
						C915.6,854.1,930.3,862.6,939.9,869.5z"/><path fill="#f44d2b" d="M956.1,851.7c-81.1-27.5-78.6-123.1-78.6-123.1c5.8,24.7,12.9,50.5,27.2,68
						c12.5,15.2,70.3,31.2,73.2,38.4C980.8,842.3,966.9,846.7,956.1,851.7z"/></g></g><g><path fill="#f59481" d="M1086.3,745.4c0,0-13.2,28.5-6,49.8c0,0-17.9,1.5-18.7-6s6.9-59.6,6.9-59.6L1086.3,745.4z"/><path fill="#ffa58d" d="M1106.8,631.5c0,0,25.2,33.6,19.8,75c-5.4,41.4-33.7,55.1-50.3,36.7s-38.9-22-31-48.4
						C1053.3,668.4,1036.6,620.2,1106.8,631.5z"/><path fill="#e0392b" d="M1140,656.9c-1.3,1.7-2.6,3.1-3.7,4.3c-9.2,9.6-13.1,5.6-13.1,5.6s-7.7-27.2-20.9-23.8
						c-13.2,3.4-11.4,21.9-17.3,28.3c-5.9,6.4-26.9-1.1-31.1,13.7c-4.2,14.8,6,38.6,13.9,50.2c3.3,4.8,3.7,13,1.8,20.4
						c-2.7,10.3-9.8,19.1-19.6,15.4c-16.9-6.3-33.6-32-26.3-57.5c7.3-25.5-5.5-28.7-8-32.5c-2.5-3.7-6.6-37.4,20.3-37.6
						c26.9-0.2,17.2-42.4,42.5-33.6c25.3,8.8,10.9,17.8,35.5,11.3C1138.8,614.4,1151.9,641.9,1140,656.9z"/><path fill="#ff888d" d="M1126.6 683.1c0 0 4.7 37.7 7.9 42.8 0 0-14.9 1.4-15.4-6.3C1118.6 711.9 1126.6 683.1 1126.6 683.1zM1110.9 740.1c-.1 0-.2 0-.4 0-.9-.2-21.6-4.5-24.1-18.9-.2-1 .5-1.9 1.5-2.1 1-.2 1.9.5 2.1 1.5 2.1 11.9 21.1 15.9 21.3 16 1 .2 1.6 1.1 1.4 2.1C1112.5 739.5 1111.7 740.1 1110.9 740.1z"/><path fill="#671c54" d="M1103.3,684.3c0.1,2.1,0.1,4.2-0.1,6.4c-0.2,1.6,1.5,3,3,3c1.8,0,2.8-1.4,3-3c0.2-2.1,0.3-4.2,0.1-6.4
							c-0.1-1.6-1.3-3-3-3C1104.8,681.3,1103.2,682.7,1103.3,684.3L1103.3,684.3z"/><path fill="#e0392b" d="M1094.8,680c-0.4,0-0.9-0.2-1.2-0.5c-0.7-0.7-0.8-1.8-0.1-2.5c9.9-10.6,21.2-3.6,21.3-3.5
						c0.8,0.5,1.1,1.6,0.5,2.5c-0.5,0.8-1.6,1.1-2.5,0.5c-0.4-0.2-8.9-5.5-16.8,2.9C1095.8,679.8,1095.3,680,1094.8,680z"/><path fill="#c9392b" d="M1136.3,661.2c-9.2,9.6-13.1,5.6-13.1,5.6s-7.7-27.2-20.9-23.8c-13.2,3.4-11.4,21.9-17.3,28.3
					c-5.9,6.4-26.9-1.1-31.1,13.7c-4.2,14.8,6,38.6,13.9,50.2c3.3,4.8,3.7,13,1.8,20.4c-8.3-5.9-14.1-13.2-15.3-14.7
					c-19.2-24.6-18-63.1-3.8-71.5c8.8-5.2,18.4,3.7,26.5-2.7c9.6-7.6,0.5-23.7,9.7-32.5c8.8-8.3,29.6-5.7,40.6,5.4
					C1131,642.9,1135,648.5,1136.3,661.2z"/><path fill="#ff988d" d="M1101,712.9c-0.5,0.1,0.8,0,0.8,0c0.5,0,1,0,1.5,0.1c-0.6-0.1,0.9,0.2,0.8,0.1c0.5,0.1,0.9,0.2,1.4,0.4
							c2.1,0.7,4.7-0.8,5.2-2.9c0.5-2.3-0.7-4.4-2.9-5.2c-3-0.9-5.9-1-8.9-0.6c-2.2,0.3-3.6,3.2-2.9,5.2
							C1096.6,712.3,1098.6,713.2,1101,712.9L1101,712.9z"/><path fill="#ffa58d" d="M1050.6,1436c3.9,0,3.9-6,0-6C1046.8,1430,1046.7,1436,1050.6,1436L1050.6,1436z"/><path fill="#ffa58d" d="M1050.6,1436c3.9,0,3.9-6,0-6C1046.8,1430,1046.7,1436,1050.6,1436L1050.6,1436z"/><g><path fill="#f59481" d="M1059.9,1539c0,0,10,23.6,2.2,46.5s-8.5,34.7,25.7,30.9c34.2-3.8,89.3-0.4,89.5-4.2s-8.5-14.1-25-15.1
						c-16.5-1-57.5-5.3-58.2-13.4s-0.1-46.3-0.1-46.3L1059.9,1539z"/><path fill="#f31c00" d="M1064.4,1575.9c0,0-20.6,37.5-13.4,39.7c7.3,2.2,133.8,3.7,134.5,0.4c4.2-18.7-16-19.6-25.7-21.9
						c0,0-3.2,11.8-9.6,13.2c-6.4,1.4-68.2,0.9-71.2-0.5C1067.8,1601.4,1064.4,1575.9,1064.4,1575.9z"/><path fill="#301c6e" d="M1147.8,1044.6l-65.5-19.7c0,0-41.7,2.6-47,44.3c-5.3,41.7,9.4,196.8,9.4,196.8s-13.6,199.5,1.4,284
						c0,0,55,15,64-35L1147.8,1044.6z"/></g><g><path fill="#f59481" d="M1210.7,1566.8c0,0,5.6,18.7,2.4,29.6c-3.3,11-10.6,25.4,3.4,26.5c14,1,65.7,17.2,70.5,16.1
						c4.8-1.1,42.8-11.6,44-14.1c1.2-2.5-14.2-11.4-26.8-8.5c-12.6,2.9-52.2-5.4-56.1-10.7c-3.9-5.3-6.5-41.7-6.5-41.7
						L1210.7,1566.8z"/><path fill="#f31c00" d="M1302.7,1611.9c0,0-11.1,4.7-13.1,12.1c-2,7.3-2,7.3-2,7.3s-73-10.7-75.2-18.3
						c-2.2-7.6,1.6-22.7,1.6-22.7s-16.3,22.5-15.5,25.8s0.3,3.4,12.9,7.9c12.6,4.5,76.9,18.1,79.5,17.6c2.5-0.6,42.6-9.8,44.3-13.7
						C1337,1624,1332.1,1614.4,1302.7,1611.9z"/><path fill="#3f1c7f" d="M1213.1,1288c-11.9-53-14.6-51.2-85.1-242.5l-68.7,5.5c11-25.8-34.6,41.1-3.7,116.8
						c15.9,38.9,93.6,138.1,93.6,138.1l0.7,0c2.5,33.6,16,201.9,39.8,275.3c0,0,56.5,7.4,63.3-20.4
						C1253,1560.7,1226.7,1349.1,1213.1,1288z"/></g><g><path fill="#f59481" d="M1088.8,803.3c0,0,84.2,83.7,76.9,85.2s-60.1,7.9-60.1,7.9L1088.8,803.3z"/></g><g><path fill="#671c34" d="M1123.2,884c0,0,18,165.5,26.1,184.1c5.8,13.3,77.8,13,116.9-7.5c4.6-2.4,7.3-7.4,6.7-12.6l-20-171.3
						L1123.2,884z"/><path fill="#51121b" d="M1123.2,884c0,0,66.6,37.6,129.6-7.3C1252.8,876.7,1209.8,862,1123.2,884z"/><path fill="#006d23" d="M1132.6 536.3C1132.6 536.3 1132.6 536.3 1132.6 536.3c-.3.1-1.3.4-2.9.8-9.5 2.4-41.1 8.4-70.9-9.7 0 0 0 0 0 0-1.3-.8-2.6-1.6-3.9-2.5 0 0 0 0 0 0-10.1-6.9-19.8-16.7-28.3-30.4v0c-.3-.5-.6-1-1-1.6-.4-.7-.8-1.3-1.2-2-5.5-9.7-10.4-18.7-14.8-26.9-.3-.5-.5-.9-.7-1.4-7.1-13.4-12.7-24.9-17.4-34.5-.2-.5-.5-1-.7-1.4-11.9-24.7-17.6-37.3-25.4-40.5.2.1 1.1.4 2.6.9 1.5.6 3.6 1.3 6.1 2.3 8.1 3 20.9 8 34.4 13.8.6.2 1.1.5 1.7.7 8.5 3.7 17.3 7.7 25.3 11.8h0c.6.3 1.1.6 1.7.9 4 2 7.8 4.1 11.2 6.2 6.6 3.9 14.4 8.5 22.6 13.7 0 0 0 0 0 0 .6.4 1.3.8 2 1.2 14.5 9.2 29.8 20 41.4 31.4.6.6 1.3 1.3 1.9 1.9 9.4 9.7 16 19.9 16.8 29.9C1133.8 507.1 1138.3 530.5 1132.6 536.3zM1373.1 485.5c0 0 0 .5-.1 1.5-.4 4.8-2 20-6.3 37.6-.1.6-.3 1.1-.4 1.7-1.7 6.8-3.9 14-6.6 21v0c-.2.5-.4 1.1-.6 1.6-1.6 4.1-3.4 8.1-5.4 12v0c-.4.7-.7 1.4-1.1 2.1-4.2 7.7-9.2 14.6-15.3 20-.4.4-.8.8-1.3 1.1-3.3 2.8-6.9 5.1-10.8 6.9-40.3 18-63.8 3.2-92.8 23.7h0c-1.5 1.1-3.1 2.3-4.6 3.5 0 0-.1-.6-.1-1.7-.4-8.1-.3-43.6 24.6-69.4.7-.7 1.5-1.5 2.2-2.2 4.9-4.7 10.8-9.1 17.7-12.9.5-.3 1-.5 1.5-.8 1.9-1 3.8-1.9 5.9-2.8 10-4.3 19.1-8.1 27.4-11.5.5-.2 1-.4 1.6-.6 7.2-2.9 13.7-5.5 19.7-7.8.5-.2 1-.4 1.4-.6h0c18.3-7.2 30.6-12.1 37.7-16.8h0C1369.9 489.1 1371.9 487.4 1373.1 485.5z"/><path fill="#549208" d="M1191.8,782.6c6.4-21,9.4-47.8,8.8-77c0-0.3,0-0.6,0-0.9c0,0,0,0,0,0c-0.1-2.7-0.1-5.4-0.3-8.1
					c-0.2-5.5-0.6-11-1.1-16.6c-0.6-7.3-1.5-14.6-2.5-22c-6-42.3-17.9-78.1-30.3-91.2c-7.7-8.1-19.9-18.7-33.9-30.4
					c-3.8-3.2-7.7-6.4-11.7-9.7c-0.4-0.3-0.6-0.8-0.6-1.4c0.7-7.7,2.1-32.7-3.7-54.1c-0.1-0.3-0.2-0.5-0.4-0.7
					c-0.5-0.5-1-1.1-1.6-1.6c6,19.4,5.3,42.7,4.6,53.1c-0.1,1.3-1.6,2-2.6,1.1c-1.7-1.4-3.5-2.8-5.2-4.3c-9.7-8-19.6-16.1-28.8-23.8
					c-0.4-0.3-0.6-0.8-0.6-1.4c0.7-7.4,1.8-31.6-8.7-55.7c-0.1-0.3-0.4-0.6-0.6-0.7c-0.5-0.3-1-0.7-1.5-1c10.1,21.7,10.3,44,9.8,54
					c-0.1,1.3-1.6,2-2.6,1.1c-14.2-12.1-26.3-23.1-33.2-31.5c-0.2-0.2-0.4-0.5-0.6-0.7c-0.2-0.3-0.4-0.7-0.4-1
					c0-6.4-0.6-25.5-6.6-41.2c-0.1-0.4-0.4-0.7-0.8-0.9c-0.4-0.2-0.8-0.4-1.2-0.6c5.2,12.7,6.7,28.2,7.1,37.3
					c0.1,1.5-1.8,2.3-2.8,1.1c-7.2-8.2-15.6-16.9-24.1-25.4c-0.3-0.3-0.4-0.6-0.5-1c-0.5-4.4-2-15.5-4.8-23.2
					c-0.2-0.4-0.5-0.7-0.9-0.9c-0.4-0.1-0.7-0.3-1.1-0.4c2.3,5.3,3.9,13.2,4.7,19c0.2,1.5-1.6,2.5-2.7,1.4
					c-13.4-13.2-26.8-25.5-36.5-34.2c-2.5-1-4.6-1.7-6.1-2.3c9.9,8.9,26,23.5,42.1,39.3c1.1,1,0.3,2.8-1.2,2.7
					c-6-0.4-13.8-1.7-18-2.4c0.1,0.2,0.2,0.5,0.3,0.7c0.2,0.5,0.7,0.8,1.2,0.9c5.4,0.9,14.2,2.3,19.7,2.3c0.5,0,1,0,1.4,0
					c0.4,0,0.9,0.2,1.2,0.5c9.5,9.5,18.7,19.1,26.3,28.1c0.7,0.8,0.4,2.1-0.6,2.5c-7.5,3-24.7,1.7-31.5,1.1c0.1,0.2,0.2,0.4,0.3,0.6
					c0.3,0.5,0.7,0.8,1.3,0.8c3.6,0.3,8.8,0.7,14.1,0.7c7.5,0,15.1-0.7,18.6-3.2c0,0,0,0,0,0.1c7.2,8.7,20,20.2,34.7,32.8
					c0.9,0.8,0.7,2.3-0.5,2.7c-13.7,5-42.4-1.7-51.9-4.2c0.3,0.5,0.6,1.1,1,1.6v0c7.8,2,24.1,5.7,37.7,5.7c6.2,0,11.8-0.8,15.8-2.8
					c0.6-0.3,1.2-0.2,1.7,0.2c9,7.6,18.6,15.5,28,23.2c1.8,1.4,3.5,2.9,5.3,4.3c1.1,0.9,0.6,2.6-0.8,2.8c-10.6,1.8-36.6,4.8-59.5-3
					c1.3,0.9,2.6,1.7,3.9,2.5c0,0,0,0,0,0c10.3,2.9,20.9,3.8,30.4,3.8c14.1,0,25.5-2,29.1-2.8c0.5-0.1,1,0,1.3,0.3
					c3.4,2.8,6.8,5.6,10,8.3c14.5,12.1,27.2,23,35,31.3c16,16.8,30.9,73,33.2,129.6c0.1,2,0.2,3.9,0.2,5.9c0.7,27.8-1.7,55.3-8.6,78
					c-21.5,70.7,4.7,102.7,5.8,104.1c0.2,0.3,0.6,0.4,0.9,0.4c0.3,0,0.6-0.1,0.8-0.3c0.5-0.4,0.6-1.2,0.1-1.7
					C1196.9,884.1,1170.7,852,1191.8,782.6z"/><path fill="#549208" d="M1373.1,485.5c-1.2,1.9-3.1,3.6-5.7,5.4h0c-8,11.1-20.5,26.9-37.6,43.8c-0.9,0.9-2.5,0.5-2.9-0.8
					c-1.8-6.2,0.9-19.2,2.8-26.2c-0.2,0.1-0.4,0.2-0.6,0.2c-0.5,0.2-0.9,0.6-1.1,1.2c-1.8,6.9-4.9,21.1-1.6,26.9
					c0.4,0.7,0.3,1.5-0.2,2.1c-7.2,6.9-15.1,13.9-23.8,20.8c-1.1,0.9-2.8,0.1-2.8-1.3c-0.7-13.5,8-38.6,9-41.5
					c-0.3,0.1-0.5,0.2-0.8,0.3c-0.5,0.2-0.8,0.6-1,1c-2.5,7.3-10.3,31.6-8.1,43.2c0.1,0.6-0.2,1.3-0.7,1.7c-9,7-18.8,13.8-29.4,20.2
					c-1.1-0.5-1.5-0.6-2.6-1.1c-2.1-10.1,5.7-42.5,7.7-50.5c-0.3,0.1-0.5,0.3-0.8,0.4c-0.4,0.2-0.8,0.6-0.9,1.1
					c-2.8,11.3-10.6,44.8-6.4,51.6c0,0,0.1,0.1,0.1,0.2c0,0-0.1,0.1-0.1,0.1c-7.3,4.3-13.8,8.9-19.5,13.7c-1.1,0.9-2.7,0.2-2.8-1.2
					c-1.8-16.9,7.6-42.9,11.2-52.2c-0.7,0.6-1.3,1.3-2,1.9c-0.2,0.2-0.3,0.4-0.4,0.6c-4.5,11.8-12.8,37-9.7,52.8
					c0.1,0.6-0.1,1.2-0.5,1.7c-5.4,4.8-10.1,9.7-14.2,14.7c-13.4,16.1-20.6,32.6-24.5,45.8c-1.9,6.4-3.1,12.4-3.9,17.8c0,0,0,0,0,0
					c-1.1,7.3-1.3,13.5-1.3,18v0.1c0,2.5,0.1,4.5,0.2,5.8v0.1c0,0,0,0,0,0c0.1,1,1,1.7,2,1.6l0.5-0.1l0.1,0c0,0,0-0.3-0.1-0.9
					c0,0,0,0,0,0c-0.1-1.3-0.3-4.2-0.3-8.1c0,0,0,0,0-0.1c0.1-7.8,1-19.9,5.1-33.7c4.1-13.9,11.9-31.4,26.9-48.2h0
					c4-4.4,8.4-8.9,13.4-13.1c0.2-0.1,0.4-0.2,0.6-0.3c12-4.2,60.1-20.4,88.8-17.1c0.5,0.1,0.9-0.1,1.3-0.4c0.2-0.2,0.5-0.4,0.7-0.6
					c-22.4-3.3-57.8,6.2-78.2,12.6c-1.9,0.6-3.2-2-1.5-3.1c2.9-2,6-4,9.3-6c0.5-0.3,1.1-0.6,1.6-1c0.2-0.1,0.4-0.2,0.6-0.2
					c9.4-1.8,64.2-12.2,83.1-22.2c0.3-0.2,0.5-0.4,0.7-0.7c0.3-0.5,0.6-1.1,0.9-1.6c-12.2,7.8-51.8,16.6-72.8,20.9
					c-1.9,0.4-2.9-2.1-1.3-3.2c7.3-4.8,14.3-9.8,20.8-14.9h0c3.8-0.6,35.6-6.1,58-14.5c0.5-0.2,0.8-0.5,1-1c0.1-0.3,0.2-0.6,0.3-0.9
					c-16.1,6.3-38.1,11-50.4,13.4c-1.8,0.3-2.8-1.9-1.4-3.1c8-6.6,15.4-13.3,22.1-19.8c0.2-0.2,0.5-0.4,0.9-0.5
					c6.4-1.2,23.3-4.8,34.8-10.8c0.4-0.2,0.8-0.6,0.9-1.1c0.1-0.3,0.1-0.6,0.2-0.9c-8.4,4.7-20.6,8.1-29.1,10.1
					c-1.7,0.4-2.8-1.7-1.6-2.9c17.6-18.1,29.9-34.5,37-44.7C1373,486,1373.1,485.5,1373.1,485.5z M1248.8,598.9
					C1248.8,598.9,1248.8,598.9,1248.8,598.9C1248.8,598.9,1248.8,598.9,1248.8,598.9L1248.8,598.9z"/></g><g><path fill="#1a8124" d="M1113.8,1159.2l1.7-0.6C1114.5,1159.2,1113.8,1159.2,1113.8,1159.2z"/></g><g><path fill="#ff7468" d="M1166,1079.6c3.5,4.7,2.2,11.4-3,14.3c-8.5,4.8-22,11.2-38.7,14.9c-25.4,5.6-58.1,5-91.7-16.9
						c-3.3-2.1-5-6-4.4-9.8c1.8-10.7,5.3-35.3,6.4-73.5c1.1-42.2,6.3-132.5,11.3-202.5c0.6-8.6,3.8-16.7,8.8-23.7
						c1.4-2,2.6-4.4,3-7.3c0.3-2.2-0.1-4.4-1.2-6.3c-1.2-2.1-2.3-4.9,1.4-4.1c4.1,0.8,14.7,4.8,22.9,7c3.2,0.9,6,1.4,8,1.4
						c6.8,0,5.6,3.4,2.6,5.3c-3,1.9-7.4,6.2-2.9,16.3c0.2,0.4,0.4,0.9,0.5,1.4c2.7,9.7,32.2,117.8,56.3,234.2
						C1150.5,1055.4,1159.6,1071.1,1166,1079.6z"/><path fill="#ff5657" d="M1124.3,1108.8c0.7-18.7-2.4-27-20-80.7c-42.1-128.4-64.9-168.5-46-209.6c8.7-18.9,15.2-35.9,22.5-47
						c3.2,0.9,6,1.4,8,1.4c6.8,0,5.6,3.4,2.6,5.3c-3,1.9-7.6,6.4-2.6,17c0,0,31.3,112.9,56.5,234.9c8.6,41.5,27.8,57.4,27.8,57.4
						S1153.6,1102.3,1124.3,1108.8z"/></g><g><path fill="#ffa58d" d="M1256.7,909.6l3.2,31.9c0.3,2.1-0.7,4.1-2.5,5.2c-20.2,12.1-74.4,40.6-74.4,40.6s-103.9-172.9-113.6-171.8
					s-14.4,29.8-14.5,40.5c-0.6,41.6,14.2,71.8,82.7,144.8c6,6.4,12.9,12.1,20.5,16.7c8.6,5.2,19.3,9.8,27.8,7.3
					c16.9-4.9,83.5-64.9,92.4-71.2C1278.1,953.6,1292,911.8,1256.7,909.6z"/></g><g><path fill="#ffa58d" d="M1264.5,977c0,0-17.7,6.2-18.1,15.4c-0.4,9.2,22.1,16.8,27.3,9.6S1264.5,977,1264.5,977z"/></g></g><g><path fill="#f59481" d="M1484.5,753.7c0,0,8,10.6,12.1,48.3c1.7,15.5-0.7,13.4-0.7,13.4s21.2-1.9,21.7-6.3s-11.3-37.9-13.7-68.2
						l-4.2-9.2L1484.5,753.7z"/><path fill="#ffa58d" d="M1441.6,663.1c0,0-10.5,54.1-1.9,78c8.6,23.9,22.4,49.2,47.6,30.5c8.6-6.4,20.8-21.3,25.5-34.2
						c0,0,17.5-32.6,11.1-48.9s-28.4-46.9-50.1-41.8C1452.3,651.8,1449.1,650.5,1441.6,663.1z"/><path fill="#ff888d" d="M1437.1 696.9c0 0-9.5 35.3-16.1 41.5 0 0 16.3 3.6 18 .4C1440.7 735.7 1437.1 696.9 1437.1 696.9zM1451.7 758.1c-1.4 0-2.3-.1-2.5-.1-1-.1-1.7-1-1.6-1.9.1-1 1-1.7 1.9-1.6.2 0 18.8 1.5 24.9-11 .4-.9 1.5-1.3 2.4-.8.9.4 1.3 1.5.8 2.4C1471.8 756.8 1457.5 758.1 1451.7 758.1z"/><path fill="#671c54" d="M1442.2,701.8c0.1,2.2,0.1,4.4-0.1,6.6c-0.2,1.6,1.5,3,3,3c1.8,0,2.8-1.4,3-3c0.2-2.2,0.3-4.4,0.1-6.6
							c-0.1-1.6-1.3-3-3-3C1443.7,698.8,1442.1,700.2,1442.2,701.8L1442.2,701.8z"/><path fill="#511c54" d="M1460.5,697.2c-0.5,0-1-0.2-1.4-0.6c-6.6-7.9-14.6-4.6-14.9-4.4c-0.9,0.4-2,0-2.4-0.9
						c-0.4-0.9,0-2,0.9-2.4c0.1,0,10.7-4.6,19.1,5.4c0.6,0.8,0.5,1.9-0.2,2.5C1461.3,697.1,1460.9,697.2,1460.5,697.2z"/><path fill="#511c54" d="M1532.7,658.5c0,0-0.3-0.5-0.7-1.3c-2.3-4.1-5-14.4-5-14.4s-0.8,6.3-5.3,1.7s0-11.2,0-11.2
						c-0.1,0-0.1,0-0.2,0.1c-7.3,1.8-14.9,1.9-22.2,0.4c-0.8-0.2-1.6-0.3-2.2-0.4c0,0-0.1,0-0.1,0s0,0,0,0
						c-27.4-3.8-50.7,15.7-70.8,24.3c-10.3,4.4,21.9,13.8,30.8,11.9c7.3-1.6,14.7-2.8,22.1-2.6l0.5,0c9.8,0.2,7.3,31.3,7.2,37.1
						c-0.1,5.8,9.4-7.3,19.8-7.8s-6.4,51.9-2,60c4.4,8.2,25.3-27.3,32.2-51.3C1542.1,686.7,1540.1,671.3,1532.7,658.5z"/><path fill="#ff988d" d="M1460.4,722.3c-0.5,0.1,0.8,0,0.8,0c0.5,0,1,0,1.5,0.1c-0.6-0.1,0.9,0.2,0.8,0.1
							c0.5,0.1,0.9,0.2,1.4,0.4c2.1,0.7,4.7-0.8,5.2-2.9c0.5-2.3-0.7-4.4-2.9-5.2c-3-0.9-5.9-1-8.9-0.6c-2.2,0.3-3.6,3.2-2.9,5.2
							C1456.1,721.8,1458.1,722.7,1460.4,722.3L1460.4,722.3z"/><g><path fill="#001c1f" d="M1471,1039.1c0,0-63,225.5-67.6,243c-4.6,17.5,46.4,42.8,61.8,15.5c15.4-27.4,79.6-203.6,87.4-224.7
					s-11.4-36.5-15.3-43.1C1533.4,1023.3,1471,1039.1,1471,1039.1z"/></g><g><polygon fill="#ec8c74" points="1606.5 1448.2 1643.4 1489.9 1667.7 1477.3 1627.7 1430.2"/><path fill="#241c31" d="M1653.6,1461.5c0,0,23,23,19.9,28.3c-3.1,5.3-17.9,18.9-26.7,15.2s-25.9-30.3-16.9-33.5
						S1653.6,1461.5,1653.6,1461.5z"/><path fill="#001c1f" d="M1465.5,1258.5l-57.7,36c0,0,167.2,156,193.9,173.7c0,0,53.3-16.4,50.1-45.2S1465.5,1258.5,1465.5,1258.5
						z"/><path fill="#511c54" d="M1683.1,1488c3,2.8-35.7,40-72.3,69.1c-13,10.4-25.9,19.5-36.2,26.4c-13,8.7-21.8,13.9-21.8,13.9
							s-9.5-7.6-9-17.6c0.6-9.8,3.4-20.5,19.6-30c3.3-1.9,7.2-3.8,11.7-5.6c25-10,44.1-29.4,50.8-36.8c1.7-1.8,2.7-4.2,2.8-6.7
							l1.1-17.7c0,0,24-0.7,30-19.1C1659.9,1464,1677.6,1482.9,1683.1,1488z"/><path fill="#241c3b" d="M1552.8,1597.4c0,0,0.5,7.4,5.5,6s133.5-104.7,132-113.8c-1.5-9-7.2-1.6-7.2-1.6
							S1650.8,1527.3,1552.8,1597.4z"/><path fill="#2e1c54" d="M1576.2,1543.8c0,0,47.2-6.5,56.2-33.5c9.1-27,7.8-35.4,1-33.7c-6.8,1.6-4.1,1.9-13.6,21.4
							C1610.3,1517.4,1610,1526.5,1576.2,1543.8z"/><path fill="#511c54" d="M1612.3,1536.1c-4.2,0.1-7.6,0.5-11.4-1.7c-1.4-0.8-3.4-1.9-4.4-3.3c-0.6-0.5-0.8-1.2-0.5-2
								c-0.6-1.5-0.1-2.3,1.6-2.5c2.1-1,2.5-0.6,4.3,0.5c2,1.2,3.8-1.9,1.8-3.1c-2.8-1.7-6.1-3.1-9-0.8c-2.1,1.7-3.7,4.9-2.7,7.6
								c1.2,3.2,5.2,5.8,8.1,7.3c4.1,2,7.7,1.7,12.1,1.6C1614.6,1539.7,1614.6,1536.1,1612.3,1536.1L1612.3,1536.1z"/><path fill="#511c54" d="M1622.7 1529.2c-4.2.4-7.3 1.6-10.7-1.7-1.4-1.4-2.8-2.9-4.2-4.4-.6-.6-1.2-1.2-1.8-1.9-2.2-2.2-1.3-3.6 2.8-4.4 2 1.1 3.8-2 1.8-3.1-6-3.2-11.9 3.1-8.1 8.8 2.2 3.2 5.8 6.8 8.8 9.2 3.6 2.7 7.3 1.4 11.4 1C1625 1532.5 1625 1529 1622.7 1529.2L1622.7 1529.2zM1636.6 1514.3c-4.8 2-10.1-1-14-3.6-1.4-.9-2.8-1.9-4.1-3-1-.7-1.9-1.5-2.7-2.3-2.6-2.5-1.9-4.5 2.2-6 2.3.5 3.2-3 1-3.5-8.3-1.8-10.3 7.4-5.2 12.5 5.9 5.9 16.1 12.6 24.7 9C1640.5 1516.5 1638.7 1513.4 1636.6 1514.3L1636.6 1514.3zM1641.3 1499.7c-4.4-.3-8.5-1.3-12.4-3.3-1.8-.9-3.6-2-5.1-3.3-2-1.6-3.5-4.9.3-5.8 2.3-.5 1.3-4-1-3.5-6.1 1.4-7.7 6.4-3 10.9 5.7 5.4 13.5 8.1 21.2 8.6C1643.6 1503.5 1643.6 1499.9 1641.3 1499.7L1641.3 1499.7z"/><path fill="#511c54" d="M1644.9,1480.6c-3.3,0.4-6.8,0.7-10-0.1c-1-0.4-1.9-0.7-2.9-1.1c-3.1-4.9-3.1-7.1,0-6.5
								c1.5,0,1.5,0.1,0.1,0.4c-0.7,0.2-1.4,0.4-2.1,0.5c-1.9,0.4-3.9,0.7-5.8,0.7c-1,0.1-1.9,0-2.9-0.2c-2.3,0-2.5-0.2-0.6-0.7
								c0.9-0.8,1.4-0.8,1.6,0.2c0.1,0.3,0.3,0.6,0.4,0.9c0.5,0.5,0.8,1.3,1.2,1.8c2.9,3.3,7.7,4.2,10.7,7.5c5.6,6.1,9.2,16.3,3,23
								c-1.6,1.7,1,4.2,2.5,2.5c5.4-5.7,5.5-12.5,2.3-19.4c-1.6-3.6-3.6-7.3-6.6-10c-3.5-3.1-7.7-3.8-10.4-8.1
								c-1.2-1.9-1.2-4-3.7-4.9c-2.1-0.8-4,0.2-5.5,1.5c-5.1,4.3-2.3,8,3.3,9c4.8,0.9,17,0.9,19.3-5c1.8-4.7-3.4-6.8-7-5.1
								c-4.3,2-8.6,7.4-5.3,12c4.1,5.8,13.2,5.3,19.3,4.5C1648.1,1483.7,1647.1,1480.2,1644.9,1480.6L1644.9,1480.6z"/><path fill="#241c3b" d="M1595.7,1568l-21,15.4c-13,8.7-21.8,13.9-21.8,13.9s-9.5-7.6-9-17.6c0.6-9.8,3.4-20.5,19.6-30
							C1568.3,1559.2,1578.6,1573,1595.7,1568z"/></g><g><path fill="#241c43" d="M1460.2,1058c0,0,7.2,268.9,7.4,287c0.2,18.1,56.1,29,63.7-1.5s21.3-216.1,25.3-238.3
					c9.1-49.8-17-87.5-22.5-92.8C1528.7,1007.1,1460.2,1058,1460.2,1058z"/></g><g><polygon fill="#ec8c74" points="1485.5 1544.1 1489.4 1599.5 1516.3 1604.4 1513.2 1542.6"/><path fill="#241c31" d="M1514.8,1583.2c0,0,4.3,32.3-1.4,34.6c-5.7,2.3-25.7,4.1-30.5-4.2c-4.8-8.3-2.1-39.8,6.9-36.9
						S1514.8,1583.2,1514.8,1583.2z"/><path fill="#241c43" d="M1532.9,1309.7l-66,15.6c0,0-19,210.3-5.7,236.1c0,0,53.9,12.1,66.4-11.3
						C1540.3,1526.8,1532.9,1309.7,1532.9,1309.7z"/><path fill="#511c54" d="M1519.6,1632.6c0.6,4.1-52.9,8.5-99.7,8.1c-16.6-0.2-32.3-1.2-44.7-2.3c-15.5-1.4-25.8-3-25.8-3
							s-2.6-11.9,4.2-19.4c6.6-7.3,15.6-13.7,34.1-10.9c3.8,0.6,8,1.6,12.6,3c25.7,8,52.8,5,62.6,3.5c2.5-0.4,4.7-1.6,6.4-3.4l12-13
							c0,0,19.1,14.6,35.3,4.1C1516.7,1599.3,1518.5,1625.2,1519.6,1632.6z"/><path fill="#241c3b" d="M1349.5,1635.3c0,0-4.2,6.1,0.5,8.1c4.7,2.1,169.6,2.9,174.2-5.1s-4.5-5.8-4.5-5.8
							S1469.7,1642.7,1349.5,1635.3z"/><path fill="#2e1c54" d="M1401.4,1608.4c0,0,40.7,24.7,64.7,9.5c24-15.2,28.4-22.5,22.1-25.5s-4.4-1.1-24,8
							C1444.5,1609.5,1438.6,1616.3,1401.4,1608.4z"/><path fill="#511c54" d="M1434.5,1625.4c-3.4-2.7-6.5-4.8-8.1-9c-0.5-1.5-1.3-3.7-1.2-5.3c0.2-2.1,1.9-3.5,3.9-2.9
								c1.8,0.5,2.1,1.7,2.8,3.5c0.8,2.2,4.3,1.2,3.5-1c-1-2.8-2.4-5.9-5.7-6.4c-2.8-0.5-6.6,1.2-7.6,3.9c-1.2,3.1,0.2,7.6,1.4,10.5
								c1.8,4.4,4.9,6.5,8.5,9.3C1433.7,1629.3,1436.3,1626.8,1434.5,1625.4L1434.5,1625.4z"/><path fill="#511c54" d="M1446.5 1626.3c-3.6-2.4-6.6-3.5-7.1-8.5-.2-1.5-.3-3-.4-4.5-.1-.8-.1-1.5-.2-2.3-.6-2.6 1-3.4 5-2.6.9 2.1 4 .3 3.1-1.8-3.1-6.8-11.7-3.9-11.7 3 0 3.9 0 9.2 1.5 12.9 1.4 3.6 5 4.9 8.1 6.9C1446.6 1630.7 1448.4 1627.6 1446.5 1626.3L1446.5 1626.3zM1467.1 1623.7c-5.1-1.7-7.3-6.8-8.8-11.5-.5-1.6-1-3.3-1.3-4.9-.1-.6-.3-1.2-.4-1.7-1.4-4.2.4-5.9 5.4-5 1.5 1.8 4-.8 2.5-2.5-5.1-6.3-12.3-.5-11.7 6.3.6 8.5 4.6 19.9 13.4 22.9C1468.4 1627.9 1469.3 1624.4 1467.1 1623.7L1467.1 1623.7zM1479.9 1615.5c-2.8-2.6-5.1-5.5-6.9-8.9-.9-1.7-1.6-3.5-2.1-5.4-.2-.7-.4-1.5-.6-2.3-1.2-2.7.1-4.1 3.8-4.2 2.1 1 3.9-2.1 1.8-3.1-5.6-2.7-10.1-.3-9.4 6.2.9 7.7 5.3 14.9 10.9 20.1C1479 1619.6 1481.6 1617 1479.9 1615.5L1479.9 1615.5z"/><path fill="#511c54" d="M1494.8,1602.8c-3.3-2-6.8-4.4-8.8-7.9c-0.4-1-0.8-1.9-1.2-2.9c0.8-3,2.3-4.4,4.5-4.3
								c0.7-0.2,0.9,0,0.7,0.8c0.2,1.7-0.8,1.5-3-0.6c-2.8-1.5-6.7-3.6-8.2-6.6c-1.9-3.9,2.7-1.5,3.1-0.1c0.2,0.5-0.9,2.8-1,3.3
								c-0.9,5.7,3.6,10.5,3.4,16.2c-0.3,8.1-3.6,16.8-12.5,18.1c-2.3,0.3-1.3,3.8,1,3.5c7.7-1.1,11.9-6.5,13.8-13.7
								c1-3.7,1.7-7.8,1.1-11.6c-0.7-4.8-3.7-8.1-2.9-13.2c0.4-2.3,1.5-4,0-6.1c-1.5-2.2-4.5-2.4-6.9-1.8c-6,1.4-4,5.9-0.7,9.4
								c3.4,3.6,12.2,10.6,17.4,7.7c4.6-2.5,1.8-7.6-2.3-8.6c-4.6-1.1-10.9,0.5-11.4,5.9c-0.7,7,6.7,12.6,11.9,15.7
								C1495,1607.1,1496.8,1604,1494.8,1602.8L1494.8,1602.8z"/><path fill="#241c3b" d="M1401.3,1639.6l-26.1-1.3c-15.5-1.4-25.8-3-25.8-3s-2.6-11.9,4.2-19.4c6.6-7.3,15.6-13.7,34.1-10.9
							C1385.6,1615.4,1384.8,1632.7,1401.3,1639.6z"/></g><g><path fill="#1a8124" d="M1565.6,1055.7c0,0-30.1,43.2-127.8,30.6c0,0,0.2-12.2,0.7-30.7c0.3-13.2,0.8-29.7,1.4-47.1
						c1.2-32.6,3-68.6,5.6-93.3c0.6-5.6,1.2-11.2,1.9-16.8c3.7-31.8,8-61.5,10.7-78.9c1.4-9.1,8.7-16.2,17.8-17.3
						c12.5-1.6,30-4.2,41.3-8c3.4-1.1,6.3-2.4,8.2-3.7c0,0,9,27.9,12.9,77.2c0.4,5.5,1.1,11.3,1.8,17.4c5.4,44.7,18,105,21.8,162.5
						C1562.2,1051.4,1564.5,1053.9,1565.6,1055.7z"/><path fill="#849324" d="M1565.7,1055.4c0,0-31,44.1-128.9,33.8c0,0,1.8-12.4,1.8-30.9c23,6.2,77.5,16.3,123.2-10.8
						C1563.2,1050.9,1564.5,1053.6,1565.7,1055.4z"/><path fill="#1a6d24" d="M1540.1,885.3c-4.3,14.2-11.4,31.7-23.5,50.3c-19.7,30.2-52,62.1-76.6,73c1.2-32.6,3-68.6,5.6-93.3
					c0.6-5.6,1.2-11.2,1.9-16.8c12.5-10.2,26.5-22.5,40.7-43.1c16.4-23.9,24-45.8,29-61.1c3.4-1.1,6.3-2.4,8.2-3.7
					c0,0,9,27.9,12.9,77.2C1538.7,873.4,1539.4,879.2,1540.1,885.3z"/></g><g><path fill="#ec8c74" d="M1253.8,965.2c-0.9-0.1-1.7-0.2-2.5-0.3c-3.2-0.4-6.3-1.3-9.3-2.6c-3.3-1.5-7.4-2.9-12.6-3.7
						c-21.2-3.5-30.9-5.8-30.9-5.8c-0.1,5.7,25.5,12.1,25.5,12.1s-39.7-4-54.1-1.5c-4.8-0.1-8.9-0.1-11.5-0.1
						c-13.5,0.2-10.3,22.1,9.8,26.3c39.6,8.2,63.9,1,76.1-5.1c4.2-0.9,8.4-1.6,12.3-1.9c1.7-0.1,3.4,0,5.1,0.2
						c18.1,2.5,132.4-2,132.4-2v-45.2C1394,935.6,1261.4,966.4,1253.8,965.2z"/><path fill="#ec8c74" d="M1379.6,976.4c0,0,11.6,9.2,28.9,1.1s101.6-88.1,109-96.5c7.4-8.4-1.4-45.1-9.7-58
						c-0.1-0.2-0.2-0.3-0.3-0.5c-5.6-8.5-18.2-8.4-23.8,0.1c-19.2,29.3-96.8,121.3-109.9,135.2
						C1370.4,961.5,1379.6,976.4,1379.6,976.4z"/></g></g></g></switch></svg>