<svg width="1248" height="501" viewBox="0 0 1248 501" fill="none" xmlns="http://www.w3.org/2000/svg">
<g filter="url(#filter0_d)">
<rect width="1240" height="493" rx="10" fill="white"/>
</g>
<path d="M717.463 306.805C821.192 224.546 1109.04 396.66 1240 493H0V0C95.3735 7.31811 294.505 46.0207 328.045 142.286C369.969 262.618 587.801 409.629 717.463 306.805Z" fill="url(#paint0_linear)" fill-opacity="0.9"/>
<path d="M89.92 171.44H85.36L90.16 160.4H92.8L89.92 171.44ZM99.52 171.44H94.96L99.76 160.4H102.4L99.52 171.44ZM108.621 160.4H117.741C119.917 160.4 121.853 160.816 123.549 161.648C125.277 162.448 126.637 163.6 127.629 165.104C128.653 166.608 129.165 168.4 129.165 170.48C129.165 172.528 128.653 174.32 127.629 175.856C126.637 177.36 125.277 178.528 123.549 179.36C121.853 180.16 119.917 180.56 117.741 180.56H112.701V194H108.621V160.4ZM117.741 164.24H112.701V176.72H117.741C119.917 176.72 121.677 176.192 123.021 175.136C124.397 174.08 125.085 172.528 125.085 170.48C125.085 168.4 124.397 166.848 123.021 165.824C121.677 164.768 119.917 164.24 117.741 164.24ZM141.769 194.48C139.721 194.48 137.897 194 136.297 193.04C134.729 192.048 133.497 190.688 132.601 188.96C131.737 187.232 131.305 185.232 131.305 182.96C131.305 180.656 131.753 178.64 132.649 176.912C133.577 175.184 134.857 173.84 136.489 172.88C138.153 171.92 140.073 171.44 142.249 171.44C145.481 171.44 148.025 172.448 149.881 174.464C151.737 176.48 152.665 179.248 152.665 182.768C152.665 182.992 152.649 183.232 152.617 183.488C152.617 183.712 152.617 183.856 152.617 183.92H135.241C135.401 186.128 136.089 187.84 137.305 189.056C138.521 190.272 140.169 190.88 142.249 190.88C145.257 190.88 147.561 189.552 149.161 186.896L152.281 188.864C149.977 192.608 146.473 194.48 141.769 194.48ZM142.249 174.8C140.361 174.8 138.825 175.312 137.641 176.336C136.457 177.328 135.705 178.768 135.385 180.656H148.489C148.361 178.896 147.721 177.488 146.569 176.432C145.449 175.344 144.009 174.8 142.249 174.8ZM156.008 182.96C156.008 180.72 156.504 178.736 157.496 177.008C158.52 175.28 159.896 173.92 161.624 172.928C163.352 171.936 165.288 171.44 167.432 171.44C169.608 171.44 171.544 171.936 173.24 172.928C174.968 173.92 176.328 175.28 177.32 177.008C178.344 178.736 178.856 180.72 178.856 182.96C178.856 185.168 178.344 187.152 177.32 188.912C176.328 190.64 174.968 192 173.24 192.992C171.544 193.984 169.608 194.48 167.432 194.48C165.288 194.48 163.352 193.984 161.624 192.992C159.896 192 158.52 190.64 157.496 188.912C156.504 187.152 156.008 185.168 156.008 182.96ZM159.896 182.96C159.896 184.496 160.216 185.856 160.856 187.04C161.528 188.224 162.424 189.168 163.544 189.872C164.696 190.544 165.992 190.88 167.432 190.88C168.872 190.88 170.152 190.544 171.272 189.872C172.424 189.168 173.32 188.224 173.96 187.04C174.632 185.856 174.968 184.496 174.968 182.96C174.968 181.424 174.632 180.064 173.96 178.88C173.32 177.664 172.424 176.72 171.272 176.048C170.152 175.376 168.872 175.04 167.432 175.04C165.992 175.04 164.696 175.376 163.544 176.048C162.424 176.72 161.528 177.664 160.856 178.88C160.216 180.064 159.896 181.424 159.896 182.96ZM187.731 204.56H183.891V171.92H187.731V175.712C188.531 174.336 189.571 173.28 190.851 172.544C192.163 171.808 193.635 171.44 195.267 171.44C197.283 171.44 199.107 171.904 200.739 172.832C202.403 173.76 203.731 175.088 204.723 176.816C205.715 178.512 206.211 180.56 206.211 182.96C206.211 185.328 205.715 187.376 204.723 189.104C203.731 190.832 202.403 192.16 200.739 193.088C199.107 194.016 197.283 194.48 195.267 194.48C193.635 194.48 192.163 194.112 190.851 193.376C189.571 192.64 188.531 191.584 187.731 190.208V204.56ZM202.323 182.96C202.323 181.264 201.971 179.824 201.267 178.64C200.595 177.456 199.683 176.56 198.531 175.952C197.411 175.344 196.163 175.04 194.787 175.04C193.667 175.04 192.563 175.344 191.475 175.952C190.387 176.56 189.491 177.456 188.787 178.64C188.083 179.824 187.731 181.264 187.731 182.96C187.731 184.656 188.083 186.096 188.787 187.28C189.491 188.464 190.387 189.36 191.475 189.968C192.563 190.576 193.667 190.88 194.787 190.88C196.163 190.88 197.411 190.576 198.531 189.968C199.683 189.36 200.595 188.464 201.267 187.28C201.971 186.096 202.323 184.656 202.323 182.96ZM211.506 156.56H215.346V194H211.506V156.56ZM231.113 194.48C229.065 194.48 227.241 194 225.641 193.04C224.073 192.048 222.841 190.688 221.945 188.96C221.081 187.232 220.649 185.232 220.649 182.96C220.649 180.656 221.097 178.64 221.993 176.912C222.921 175.184 224.201 173.84 225.833 172.88C227.497 171.92 229.417 171.44 231.593 171.44C234.825 171.44 237.369 172.448 239.225 174.464C241.081 176.48 242.009 179.248 242.009 182.768C242.009 182.992 241.993 183.232 241.961 183.488C241.961 183.712 241.961 183.856 241.961 183.92H224.585C224.745 186.128 225.433 187.84 226.649 189.056C227.865 190.272 229.513 190.88 231.593 190.88C234.601 190.88 236.905 189.552 238.505 186.896L241.625 188.864C239.321 192.608 235.817 194.48 231.113 194.48ZM231.593 174.8C229.705 174.8 228.169 175.312 226.985 176.336C225.801 177.328 225.049 178.768 224.729 180.656H237.833C237.705 178.896 237.065 177.488 235.913 176.432C234.793 175.344 233.353 174.8 231.593 174.8ZM275.823 180.56C275.823 176.88 274.255 175.04 271.119 175.04C269.455 175.04 268.095 175.552 267.039 176.576C266.015 177.6 265.503 178.928 265.503 180.56V194H261.663V171.92H265.503V175.376C266.943 172.752 269.135 171.44 272.079 171.44C274.415 171.44 276.255 172.224 277.599 173.792C278.975 175.328 279.663 177.424 279.663 180.08V194H275.823V180.56ZM295.425 194.48C293.377 194.48 291.553 194 289.953 193.04C288.385 192.048 287.153 190.688 286.257 188.96C285.393 187.232 284.961 185.232 284.961 182.96C284.961 180.656 285.409 178.64 286.305 176.912C287.233 175.184 288.513 173.84 290.145 172.88C291.809 171.92 293.729 171.44 295.905 171.44C299.137 171.44 301.681 172.448 303.537 174.464C305.393 176.48 306.321 179.248 306.321 182.768C306.321 182.992 306.305 183.232 306.273 183.488C306.273 183.712 306.273 183.856 306.273 183.92H288.897C289.057 186.128 289.745 187.84 290.961 189.056C292.177 190.272 293.825 190.88 295.905 190.88C298.913 190.88 301.217 189.552 302.817 186.896L305.937 188.864C303.633 192.608 300.129 194.48 295.425 194.48ZM295.905 174.8C294.017 174.8 292.481 175.312 291.297 176.336C290.113 177.328 289.361 178.768 289.041 180.656H302.145C302.017 178.896 301.377 177.488 300.225 176.432C299.105 175.344 297.665 174.8 295.905 174.8ZM320.128 194.48C318.08 194.48 316.256 194 314.656 193.04C313.088 192.048 311.856 190.688 310.96 188.96C310.096 187.232 309.664 185.232 309.664 182.96C309.664 180.656 310.112 178.64 311.008 176.912C311.936 175.184 313.216 173.84 314.848 172.88C316.512 171.92 318.432 171.44 320.608 171.44C323.84 171.44 326.384 172.448 328.24 174.464C330.096 176.48 331.024 179.248 331.024 182.768C331.024 182.992 331.008 183.232 330.976 183.488C330.976 183.712 330.976 183.856 330.976 183.92H313.6C313.76 186.128 314.448 187.84 315.664 189.056C316.88 190.272 318.528 190.88 320.608 190.88C323.616 190.88 325.92 189.552 327.52 186.896L330.64 188.864C328.336 192.608 324.832 194.48 320.128 194.48ZM320.608 174.8C318.72 174.8 317.184 175.312 316 176.336C314.816 177.328 314.064 178.768 313.744 180.656H326.848C326.72 178.896 326.08 177.488 324.928 176.432C323.808 175.344 322.368 174.8 320.608 174.8ZM334.368 182.96C334.368 180.56 334.863 178.512 335.855 176.816C336.848 175.088 338.176 173.76 339.84 172.832C341.504 171.904 343.328 171.44 345.312 171.44C346.944 171.44 348.4 171.808 349.68 172.544C350.992 173.28 352.048 174.336 352.848 175.712V156.56H356.688V194H352.848V190.208C352.048 191.584 350.992 192.64 349.68 193.376C348.4 194.112 346.944 194.48 345.312 194.48C343.328 194.48 341.504 194.016 339.84 193.088C338.176 192.16 336.848 190.832 335.855 189.104C334.863 187.376 334.368 185.328 334.368 182.96ZM338.256 182.96C338.256 184.656 338.592 186.096 339.264 187.28C339.968 188.464 340.896 189.36 342.048 189.968C343.2 190.576 344.448 190.88 345.792 190.88C346.912 190.88 348.016 190.576 349.104 189.968C350.192 189.36 351.088 188.464 351.792 187.28C352.496 186.096 352.848 184.656 352.848 182.96C352.848 181.264 352.496 179.824 351.792 178.64C351.088 177.456 350.192 176.56 349.104 175.952C348.016 175.344 346.912 175.04 345.792 175.04C344.448 175.04 343.2 175.344 342.048 175.952C340.896 176.56 339.968 177.456 339.264 178.64C338.592 179.824 338.256 181.264 338.256 182.96ZM374.693 171.92H378.293V164.24H382.133V171.92H385.733V175.52H382.133V194H378.293V175.52H374.693V171.92ZM387.664 182.96C387.664 180.72 388.16 178.736 389.152 177.008C390.176 175.28 391.552 173.92 393.28 172.928C395.008 171.936 396.944 171.44 399.088 171.44C401.264 171.44 403.2 171.936 404.896 172.928C406.624 173.92 407.984 175.28 408.976 177.008C410 178.736 410.512 180.72 410.512 182.96C410.512 185.168 410 187.152 408.976 188.912C407.984 190.64 406.624 192 404.896 192.992C403.2 193.984 401.264 194.48 399.088 194.48C396.944 194.48 395.008 193.984 393.28 192.992C391.552 192 390.176 190.64 389.152 188.912C388.16 187.152 387.664 185.168 387.664 182.96ZM391.552 182.96C391.552 184.496 391.872 185.856 392.512 187.04C393.184 188.224 394.08 189.168 395.2 189.872C396.352 190.544 397.648 190.88 399.088 190.88C400.528 190.88 401.808 190.544 402.928 189.872C404.08 189.168 404.976 188.224 405.616 187.04C406.288 185.856 406.624 184.496 406.624 182.96C406.624 181.424 406.288 180.064 405.616 178.88C404.976 177.664 404.08 176.72 402.928 176.048C401.808 175.376 400.528 175.04 399.088 175.04C397.648 175.04 396.352 175.376 395.2 176.048C394.08 176.72 393.184 177.664 392.512 178.88C391.872 180.064 391.552 181.424 391.552 182.96ZM440.69 176.144C440.178 175.76 439.714 175.488 439.298 175.328C438.882 175.136 438.354 175.04 437.714 175.04C436.274 175.04 435.298 175.568 434.786 176.624C434.274 177.648 434.018 178.96 434.018 180.56V194H430.178V171.92H434.018V174.464C434.626 173.536 435.346 172.8 436.178 172.256C437.01 171.712 437.842 171.44 438.674 171.44C439.474 171.44 440.21 171.552 440.882 171.776C441.586 171.968 442.226 172.368 442.802 172.976L440.69 176.144ZM454.472 194.48C452.424 194.48 450.6 194 449 193.04C447.432 192.048 446.2 190.688 445.304 188.96C444.44 187.232 444.008 185.232 444.008 182.96C444.008 180.656 444.456 178.64 445.352 176.912C446.28 175.184 447.56 173.84 449.192 172.88C450.856 171.92 452.776 171.44 454.952 171.44C458.184 171.44 460.728 172.448 462.584 174.464C464.44 176.48 465.368 179.248 465.368 182.768C465.368 182.992 465.352 183.232 465.32 183.488C465.32 183.712 465.32 183.856 465.32 183.92H447.944C448.104 186.128 448.792 187.84 450.008 189.056C451.224 190.272 452.872 190.88 454.952 190.88C457.96 190.88 460.264 189.552 461.864 186.896L464.984 188.864C462.68 192.608 459.176 194.48 454.472 194.48ZM454.952 174.8C453.064 174.8 451.528 175.312 450.344 176.336C449.16 177.328 448.408 178.768 448.088 180.656H461.192C461.064 178.896 460.424 177.488 459.272 176.432C458.152 175.344 456.712 174.8 454.952 174.8ZM471.783 177.008L469.911 174.176C470.743 173.568 471.879 172.96 473.319 172.352C474.791 171.744 476.551 171.44 478.599 171.44C481.159 171.44 483.239 172.032 484.839 173.216C486.439 174.368 487.239 176.016 487.239 178.16V194H483.399V191.024C482.695 192.176 481.639 193.04 480.231 193.616C478.823 194.192 477.447 194.48 476.103 194.48C474.759 194.48 473.495 194.208 472.311 193.664C471.159 193.088 470.231 192.272 469.527 191.216C468.823 190.16 468.471 188.88 468.471 187.376C468.471 185.232 469.223 183.52 470.727 182.24C472.263 180.928 474.391 180.272 477.111 180.272C478.583 180.272 479.831 180.448 480.855 180.8C481.911 181.12 482.759 181.488 483.399 181.904V178.688C483.399 177.184 482.903 176.16 481.911 175.616C480.951 175.072 479.783 174.8 478.407 174.8C476.743 174.8 475.351 175.072 474.231 175.616C473.111 176.16 472.295 176.624 471.783 177.008ZM472.359 187.184C472.359 188.464 472.791 189.456 473.655 190.16C474.551 190.832 475.703 191.168 477.111 191.168C478.871 191.168 480.359 190.64 481.575 189.584C482.791 188.528 483.399 187.12 483.399 185.36V184.544C482.503 184.096 481.591 183.776 480.663 183.584C479.735 183.392 478.759 183.296 477.735 183.296C475.879 183.296 474.519 183.648 473.655 184.352C472.791 185.024 472.359 185.968 472.359 187.184ZM491.821 182.96C491.821 180.56 492.317 178.512 493.309 176.816C494.301 175.088 495.629 173.76 497.293 172.832C498.957 171.904 500.781 171.44 502.765 171.44C504.397 171.44 505.853 171.808 507.133 172.544C508.445 173.28 509.501 174.336 510.301 175.712V156.56H514.141V194H510.301V190.208C509.501 191.584 508.445 192.64 507.133 193.376C505.853 194.112 504.397 194.48 502.765 194.48C500.781 194.48 498.957 194.016 497.293 193.088C495.629 192.16 494.301 190.832 493.309 189.104C492.317 187.376 491.821 185.328 491.821 182.96ZM495.709 182.96C495.709 184.656 496.045 186.096 496.717 187.28C497.421 188.464 498.349 189.36 499.501 189.968C500.653 190.576 501.901 190.88 503.245 190.88C504.365 190.88 505.469 190.576 506.557 189.968C507.645 189.36 508.541 188.464 509.245 187.28C509.949 186.096 510.301 184.656 510.301 182.96C510.301 181.264 509.949 179.824 509.245 178.64C508.541 177.456 507.645 176.56 506.557 175.952C505.469 175.344 504.365 175.04 503.245 175.04C501.901 175.04 500.653 175.344 499.501 175.952C498.349 176.56 497.421 177.456 496.717 178.64C496.045 179.824 495.709 181.264 495.709 182.96ZM533.586 182.96C533.586 180.56 534.082 178.512 535.074 176.816C536.066 175.088 537.394 173.76 539.058 172.832C540.722 171.904 542.546 171.44 544.53 171.44C546.162 171.44 547.618 171.808 548.898 172.544C550.21 173.28 551.266 174.336 552.066 175.712V156.56H555.906V194H552.066V190.208C551.266 191.584 550.21 192.64 548.898 193.376C547.618 194.112 546.162 194.48 544.53 194.48C542.546 194.48 540.722 194.016 539.058 193.088C537.394 192.16 536.066 190.832 535.074 189.104C534.082 187.376 533.586 185.328 533.586 182.96ZM537.474 182.96C537.474 184.656 537.81 186.096 538.482 187.28C539.186 188.464 540.114 189.36 541.266 189.968C542.418 190.576 543.666 190.88 545.01 190.88C546.13 190.88 547.234 190.576 548.322 189.968C549.41 189.36 550.306 188.464 551.01 187.28C551.714 186.096 552.066 184.656 552.066 182.96C552.066 181.264 551.714 179.824 551.01 178.64C550.306 177.456 549.41 176.56 548.322 175.952C547.234 175.344 546.13 175.04 545.01 175.04C543.666 175.04 542.418 175.344 541.266 175.952C540.114 176.56 539.186 177.456 538.482 178.64C537.81 179.824 537.474 181.264 537.474 182.96ZM562.881 162.8C562.881 162.064 563.137 161.44 563.649 160.928C564.193 160.416 564.817 160.16 565.521 160.16C566.257 160.16 566.881 160.416 567.393 160.928C567.905 161.44 568.161 162.064 568.161 162.8C568.161 163.504 567.905 164.128 567.393 164.672C566.881 165.184 566.257 165.44 565.521 165.44C564.817 165.44 564.193 165.184 563.649 164.672C563.137 164.128 562.881 163.504 562.881 162.8ZM563.601 171.92H567.441V194H563.601V171.92ZM571.75 171.92H576.07L582.31 187.52L588.55 171.92H592.87L582.31 195.68L571.75 171.92ZM604.332 194.48C602.284 194.48 600.46 194 598.86 193.04C597.292 192.048 596.06 190.688 595.164 188.96C594.3 187.232 593.868 185.232 593.868 182.96C593.868 180.656 594.316 178.64 595.212 176.912C596.14 175.184 597.42 173.84 599.052 172.88C600.716 171.92 602.636 171.44 604.812 171.44C608.044 171.44 610.588 172.448 612.444 174.464C614.3 176.48 615.228 179.248 615.228 182.768C615.228 182.992 615.212 183.232 615.18 183.488C615.18 183.712 615.18 183.856 615.18 183.92H597.804C597.964 186.128 598.652 187.84 599.868 189.056C601.084 190.272 602.732 190.88 604.812 190.88C607.82 190.88 610.124 189.552 611.724 186.896L614.844 188.864C612.54 192.608 609.036 194.48 604.332 194.48ZM604.812 174.8C602.924 174.8 601.388 175.312 600.204 176.336C599.02 177.328 598.268 178.768 597.948 180.656H611.052C610.924 178.896 610.284 177.488 609.132 176.432C608.012 175.344 606.572 174.8 604.812 174.8ZM631.003 176.144C630.491 175.76 630.027 175.488 629.611 175.328C629.195 175.136 628.667 175.04 628.027 175.04C626.587 175.04 625.611 175.568 625.099 176.624C624.587 177.648 624.331 178.96 624.331 180.56V194H620.491V171.92H624.331V174.464C624.939 173.536 625.659 172.8 626.491 172.256C627.323 171.712 628.155 171.44 628.987 171.44C629.787 171.44 630.523 171.552 631.195 171.776C631.899 171.968 632.539 172.368 633.115 172.976L631.003 176.144ZM637.856 187.232C638.528 188.256 639.344 189.136 640.304 189.872C641.296 190.608 642.48 190.976 643.856 190.976C644.944 190.976 645.792 190.736 646.4 190.256C647.04 189.744 647.36 189.056 647.36 188.192C647.36 187.424 647.104 186.784 646.592 186.272C646.112 185.728 645.488 185.28 644.72 184.928C643.952 184.544 643.136 184.192 642.272 183.872C641.312 183.488 640.336 183.04 639.344 182.528C638.384 181.984 637.568 181.296 636.896 180.464C636.256 179.6 635.936 178.528 635.936 177.248C635.936 175.936 636.272 174.848 636.944 173.984C637.648 173.12 638.544 172.48 639.632 172.064C640.752 171.648 641.904 171.44 643.088 171.44C644.848 171.44 646.448 171.856 647.888 172.688C649.328 173.52 650.384 174.544 651.056 175.76L647.984 177.728C647.376 176.896 646.608 176.208 645.68 175.664C644.784 175.12 643.76 174.848 642.608 174.848C641.808 174.848 641.12 175.024 640.544 175.376C639.968 175.728 639.68 176.272 639.68 177.008C639.68 177.904 640.144 178.64 641.072 179.216C642.032 179.76 643.104 180.272 644.288 180.752C645.568 181.264 646.736 181.824 647.792 182.432C648.848 183.008 649.68 183.712 650.288 184.544C650.928 185.376 651.248 186.448 651.248 187.76C651.248 189.68 650.544 191.28 649.136 192.56C647.76 193.84 645.936 194.48 643.664 194.48C642.192 194.48 640.864 194.224 639.68 193.712C638.496 193.168 637.488 192.48 636.656 191.648C635.856 190.816 635.248 189.968 634.832 189.104L637.856 187.232ZM664.847 194.48C662.799 194.48 660.975 194 659.375 193.04C657.807 192.048 656.575 190.688 655.679 188.96C654.815 187.232 654.383 185.232 654.383 182.96C654.383 180.656 654.831 178.64 655.727 176.912C656.655 175.184 657.935 173.84 659.567 172.88C661.231 171.92 663.151 171.44 665.327 171.44C668.559 171.44 671.103 172.448 672.959 174.464C674.815 176.48 675.743 179.248 675.743 182.768C675.743 182.992 675.727 183.232 675.695 183.488C675.695 183.712 675.695 183.856 675.695 183.92H658.319C658.479 186.128 659.167 187.84 660.383 189.056C661.599 190.272 663.247 190.88 665.327 190.88C668.335 190.88 670.639 189.552 672.239 186.896L675.359 188.864C673.055 192.608 669.551 194.48 664.847 194.48ZM665.327 174.8C663.439 174.8 661.903 175.312 660.719 176.336C659.535 177.328 658.783 178.768 658.463 180.656H671.567C671.439 178.896 670.799 177.488 669.647 176.432C668.527 175.344 667.087 174.8 665.327 174.8ZM717.477 182.96C717.477 185.328 716.981 187.376 715.989 189.104C714.997 190.832 713.669 192.16 712.005 193.088C710.373 194.016 708.549 194.48 706.533 194.48C704.901 194.48 703.429 194.112 702.117 193.376C700.837 192.64 699.797 191.584 698.997 190.208V194H695.157V156.56H698.997V175.712C699.797 174.336 700.837 173.28 702.117 172.544C703.429 171.808 704.901 171.44 706.533 171.44C708.549 171.44 710.373 171.904 712.005 172.832C713.669 173.76 714.997 175.088 715.989 176.816C716.981 178.512 717.477 180.56 717.477 182.96ZM713.589 182.96C713.589 181.264 713.237 179.824 712.533 178.64C711.861 177.456 710.949 176.56 709.797 175.952C708.677 175.344 707.429 175.04 706.053 175.04C704.933 175.04 703.829 175.344 702.741 175.952C701.653 176.56 700.757 177.456 700.053 178.64C699.349 179.824 698.997 181.264 698.997 182.96C698.997 184.656 699.349 186.096 700.053 187.28C700.757 188.464 701.653 189.36 702.741 189.968C703.829 190.576 704.933 190.88 706.053 190.88C707.429 190.88 708.677 190.576 709.797 189.968C710.949 189.36 711.861 188.464 712.533 187.28C713.237 186.096 713.589 184.656 713.589 182.96ZM720.852 182.96C720.852 180.72 721.348 178.736 722.34 177.008C723.364 175.28 724.74 173.92 726.468 172.928C728.196 171.936 730.132 171.44 732.276 171.44C734.452 171.44 736.388 171.936 738.084 172.928C739.812 173.92 741.172 175.28 742.164 177.008C743.188 178.736 743.7 180.72 743.7 182.96C743.7 185.168 743.188 187.152 742.164 188.912C741.172 190.64 739.812 192 738.084 192.992C736.388 193.984 734.452 194.48 732.276 194.48C730.132 194.48 728.196 193.984 726.468 192.992C724.74 192 723.364 190.64 722.34 188.912C721.348 187.152 720.852 185.168 720.852 182.96ZM724.74 182.96C724.74 184.496 725.06 185.856 725.7 187.04C726.372 188.224 727.268 189.168 728.388 189.872C729.54 190.544 730.836 190.88 732.276 190.88C733.716 190.88 734.996 190.544 736.116 189.872C737.268 189.168 738.164 188.224 738.804 187.04C739.476 185.856 739.812 184.496 739.812 182.96C739.812 181.424 739.476 180.064 738.804 178.88C738.164 177.664 737.268 176.72 736.116 176.048C734.996 175.376 733.716 175.04 732.276 175.04C730.836 175.04 729.54 175.376 728.388 176.048C727.268 176.72 726.372 177.664 725.7 178.88C725.06 180.064 724.74 181.424 724.74 182.96ZM747.055 182.96C747.055 180.72 747.551 178.736 748.543 177.008C749.567 175.28 750.943 173.92 752.671 172.928C754.399 171.936 756.335 171.44 758.479 171.44C760.655 171.44 762.591 171.936 764.287 172.928C766.015 173.92 767.375 175.28 768.367 177.008C769.391 178.736 769.903 180.72 769.903 182.96C769.903 185.168 769.391 187.152 768.367 188.912C767.375 190.64 766.015 192 764.287 192.992C762.591 193.984 760.655 194.48 758.479 194.48C756.335 194.48 754.399 193.984 752.671 192.992C750.943 192 749.567 190.64 748.543 188.912C747.551 187.152 747.055 185.168 747.055 182.96ZM750.943 182.96C750.943 184.496 751.263 185.856 751.903 187.04C752.575 188.224 753.471 189.168 754.591 189.872C755.743 190.544 757.039 190.88 758.479 190.88C759.919 190.88 761.199 190.544 762.319 189.872C763.471 189.168 764.367 188.224 765.007 187.04C765.679 185.856 766.015 184.496 766.015 182.96C766.015 181.424 765.679 180.064 765.007 178.88C764.367 177.664 763.471 176.72 762.319 176.048C761.199 175.376 759.919 175.04 758.479 175.04C757.039 175.04 755.743 175.376 754.591 176.048C753.471 176.72 752.575 177.664 751.903 178.88C751.263 180.064 750.943 181.424 750.943 182.96ZM786.938 171.92H791.738L782.138 181.04L792.698 194H787.898L778.778 182.816V194H774.938V156.56H778.778V179.648L786.938 171.92ZM797.231 187.232C797.903 188.256 798.719 189.136 799.679 189.872C800.671 190.608 801.855 190.976 803.231 190.976C804.319 190.976 805.167 190.736 805.775 190.256C806.415 189.744 806.735 189.056 806.735 188.192C806.735 187.424 806.479 186.784 805.967 186.272C805.487 185.728 804.863 185.28 804.095 184.928C803.327 184.544 802.511 184.192 801.647 183.872C800.687 183.488 799.711 183.04 798.719 182.528C797.759 181.984 796.943 181.296 796.271 180.464C795.631 179.6 795.311 178.528 795.311 177.248C795.311 175.936 795.647 174.848 796.319 173.984C797.023 173.12 797.919 172.48 799.007 172.064C800.127 171.648 801.279 171.44 802.463 171.44C804.223 171.44 805.823 171.856 807.263 172.688C808.703 173.52 809.759 174.544 810.431 175.76L807.359 177.728C806.751 176.896 805.983 176.208 805.055 175.664C804.159 175.12 803.135 174.848 801.983 174.848C801.183 174.848 800.495 175.024 799.919 175.376C799.343 175.728 799.055 176.272 799.055 177.008C799.055 177.904 799.519 178.64 800.447 179.216C801.407 179.76 802.479 180.272 803.663 180.752C804.943 181.264 806.111 181.824 807.167 182.432C808.223 183.008 809.055 183.712 809.663 184.544C810.303 185.376 810.623 186.448 810.623 187.76C810.623 189.68 809.919 191.28 808.511 192.56C807.135 193.84 805.311 194.48 803.039 194.48C801.567 194.48 800.239 194.224 799.055 193.712C797.871 193.168 796.863 192.48 796.031 191.648C795.231 190.816 794.623 189.968 794.207 189.104L797.231 187.232ZM816.638 192.08C816.638 191.344 816.894 190.72 817.406 190.208C817.95 189.696 818.574 189.44 819.278 189.44C820.014 189.44 820.638 189.696 821.15 190.208C821.662 190.72 821.918 191.344 821.918 192.08C821.918 192.784 821.662 193.408 821.15 193.952C820.638 194.464 820.014 194.72 819.278 194.72C818.574 194.72 817.95 194.464 817.406 193.952C816.894 193.408 816.638 192.784 816.638 192.08ZM831.029 192.08C831.029 191.344 831.285 190.72 831.797 190.208C832.341 189.696 832.965 189.44 833.669 189.44C834.405 189.44 835.029 189.696 835.541 190.208C836.053 190.72 836.309 191.344 836.309 192.08C836.309 192.784 836.053 193.408 835.541 193.952C835.029 194.464 834.405 194.72 833.669 194.72C832.965 194.72 832.341 194.464 831.797 193.952C831.285 193.408 831.029 192.784 831.029 192.08ZM845.419 192.08C845.419 191.344 845.675 190.72 846.187 190.208C846.731 189.696 847.355 189.44 848.059 189.44C848.795 189.44 849.419 189.696 849.931 190.208C850.443 190.72 850.699 191.344 850.699 192.08C850.699 192.784 850.443 193.408 849.931 193.952C849.419 194.464 848.795 194.72 848.059 194.72C847.355 194.72 846.731 194.464 846.187 193.952C845.675 193.408 845.419 192.784 845.419 192.08ZM859.762 187.232C860.434 188.256 861.25 189.136 862.21 189.872C863.202 190.608 864.386 190.976 865.762 190.976C866.85 190.976 867.698 190.736 868.306 190.256C868.946 189.744 869.266 189.056 869.266 188.192C869.266 187.424 869.01 186.784 868.498 186.272C868.018 185.728 867.394 185.28 866.626 184.928C865.858 184.544 865.042 184.192 864.178 183.872C863.218 183.488 862.242 183.04 861.25 182.528C860.29 181.984 859.474 181.296 858.802 180.464C858.162 179.6 857.842 178.528 857.842 177.248C857.842 175.936 858.178 174.848 858.85 173.984C859.554 173.12 860.45 172.48 861.538 172.064C862.658 171.648 863.81 171.44 864.994 171.44C866.754 171.44 868.354 171.856 869.794 172.688C871.234 173.52 872.29 174.544 872.962 175.76L869.89 177.728C869.282 176.896 868.514 176.208 867.586 175.664C866.69 175.12 865.666 174.848 864.514 174.848C863.714 174.848 863.026 175.024 862.45 175.376C861.874 175.728 861.586 176.272 861.586 177.008C861.586 177.904 862.05 178.64 862.978 179.216C863.938 179.76 865.01 180.272 866.194 180.752C867.474 181.264 868.642 181.824 869.698 182.432C870.754 183.008 871.586 183.712 872.194 184.544C872.834 185.376 873.154 186.448 873.154 187.76C873.154 189.68 872.45 191.28 871.042 192.56C869.666 193.84 867.842 194.48 865.57 194.48C864.098 194.48 862.77 194.224 861.586 193.712C860.402 193.168 859.394 192.48 858.562 191.648C857.762 190.816 857.154 189.968 856.738 189.104L859.762 187.232ZM886.753 194.48C884.705 194.48 882.881 194 881.281 193.04C879.713 192.048 878.481 190.688 877.585 188.96C876.721 187.232 876.289 185.232 876.289 182.96C876.289 180.656 876.737 178.64 877.633 176.912C878.561 175.184 879.841 173.84 881.473 172.88C883.137 171.92 885.057 171.44 887.233 171.44C890.465 171.44 893.009 172.448 894.865 174.464C896.721 176.48 897.649 179.248 897.649 182.768C897.649 182.992 897.633 183.232 897.601 183.488C897.601 183.712 897.601 183.856 897.601 183.92H880.225C880.385 186.128 881.073 187.84 882.289 189.056C883.505 190.272 885.153 190.88 887.233 190.88C890.241 190.88 892.545 189.552 894.145 186.896L897.265 188.864C894.961 192.608 891.457 194.48 886.753 194.48ZM887.233 174.8C885.345 174.8 883.809 175.312 882.625 176.336C881.441 177.328 880.689 178.768 880.369 180.656H893.473C893.345 178.896 892.705 177.488 891.553 176.432C890.433 175.344 888.993 174.8 887.233 174.8ZM911.457 194.48C909.409 194.48 907.585 194 905.985 193.04C904.417 192.048 903.185 190.688 902.289 188.96C901.425 187.232 900.993 185.232 900.993 182.96C900.993 180.656 901.441 178.64 902.337 176.912C903.265 175.184 904.545 173.84 906.177 172.88C907.841 171.92 909.761 171.44 911.937 171.44C915.169 171.44 917.713 172.448 919.569 174.464C921.425 176.48 922.353 179.248 922.353 182.768C922.353 182.992 922.337 183.232 922.305 183.488C922.305 183.712 922.305 183.856 922.305 183.92H904.929C905.089 186.128 905.777 187.84 906.993 189.056C908.209 190.272 909.857 190.88 911.937 190.88C914.945 190.88 917.249 189.552 918.849 186.896L921.969 188.864C919.665 192.608 916.161 194.48 911.457 194.48ZM911.937 174.8C910.049 174.8 908.513 175.312 907.329 176.336C906.145 177.328 905.393 178.768 905.073 180.656H918.177C918.049 178.896 917.409 177.488 916.257 176.432C915.137 175.344 913.697 174.8 911.937 174.8ZM942.918 187.232C943.59 188.256 944.406 189.136 945.366 189.872C946.358 190.608 947.542 190.976 948.918 190.976C950.006 190.976 950.854 190.736 951.462 190.256C952.102 189.744 952.422 189.056 952.422 188.192C952.422 187.424 952.166 186.784 951.654 186.272C951.174 185.728 950.55 185.28 949.782 184.928C949.014 184.544 948.198 184.192 947.334 183.872C946.374 183.488 945.398 183.04 944.406 182.528C943.446 181.984 942.63 181.296 941.958 180.464C941.318 179.6 940.998 178.528 940.998 177.248C940.998 175.936 941.334 174.848 942.006 173.984C942.71 173.12 943.606 172.48 944.694 172.064C945.814 171.648 946.966 171.44 948.15 171.44C949.91 171.44 951.51 171.856 952.95 172.688C954.39 173.52 955.446 174.544 956.118 175.76L953.046 177.728C952.438 176.896 951.67 176.208 950.742 175.664C949.846 175.12 948.822 174.848 947.67 174.848C946.87 174.848 946.182 175.024 945.606 175.376C945.03 175.728 944.742 176.272 944.742 177.008C944.742 177.904 945.206 178.64 946.134 179.216C947.094 179.76 948.166 180.272 949.35 180.752C950.63 181.264 951.798 181.824 952.854 182.432C953.91 183.008 954.742 183.712 955.35 184.544C955.99 185.376 956.31 186.448 956.31 187.76C956.31 189.68 955.606 191.28 954.198 192.56C952.822 193.84 950.998 194.48 948.726 194.48C947.254 194.48 945.926 194.224 944.742 193.712C943.558 193.168 942.55 192.48 941.718 191.648C940.918 190.816 940.31 189.968 939.894 189.104L942.918 187.232ZM973.126 171.92H977.926L968.326 181.04L978.886 194H974.086L964.966 182.816V194H961.126V156.56H964.966V179.648L973.126 171.92ZM982.506 162.8C982.506 162.064 982.762 161.44 983.274 160.928C983.818 160.416 984.442 160.16 985.146 160.16C985.882 160.16 986.506 160.416 987.018 160.928C987.53 161.44 987.786 162.064 987.786 162.8C987.786 163.504 987.53 164.128 987.018 164.672C986.506 165.184 985.882 165.44 985.146 165.44C984.442 165.44 983.818 165.184 983.274 164.672C982.762 164.128 982.506 163.504 982.506 162.8ZM983.226 171.92H987.066V194H983.226V171.92ZM1009.14 180.56C1009.14 176.88 1007.57 175.04 1004.43 175.04C1002.77 175.04 1001.41 175.552 1000.35 176.576C999.327 177.6 998.815 178.928 998.815 180.56V194H994.975V171.92H998.815V175.376C1000.26 172.752 1002.45 171.44 1005.39 171.44C1007.73 171.44 1009.57 172.224 1010.91 173.792C1012.29 175.328 1012.98 177.424 1012.98 180.08V194H1009.14V180.56ZM1036.31 182.96C1036.31 184.496 1036.63 185.856 1037.27 187.04C1037.94 188.224 1038.84 189.168 1039.96 189.872C1041.11 190.544 1042.41 190.88 1043.85 190.88C1045.64 190.88 1047.24 190.48 1048.65 189.68C1050.06 188.88 1051.02 187.936 1051.53 186.848V191.648C1050.76 192.544 1049.66 193.248 1048.22 193.76C1046.81 194.24 1045.35 194.48 1043.85 194.48C1041.7 194.48 1039.77 193.984 1038.04 192.992C1036.31 192 1034.94 190.64 1033.91 188.912C1032.92 187.152 1032.42 185.168 1032.42 182.96C1032.42 180.72 1032.92 178.736 1033.91 177.008C1034.94 175.28 1036.31 173.92 1038.04 172.928C1039.77 171.936 1041.7 171.44 1043.85 171.44C1045.35 171.44 1046.81 171.696 1048.22 172.208C1049.66 172.688 1050.76 173.376 1051.53 174.272V179.072C1051.02 177.984 1050.06 177.04 1048.65 176.24C1047.24 175.44 1045.64 175.04 1043.85 175.04C1042.41 175.04 1041.11 175.376 1039.96 176.048C1038.84 176.72 1037.94 177.664 1037.27 178.88C1036.63 180.064 1036.31 181.424 1036.31 182.96ZM1055.59 182.96C1055.59 180.72 1056.08 178.736 1057.07 177.008C1058.1 175.28 1059.47 173.92 1061.2 172.928C1062.93 171.936 1064.87 171.44 1067.01 171.44C1069.19 171.44 1071.12 171.936 1072.82 172.928C1074.55 173.92 1075.91 175.28 1076.9 177.008C1077.92 178.736 1078.43 180.72 1078.43 182.96C1078.43 185.168 1077.92 187.152 1076.9 188.912C1075.91 190.64 1074.55 192 1072.82 192.992C1071.12 193.984 1069.19 194.48 1067.01 194.48C1064.87 194.48 1062.93 193.984 1061.2 192.992C1059.47 192 1058.1 190.64 1057.07 188.912C1056.08 187.152 1055.59 185.168 1055.59 182.96ZM1059.47 182.96C1059.47 184.496 1059.79 185.856 1060.43 187.04C1061.11 188.224 1062 189.168 1063.12 189.872C1064.27 190.544 1065.57 190.88 1067.01 190.88C1068.45 190.88 1069.73 190.544 1070.85 189.872C1072 189.168 1072.9 188.224 1073.54 187.04C1074.21 185.856 1074.55 184.496 1074.55 182.96C1074.55 181.424 1074.21 180.064 1073.54 178.88C1072.9 177.664 1072 176.72 1070.85 176.048C1069.73 175.376 1068.45 175.04 1067.01 175.04C1065.57 175.04 1064.27 175.376 1063.12 176.048C1062 176.72 1061.11 177.664 1060.43 178.88C1059.79 180.064 1059.47 181.424 1059.47 182.96ZM1083.71 156.56H1087.55V194H1083.71V156.56ZM1092.85 182.96C1092.85 180.72 1093.35 178.736 1094.34 177.008C1095.36 175.28 1096.74 173.92 1098.47 172.928C1100.2 171.936 1102.13 171.44 1104.28 171.44C1106.45 171.44 1108.39 171.936 1110.08 172.928C1111.81 173.92 1113.17 175.28 1114.16 177.008C1115.19 178.736 1115.7 180.72 1115.7 182.96C1115.7 185.168 1115.19 187.152 1114.16 188.912C1113.17 190.64 1111.81 192 1110.08 192.992C1108.39 193.984 1106.45 194.48 1104.28 194.48C1102.13 194.48 1100.2 193.984 1098.47 192.992C1096.74 192 1095.36 190.64 1094.34 188.912C1093.35 187.152 1092.85 185.168 1092.85 182.96ZM1096.74 182.96C1096.74 184.496 1097.06 185.856 1097.7 187.04C1098.37 188.224 1099.27 189.168 1100.39 189.872C1101.54 190.544 1102.84 190.88 1104.28 190.88C1105.72 190.88 1107 190.544 1108.12 189.872C1109.27 189.168 1110.16 188.224 1110.8 187.04C1111.48 185.856 1111.81 184.496 1111.81 182.96C1111.81 181.424 1111.48 180.064 1110.8 178.88C1110.16 177.664 1109.27 176.72 1108.12 176.048C1107 175.376 1105.72 175.04 1104.28 175.04C1102.84 175.04 1101.54 175.376 1100.39 176.048C1099.27 176.72 1098.37 177.664 1097.7 178.88C1097.06 180.064 1096.74 181.424 1096.74 182.96ZM1131.49 176.144C1130.98 175.76 1130.51 175.488 1130.1 175.328C1129.68 175.136 1129.15 175.04 1128.51 175.04C1127.07 175.04 1126.1 175.568 1125.58 176.624C1125.07 177.648 1124.82 178.96 1124.82 180.56V194H1120.98V171.92H1124.82V174.464C1125.42 173.536 1126.14 172.8 1126.98 172.256C1127.81 171.712 1128.64 171.44 1129.47 171.44C1130.27 171.44 1131.01 171.552 1131.68 171.776C1132.38 171.968 1133.02 172.368 1133.6 172.976L1131.49 176.144ZM1138.34 187.232C1139.01 188.256 1139.83 189.136 1140.79 189.872C1141.78 190.608 1142.96 190.976 1144.34 190.976C1145.43 190.976 1146.28 190.736 1146.88 190.256C1147.52 189.744 1147.84 189.056 1147.84 188.192C1147.84 187.424 1147.59 186.784 1147.08 186.272C1146.6 185.728 1145.97 185.28 1145.2 184.928C1144.44 184.544 1143.62 184.192 1142.76 183.872C1141.8 183.488 1140.82 183.04 1139.83 182.528C1138.87 181.984 1138.05 181.296 1137.38 180.464C1136.74 179.6 1136.42 178.528 1136.42 177.248C1136.42 175.936 1136.76 174.848 1137.43 173.984C1138.13 173.12 1139.03 172.48 1140.12 172.064C1141.24 171.648 1142.39 171.44 1143.57 171.44C1145.33 171.44 1146.93 171.856 1148.37 172.688C1149.81 173.52 1150.87 174.544 1151.54 175.76L1148.47 177.728C1147.86 176.896 1147.09 176.208 1146.16 175.664C1145.27 175.12 1144.24 174.848 1143.09 174.848C1142.29 174.848 1141.6 175.024 1141.03 175.376C1140.45 175.728 1140.16 176.272 1140.16 177.008C1140.16 177.904 1140.63 178.64 1141.56 179.216C1142.52 179.76 1143.59 180.272 1144.77 180.752C1146.05 181.264 1147.22 181.824 1148.28 182.432C1149.33 183.008 1150.16 183.712 1150.77 184.544C1151.41 185.376 1151.73 186.448 1151.73 187.76C1151.73 189.68 1151.03 191.28 1149.62 192.56C1148.24 193.84 1146.42 194.48 1144.15 194.48C1142.68 194.48 1141.35 194.224 1140.16 193.712C1138.98 193.168 1137.97 192.48 1137.14 191.648C1136.34 190.816 1135.73 189.968 1135.32 189.104L1138.34 187.232ZM85.6 225.56H89.44V263H85.6V225.56ZM96.6625 231.8C96.6625 231.064 96.9185 230.44 97.4305 229.928C97.9745 229.416 98.5985 229.16 99.3025 229.16C100.039 229.16 100.663 229.416 101.175 229.928C101.687 230.44 101.943 231.064 101.943 231.8C101.943 232.504 101.687 233.128 101.175 233.672C100.663 234.184 100.039 234.44 99.3025 234.44C98.5985 234.44 97.9745 234.184 97.4305 233.672C96.9185 233.128 96.6625 232.504 96.6625 231.8ZM97.3825 240.92H101.223V263H97.3825V240.92ZM120.891 240.92H125.691L116.091 250.04L126.651 263H121.851L112.731 251.816V263H108.891V225.56H112.731V248.648L120.891 240.92ZM138.113 263.48C136.065 263.48 134.241 263 132.641 262.04C131.073 261.048 129.841 259.688 128.945 257.96C128.081 256.232 127.649 254.232 127.649 251.96C127.649 249.656 128.097 247.64 128.993 245.912C129.921 244.184 131.201 242.84 132.833 241.88C134.497 240.92 136.417 240.44 138.593 240.44C141.825 240.44 144.369 241.448 146.225 243.464C148.081 245.48 149.009 248.248 149.009 251.768C149.009 251.992 148.993 252.232 148.961 252.488C148.961 252.712 148.961 252.856 148.961 252.92H131.585C131.745 255.128 132.433 256.84 133.649 258.056C134.865 259.272 136.513 259.88 138.593 259.88C141.601 259.88 143.905 258.552 145.505 255.896L148.625 257.864C146.321 261.608 142.817 263.48 138.113 263.48ZM138.593 243.8C136.705 243.8 135.169 244.312 133.985 245.336C132.801 246.328 132.049 247.768 131.729 249.656H144.833C144.705 247.896 144.065 246.488 142.913 245.432C141.793 244.344 140.353 243.8 138.593 243.8ZM165.303 240.92H168.903V233.24H172.743V240.92H176.343V244.52H172.743V263H168.903V244.52H165.303V240.92ZM194.354 249.56C194.354 245.88 192.786 244.04 189.65 244.04C187.986 244.04 186.626 244.568 185.57 245.624C184.546 246.648 184.034 247.96 184.034 249.56V263H180.194V225.56H184.034V244.424C184.706 243.208 185.602 242.248 186.722 241.544C187.874 240.808 189.17 240.44 190.61 240.44C192.882 240.44 194.706 241.176 196.082 242.648C197.49 244.088 198.194 246.232 198.194 249.08V263H194.354V249.56ZM213.957 263.48C211.909 263.48 210.085 263 208.485 262.04C206.917 261.048 205.685 259.688 204.789 257.96C203.925 256.232 203.493 254.232 203.493 251.96C203.493 249.656 203.941 247.64 204.837 245.912C205.765 244.184 207.045 242.84 208.677 241.88C210.341 240.92 212.261 240.44 214.437 240.44C217.669 240.44 220.213 241.448 222.069 243.464C223.925 245.48 224.853 248.248 224.853 251.768C224.853 251.992 224.837 252.232 224.805 252.488C224.805 252.712 224.805 252.856 224.805 252.92H207.429C207.589 255.128 208.277 256.84 209.493 258.056C210.709 259.272 212.357 259.88 214.437 259.88C217.445 259.88 219.749 258.552 221.349 255.896L224.469 257.864C222.165 261.608 218.661 263.48 213.957 263.48ZM214.437 243.8C212.549 243.8 211.013 244.312 209.829 245.336C208.645 246.328 207.893 247.768 207.573 249.656H220.677C220.549 247.896 219.909 246.488 218.757 245.432C217.637 244.344 216.197 243.8 214.437 243.8ZM260.356 249.08V263H256.516V249.56C256.516 247.672 256.164 246.28 255.46 245.384C254.788 244.488 253.732 244.04 252.292 244.04C250.724 244.04 249.476 244.536 248.548 245.528C247.62 246.488 247.156 247.832 247.156 249.56V263H243.316V249.56C243.316 247.672 242.964 246.28 242.26 245.384C241.588 244.488 240.532 244.04 239.092 244.04C237.524 244.04 236.276 244.536 235.348 245.528C234.42 246.488 233.956 247.832 233.956 249.56V263H230.116V240.92H233.956V244.136C235.268 241.672 237.3 240.44 240.052 240.44C241.588 240.44 242.9 240.808 243.988 241.544C245.108 242.248 245.924 243.256 246.436 244.568C247.972 241.816 250.244 240.44 253.252 240.44C255.524 240.44 257.268 241.192 258.484 242.696C259.732 244.2 260.356 246.328 260.356 249.08ZM281.959 231.8C281.959 231.064 282.215 230.44 282.727 229.928C283.271 229.416 283.895 229.16 284.599 229.16C285.335 229.16 285.959 229.416 286.471 229.928C286.983 230.44 287.239 231.064 287.239 231.8C287.239 232.504 286.983 233.128 286.471 233.672C285.959 234.184 285.335 234.44 284.599 234.44C283.895 234.44 283.271 234.184 282.727 233.672C282.215 233.128 281.959 232.504 281.959 231.8ZM282.679 240.92H286.519V263H282.679V240.92ZM308.588 249.56C308.588 245.88 307.02 244.04 303.884 244.04C302.22 244.04 300.86 244.552 299.804 245.576C298.78 246.6 298.268 247.928 298.268 249.56V263H294.428V240.92H298.268V244.376C299.708 241.752 301.9 240.44 304.844 240.44C307.18 240.44 309.02 241.224 310.364 242.792C311.74 244.328 312.428 246.424 312.428 249.08V263H308.588V249.56ZM330.678 240.92H334.278V233.24H338.118V240.92H341.718V244.52H338.118V263H334.278V244.52H330.678V240.92ZM359.729 249.56C359.729 245.88 358.161 244.04 355.025 244.04C353.361 244.04 352.001 244.568 350.945 245.624C349.921 246.648 349.409 247.96 349.409 249.56V263H345.569V225.56H349.409V244.424C350.081 243.208 350.977 242.248 352.097 241.544C353.249 240.808 354.545 240.44 355.985 240.44C358.257 240.44 360.081 241.176 361.457 242.648C362.865 244.088 363.569 246.232 363.569 249.08V263H359.729V249.56ZM379.332 263.48C377.284 263.48 375.46 263 373.86 262.04C372.292 261.048 371.06 259.688 370.164 257.96C369.3 256.232 368.868 254.232 368.868 251.96C368.868 249.656 369.316 247.64 370.212 245.912C371.14 244.184 372.42 242.84 374.052 241.88C375.716 240.92 377.636 240.44 379.812 240.44C383.044 240.44 385.588 241.448 387.444 243.464C389.3 245.48 390.228 248.248 390.228 251.768C390.228 251.992 390.212 252.232 390.18 252.488C390.18 252.712 390.18 252.856 390.18 252.92H372.804C372.964 255.128 373.652 256.84 374.868 258.056C376.084 259.272 377.732 259.88 379.812 259.88C382.82 259.88 385.124 258.552 386.724 255.896L389.844 257.864C387.54 261.608 384.036 263.48 379.332 263.48ZM379.812 243.8C377.924 243.8 376.388 244.312 375.204 245.336C374.02 246.328 373.268 247.768 372.948 249.656H386.052C385.924 247.896 385.284 246.488 384.132 245.432C383.012 244.344 381.572 243.8 379.812 243.8ZM431.961 251.96C431.961 254.328 431.465 256.376 430.473 258.104C429.481 259.832 428.153 261.16 426.489 262.088C424.857 263.016 423.033 263.48 421.017 263.48C419.385 263.48 417.913 263.112 416.601 262.376C415.321 261.64 414.281 260.584 413.481 259.208V263H409.641V225.56H413.481V244.712C414.281 243.336 415.321 242.28 416.601 241.544C417.913 240.808 419.385 240.44 421.017 240.44C423.033 240.44 424.857 240.904 426.489 241.832C428.153 242.76 429.481 244.088 430.473 245.816C431.465 247.512 431.961 249.56 431.961 251.96ZM428.073 251.96C428.073 250.264 427.721 248.824 427.017 247.64C426.345 246.456 425.433 245.56 424.281 244.952C423.161 244.344 421.913 244.04 420.537 244.04C419.417 244.04 418.313 244.344 417.225 244.952C416.137 245.56 415.241 246.456 414.537 247.64C413.833 248.824 413.481 250.264 413.481 251.96C413.481 253.656 413.833 255.096 414.537 256.28C415.241 257.464 416.137 258.36 417.225 258.968C418.313 259.576 419.417 259.88 420.537 259.88C421.913 259.88 423.161 259.576 424.281 258.968C425.433 258.36 426.345 257.464 427.017 256.28C427.721 255.096 428.073 253.656 428.073 251.96ZM435.336 251.96C435.336 249.72 435.832 247.736 436.824 246.008C437.848 244.28 439.224 242.92 440.952 241.928C442.68 240.936 444.616 240.44 446.76 240.44C448.936 240.44 450.872 240.936 452.568 241.928C454.296 242.92 455.656 244.28 456.648 246.008C457.672 247.736 458.184 249.72 458.184 251.96C458.184 254.168 457.672 256.152 456.648 257.912C455.656 259.64 454.296 261 452.568 261.992C450.872 262.984 448.936 263.48 446.76 263.48C444.616 263.48 442.68 262.984 440.952 261.992C439.224 261 437.848 259.64 436.824 257.912C435.832 256.152 435.336 254.168 435.336 251.96ZM439.224 251.96C439.224 253.496 439.544 254.856 440.184 256.04C440.856 257.224 441.752 258.168 442.872 258.872C444.024 259.544 445.32 259.88 446.76 259.88C448.2 259.88 449.48 259.544 450.6 258.872C451.752 258.168 452.648 257.224 453.288 256.04C453.96 254.856 454.296 253.496 454.296 251.96C454.296 250.424 453.96 249.064 453.288 247.88C452.648 246.664 451.752 245.72 450.6 245.048C449.48 244.376 448.2 244.04 446.76 244.04C445.32 244.04 444.024 244.376 442.872 245.048C441.752 245.72 440.856 246.664 440.184 247.88C439.544 249.064 439.224 250.424 439.224 251.96ZM461.539 251.96C461.539 249.72 462.035 247.736 463.027 246.008C464.051 244.28 465.427 242.92 467.155 241.928C468.883 240.936 470.819 240.44 472.963 240.44C475.139 240.44 477.075 240.936 478.771 241.928C480.499 242.92 481.859 244.28 482.851 246.008C483.875 247.736 484.387 249.72 484.387 251.96C484.387 254.168 483.875 256.152 482.851 257.912C481.859 259.64 480.499 261 478.771 261.992C477.075 262.984 475.139 263.48 472.963 263.48C470.819 263.48 468.883 262.984 467.155 261.992C465.427 261 464.051 259.64 463.027 257.912C462.035 256.152 461.539 254.168 461.539 251.96ZM465.427 251.96C465.427 253.496 465.747 254.856 466.387 256.04C467.059 257.224 467.955 258.168 469.075 258.872C470.227 259.544 471.523 259.88 472.963 259.88C474.403 259.88 475.683 259.544 476.803 258.872C477.955 258.168 478.851 257.224 479.491 256.04C480.163 254.856 480.499 253.496 480.499 251.96C480.499 250.424 480.163 249.064 479.491 247.88C478.851 246.664 477.955 245.72 476.803 245.048C475.683 244.376 474.403 244.04 472.963 244.04C471.523 244.04 470.227 244.376 469.075 245.048C467.955 245.72 467.059 246.664 466.387 247.88C465.747 249.064 465.427 250.424 465.427 251.96ZM501.423 240.92H506.223L496.623 250.04L507.183 263H502.383L493.263 251.816V263H489.423V225.56H493.263V248.648L501.423 240.92ZM511.715 256.232C512.387 257.256 513.203 258.136 514.163 258.872C515.155 259.608 516.339 259.976 517.715 259.976C518.803 259.976 519.651 259.736 520.259 259.256C520.899 258.744 521.219 258.056 521.219 257.192C521.219 256.424 520.963 255.784 520.451 255.272C519.971 254.728 519.347 254.28 518.579 253.928C517.811 253.544 516.995 253.192 516.131 252.872C515.171 252.488 514.195 252.04 513.203 251.528C512.243 250.984 511.427 250.296 510.755 249.464C510.115 248.6 509.795 247.528 509.795 246.248C509.795 244.936 510.131 243.848 510.803 242.984C511.507 242.12 512.403 241.48 513.491 241.064C514.611 240.648 515.763 240.44 516.947 240.44C518.707 240.44 520.307 240.856 521.747 241.688C523.187 242.52 524.243 243.544 524.915 244.76L521.843 246.728C521.235 245.896 520.467 245.208 519.539 244.664C518.643 244.12 517.619 243.848 516.467 243.848C515.667 243.848 514.979 244.024 514.403 244.376C513.827 244.728 513.539 245.272 513.539 246.008C513.539 246.904 514.003 247.64 514.931 248.216C515.891 248.76 516.963 249.272 518.147 249.752C519.427 250.264 520.595 250.824 521.651 251.432C522.707 252.008 523.539 252.712 524.147 253.544C524.787 254.376 525.107 255.448 525.107 256.76C525.107 258.68 524.403 260.28 522.995 261.56C521.619 262.84 519.795 263.48 517.523 263.48C516.051 263.48 514.723 263.224 513.539 262.712C512.355 262.168 511.347 261.48 510.515 260.648C509.715 259.816 509.107 258.968 508.691 258.104L511.715 256.232ZM541.193 240.92H544.793V233.24H548.633V240.92H552.233V244.52H548.633V263H544.793V244.52H541.193V240.92ZM570.244 249.56C570.244 245.88 568.676 244.04 565.54 244.04C563.876 244.04 562.516 244.568 561.46 245.624C560.436 246.648 559.924 247.96 559.924 249.56V263H556.084V225.56H559.924V244.424C560.596 243.208 561.492 242.248 562.612 241.544C563.764 240.808 565.06 240.44 566.5 240.44C568.772 240.44 570.596 241.176 571.972 242.648C573.38 244.088 574.084 246.232 574.084 249.08V263H570.244V249.56ZM589.847 263.48C587.799 263.48 585.975 263 584.375 262.04C582.807 261.048 581.575 259.688 580.679 257.96C579.815 256.232 579.383 254.232 579.383 251.96C579.383 249.656 579.831 247.64 580.727 245.912C581.655 244.184 582.935 242.84 584.567 241.88C586.231 240.92 588.151 240.44 590.327 240.44C593.559 240.44 596.103 241.448 597.959 243.464C599.815 245.48 600.743 248.248 600.743 251.768C600.743 251.992 600.727 252.232 600.695 252.488C600.695 252.712 600.695 252.856 600.695 252.92H583.319C583.479 255.128 584.167 256.84 585.383 258.056C586.599 259.272 588.247 259.88 590.327 259.88C593.335 259.88 595.639 258.552 597.239 255.896L600.359 257.864C598.055 261.608 594.551 263.48 589.847 263.48ZM590.327 243.8C588.439 243.8 586.903 244.312 585.719 245.336C584.535 246.328 583.783 247.768 583.463 249.656H596.567C596.439 247.896 595.799 246.488 594.647 245.432C593.527 244.344 592.087 243.8 590.327 243.8ZM622.823 240.92L608.423 273.56H604.103L610.151 259.88L601.703 240.92H606.263L612.455 256.136L618.503 240.92H622.823ZM641.986 246.008L640.114 243.176C640.946 242.568 642.082 241.96 643.522 241.352C644.994 240.744 646.754 240.44 648.802 240.44C651.362 240.44 653.442 241.032 655.042 242.216C656.642 243.368 657.442 245.016 657.442 247.16V263H653.602V260.024C652.898 261.176 651.842 262.04 650.434 262.616C649.026 263.192 647.65 263.48 646.306 263.48C644.962 263.48 643.698 263.208 642.514 262.664C641.362 262.088 640.434 261.272 639.73 260.216C639.026 259.16 638.674 257.88 638.674 256.376C638.674 254.232 639.426 252.52 640.93 251.24C642.466 249.928 644.594 249.272 647.314 249.272C648.786 249.272 650.034 249.448 651.058 249.8C652.114 250.12 652.962 250.488 653.602 250.904V247.688C653.602 246.184 653.106 245.16 652.114 244.616C651.154 244.072 649.986 243.8 648.61 243.8C646.946 243.8 645.554 244.072 644.434 244.616C643.314 245.16 642.498 245.624 641.986 246.008ZM642.562 256.184C642.562 257.464 642.994 258.456 643.858 259.16C644.754 259.832 645.906 260.168 647.314 260.168C649.074 260.168 650.562 259.64 651.778 258.584C652.994 257.528 653.602 256.12 653.602 254.36V253.544C652.706 253.096 651.794 252.776 650.866 252.584C649.938 252.392 648.962 252.296 647.938 252.296C646.082 252.296 644.722 252.648 643.858 253.352C642.994 254.024 642.562 254.968 642.562 256.184ZM674.456 245.144C673.944 244.76 673.48 244.488 673.064 244.328C672.648 244.136 672.12 244.04 671.48 244.04C670.04 244.04 669.064 244.568 668.552 245.624C668.04 246.648 667.784 247.96 667.784 249.56V263H663.944V240.92H667.784V243.464C668.392 242.536 669.112 241.8 669.944 241.256C670.776 240.712 671.608 240.44 672.44 240.44C673.24 240.44 673.976 240.552 674.648 240.776C675.352 240.968 675.992 241.368 676.568 241.976L674.456 245.144ZM688.238 263.48C686.19 263.48 684.366 263 682.766 262.04C681.198 261.048 679.966 259.688 679.07 257.96C678.206 256.232 677.774 254.232 677.774 251.96C677.774 249.656 678.222 247.64 679.118 245.912C680.046 244.184 681.326 242.84 682.958 241.88C684.622 240.92 686.542 240.44 688.718 240.44C691.95 240.44 694.494 241.448 696.35 243.464C698.206 245.48 699.134 248.248 699.134 251.768C699.134 251.992 699.118 252.232 699.086 252.488C699.086 252.712 699.086 252.856 699.086 252.92H681.71C681.87 255.128 682.558 256.84 683.774 258.056C684.99 259.272 686.638 259.88 688.718 259.88C691.726 259.88 694.03 258.552 695.63 255.896L698.75 257.864C696.446 261.608 692.942 263.48 688.238 263.48ZM688.718 243.8C686.83 243.8 685.294 244.312 684.11 245.336C682.926 246.328 682.174 247.768 681.854 249.656H694.958C694.83 247.896 694.19 246.488 693.038 245.432C691.918 244.344 690.478 243.8 688.718 243.8ZM729.299 245.144C728.788 244.76 728.324 244.488 727.908 244.328C727.492 244.136 726.964 244.04 726.324 244.04C724.884 244.04 723.908 244.568 723.396 245.624C722.884 246.648 722.628 247.96 722.628 249.56V263H718.788V240.92H722.628V243.464C723.236 242.536 723.956 241.8 724.788 241.256C725.62 240.712 726.452 240.44 727.284 240.44C728.084 240.44 728.82 240.552 729.492 240.776C730.196 240.968 730.836 241.368 731.412 241.976L729.299 245.144ZM743.082 263.48C741.034 263.48 739.21 263 737.61 262.04C736.042 261.048 734.81 259.688 733.914 257.96C733.05 256.232 732.618 254.232 732.618 251.96C732.618 249.656 733.066 247.64 733.962 245.912C734.89 244.184 736.17 242.84 737.802 241.88C739.466 240.92 741.386 240.44 743.562 240.44C746.794 240.44 749.338 241.448 751.194 243.464C753.05 245.48 753.978 248.248 753.978 251.768C753.978 251.992 753.962 252.232 753.93 252.488C753.93 252.712 753.93 252.856 753.93 252.92H736.554C736.714 255.128 737.402 256.84 738.618 258.056C739.834 259.272 741.482 259.88 743.562 259.88C746.57 259.88 748.874 258.552 750.474 255.896L753.594 257.864C751.29 261.608 747.786 263.48 743.082 263.48ZM743.562 243.8C741.674 243.8 740.138 244.312 738.954 245.336C737.77 246.328 737.018 247.768 736.698 249.656H749.802C749.674 247.896 749.034 246.488 747.882 245.432C746.762 244.344 745.322 243.8 743.562 243.8ZM760.393 246.008L758.521 243.176C759.353 242.568 760.489 241.96 761.929 241.352C763.401 240.744 765.161 240.44 767.209 240.44C769.769 240.44 771.849 241.032 773.449 242.216C775.049 243.368 775.849 245.016 775.849 247.16V263H772.009V260.024C771.305 261.176 770.249 262.04 768.841 262.616C767.433 263.192 766.057 263.48 764.713 263.48C763.369 263.48 762.105 263.208 760.921 262.664C759.769 262.088 758.841 261.272 758.137 260.216C757.433 259.16 757.081 257.88 757.081 256.376C757.081 254.232 757.833 252.52 759.337 251.24C760.873 249.928 763.001 249.272 765.721 249.272C767.193 249.272 768.441 249.448 769.465 249.8C770.521 250.12 771.369 250.488 772.009 250.904V247.688C772.009 246.184 771.513 245.16 770.521 244.616C769.561 244.072 768.393 243.8 767.017 243.8C765.353 243.8 763.961 244.072 762.841 244.616C761.721 245.16 760.905 245.624 760.393 246.008ZM760.969 256.184C760.969 257.464 761.401 258.456 762.265 259.16C763.161 259.832 764.313 260.168 765.721 260.168C767.481 260.168 768.969 259.64 770.185 258.584C771.401 257.528 772.009 256.12 772.009 254.36V253.544C771.113 253.096 770.201 252.776 769.273 252.584C768.345 252.392 767.369 252.296 766.345 252.296C764.489 252.296 763.129 252.648 762.265 253.352C761.401 254.024 760.969 254.968 760.969 256.184ZM780.43 251.96C780.43 249.56 780.926 247.512 781.918 245.816C782.91 244.088 784.238 242.76 785.902 241.832C787.566 240.904 789.39 240.44 791.374 240.44C793.006 240.44 794.462 240.808 795.742 241.544C797.054 242.28 798.11 243.336 798.91 244.712V225.56H802.75V263H798.91V259.208C798.11 260.584 797.054 261.64 795.742 262.376C794.462 263.112 793.006 263.48 791.374 263.48C789.39 263.48 787.566 263.016 785.902 262.088C784.238 261.16 782.91 259.832 781.918 258.104C780.926 256.376 780.43 254.328 780.43 251.96ZM784.318 251.96C784.318 253.656 784.654 255.096 785.326 256.28C786.03 257.464 786.958 258.36 788.11 258.968C789.262 259.576 790.51 259.88 791.854 259.88C792.974 259.88 794.078 259.576 795.166 258.968C796.254 258.36 797.15 257.464 797.854 256.28C798.558 255.096 798.91 253.656 798.91 251.96C798.91 250.264 798.558 248.824 797.854 247.64C797.15 246.456 796.254 245.56 795.166 244.952C794.078 244.344 792.974 244.04 791.854 244.04C790.51 244.04 789.262 244.344 788.11 244.952C786.958 245.56 786.03 246.456 785.326 247.64C784.654 248.824 784.318 250.264 784.318 251.96ZM809.725 231.8C809.725 231.064 809.981 230.44 810.493 229.928C811.037 229.416 811.661 229.16 812.365 229.16C813.101 229.16 813.725 229.416 814.237 229.928C814.749 230.44 815.005 231.064 815.005 231.8C815.005 232.504 814.749 233.128 814.237 233.672C813.725 234.184 813.101 234.44 812.365 234.44C811.661 234.44 811.037 234.184 810.493 233.672C809.981 233.128 809.725 232.504 809.725 231.8ZM810.445 240.92H814.285V263H810.445V240.92ZM836.354 249.56C836.354 245.88 834.786 244.04 831.65 244.04C829.986 244.04 828.626 244.552 827.57 245.576C826.546 246.6 826.034 247.928 826.034 249.56V263H822.194V240.92H826.034V244.376C827.474 241.752 829.666 240.44 832.61 240.44C834.946 240.44 836.786 241.224 838.13 242.792C839.506 244.328 840.194 246.424 840.194 249.08V263H836.354V249.56ZM845.925 264.44H849.812C849.812 265.496 850.101 266.472 850.677 267.368C851.253 268.296 852.069 269.032 853.125 269.576C854.181 270.152 855.429 270.44 856.869 270.44C857.989 270.44 859.093 270.168 860.181 269.624C861.269 269.08 862.165 268.216 862.869 267.032C863.605 265.88 863.973 264.376 863.973 262.52V259.208C863.173 260.584 862.117 261.64 860.805 262.376C859.525 263.112 858.069 263.48 856.437 263.48C854.453 263.48 852.629 263.016 850.965 262.088C849.301 261.16 847.973 259.832 846.98 258.104C845.988 256.376 845.493 254.328 845.493 251.96C845.493 249.56 845.988 247.512 846.98 245.816C847.973 244.088 849.301 242.76 850.965 241.832C852.629 240.904 854.453 240.44 856.437 240.44C858.069 240.44 859.525 240.808 860.805 241.544C862.117 242.28 863.173 243.336 863.973 244.712V240.92H867.812V262.52C867.812 265.048 867.285 267.16 866.229 268.856C865.173 270.584 863.813 271.88 862.149 272.744C860.485 273.608 858.725 274.04 856.869 274.04C854.725 274.04 852.821 273.64 851.157 272.84C849.525 272.04 848.245 270.904 847.317 269.432C846.389 267.992 845.925 266.328 845.925 264.44ZM849.381 251.96C849.381 253.656 849.717 255.096 850.389 256.28C851.093 257.464 852.021 258.36 853.173 258.968C854.325 259.576 855.573 259.88 856.917 259.88C858.037 259.88 859.141 259.576 860.229 258.968C861.317 258.36 862.213 257.464 862.917 256.28C863.621 255.096 863.973 253.656 863.973 251.96C863.973 250.264 863.621 248.824 862.917 247.64C862.213 246.456 861.317 245.56 860.229 244.952C859.141 244.344 858.037 244.04 856.917 244.04C855.573 244.04 854.325 244.344 853.173 244.952C852.021 245.56 851.093 246.456 850.389 247.64C849.717 248.824 849.381 250.264 849.381 251.96ZM875.748 261.08C875.748 260.344 876.004 259.72 876.516 259.208C877.06 258.696 877.684 258.44 878.388 258.44C879.124 258.44 879.748 258.696 880.26 259.208C880.772 259.72 881.028 260.344 881.028 261.08C881.028 261.784 880.772 262.408 880.26 262.952C879.748 263.464 879.124 263.72 878.388 263.72C877.684 263.72 877.06 263.464 876.516 262.952C876.004 262.408 875.748 261.784 875.748 261.08ZM890.858 229.4H895.418L890.618 240.44H887.978L890.858 229.4ZM900.458 229.4H905.018L900.218 240.44H897.578L900.458 229.4ZM82.24 322.4V318.8H91.84V322.4H82.24ZM114.965 309.296L112.469 332H108.389L112.469 296.72L125.909 321.056L139.349 296.72L143.429 332H139.349L136.853 309.296L125.909 328.88L114.965 309.296ZM159.44 314.144C158.928 313.76 158.464 313.488 158.048 313.328C157.632 313.136 157.104 313.04 156.464 313.04C155.024 313.04 154.048 313.568 153.536 314.624C153.024 315.648 152.768 316.96 152.768 318.56V332H148.928V309.92H152.768V312.464C153.376 311.536 154.096 310.8 154.928 310.256C155.76 309.712 156.592 309.44 157.424 309.44C158.224 309.44 158.96 309.552 159.632 309.776C160.336 309.968 160.976 310.368 161.552 310.976L159.44 314.144ZM166.293 325.232C166.965 326.256 167.781 327.136 168.741 327.872C169.733 328.608 170.917 328.976 172.293 328.976C173.381 328.976 174.229 328.736 174.837 328.256C175.477 327.744 175.797 327.056 175.797 326.192C175.797 325.424 175.541 324.784 175.029 324.272C174.549 323.728 173.925 323.28 173.157 322.928C172.389 322.544 171.573 322.192 170.709 321.872C169.749 321.488 168.773 321.04 167.781 320.528C166.821 319.984 166.005 319.296 165.333 318.464C164.693 317.6 164.373 316.528 164.373 315.248C164.373 313.936 164.709 312.848 165.381 311.984C166.085 311.12 166.981 310.48 168.069 310.064C169.189 309.648 170.341 309.44 171.525 309.44C173.285 309.44 174.885 309.856 176.325 310.688C177.765 311.52 178.821 312.544 179.493 313.76L176.421 315.728C175.813 314.896 175.045 314.208 174.117 313.664C173.221 313.12 172.197 312.848 171.045 312.848C170.245 312.848 169.557 313.024 168.981 313.376C168.405 313.728 168.117 314.272 168.117 315.008C168.117 315.904 168.581 316.64 169.509 317.216C170.469 317.76 171.541 318.272 172.725 318.752C174.005 319.264 175.173 319.824 176.229 320.432C177.285 321.008 178.117 321.712 178.725 322.544C179.365 323.376 179.685 324.448 179.685 325.76C179.685 327.68 178.981 329.28 177.573 330.56C176.197 331.84 174.373 332.48 172.101 332.48C170.629 332.48 169.301 332.224 168.117 331.712C166.933 331.168 165.925 330.48 165.093 329.648C164.293 328.816 163.685 327.968 163.269 327.104L166.293 325.232ZM185.701 330.08C185.701 329.344 185.957 328.72 186.469 328.208C187.013 327.696 187.637 327.44 188.341 327.44C189.077 327.44 189.701 327.696 190.213 328.208C190.725 328.72 190.981 329.344 190.981 330.08C190.981 330.784 190.725 331.408 190.213 331.952C189.701 332.464 189.077 332.72 188.341 332.72C187.637 332.72 187.013 332.464 186.469 331.952C185.957 331.408 185.701 330.784 185.701 330.08ZM239.202 298.4H243.282V333.68L217.842 306.992V332H213.762V296.72L239.202 323.408V298.4ZM250.741 300.8C250.741 300.064 250.997 299.44 251.509 298.928C252.053 298.416 252.677 298.16 253.381 298.16C254.117 298.16 254.741 298.416 255.253 298.928C255.765 299.44 256.021 300.064 256.021 300.8C256.021 301.504 255.765 302.128 255.253 302.672C254.741 303.184 254.117 303.44 253.381 303.44C252.677 303.44 252.053 303.184 251.509 302.672C250.997 302.128 250.741 301.504 250.741 300.8ZM251.461 309.92H255.301V332H251.461V309.92ZM264.937 320.96C264.937 322.496 265.257 323.856 265.897 325.04C266.569 326.224 267.465 327.168 268.585 327.872C269.737 328.544 271.033 328.88 272.473 328.88C274.265 328.88 275.865 328.48 277.273 327.68C278.681 326.88 279.641 325.936 280.153 324.848V329.648C279.385 330.544 278.281 331.248 276.841 331.76C275.433 332.24 273.977 332.48 272.473 332.48C270.329 332.48 268.393 331.984 266.665 330.992C264.937 330 263.561 328.64 262.537 326.912C261.545 325.152 261.049 323.168 261.049 320.96C261.049 318.72 261.545 316.736 262.537 315.008C263.561 313.28 264.937 311.92 266.665 310.928C268.393 309.936 270.329 309.44 272.473 309.44C273.977 309.44 275.433 309.696 276.841 310.208C278.281 310.688 279.385 311.376 280.153 312.272V317.072C279.641 315.984 278.681 315.04 277.273 314.24C275.865 313.44 274.265 313.04 272.473 313.04C271.033 313.04 269.737 313.376 268.585 314.048C267.465 314.72 266.569 315.664 265.897 316.88C265.257 318.064 264.937 319.424 264.937 320.96ZM284.211 320.96C284.211 318.72 284.707 316.736 285.699 315.008C286.723 313.28 288.099 311.92 289.827 310.928C291.555 309.936 293.491 309.44 295.635 309.44C297.811 309.44 299.747 309.936 301.443 310.928C303.171 311.92 304.531 313.28 305.523 315.008C306.547 316.736 307.059 318.72 307.059 320.96C307.059 323.168 306.547 325.152 305.523 326.912C304.531 328.64 303.171 330 301.443 330.992C299.747 331.984 297.811 332.48 295.635 332.48C293.491 332.48 291.555 331.984 289.827 330.992C288.099 330 286.723 328.64 285.699 326.912C284.707 325.152 284.211 323.168 284.211 320.96ZM288.099 320.96C288.099 322.496 288.419 323.856 289.059 325.04C289.731 326.224 290.627 327.168 291.747 327.872C292.899 328.544 294.195 328.88 295.635 328.88C297.075 328.88 298.355 328.544 299.475 327.872C300.627 327.168 301.523 326.224 302.163 325.04C302.835 323.856 303.171 322.496 303.171 320.96C303.171 319.424 302.835 318.064 302.163 316.88C301.523 315.664 300.627 314.72 299.475 314.048C298.355 313.376 297.075 313.04 295.635 313.04C294.195 313.04 292.899 313.376 291.747 314.048C290.627 314.72 289.731 315.664 289.059 316.88C288.419 318.064 288.099 319.424 288.099 320.96ZM312.334 294.56H316.174V332H312.334V294.56ZM331.941 332.48C329.893 332.48 328.069 332 326.469 331.04C324.901 330.048 323.669 328.688 322.773 326.96C321.909 325.232 321.477 323.232 321.477 320.96C321.477 318.656 321.925 316.64 322.821 314.912C323.749 313.184 325.029 311.84 326.661 310.88C328.325 309.92 330.245 309.44 332.421 309.44C335.653 309.44 338.197 310.448 340.053 312.464C341.909 314.48 342.837 317.248 342.837 320.768C342.837 320.992 342.821 321.232 342.789 321.488C342.789 321.712 342.789 321.856 342.789 321.92H325.413C325.573 324.128 326.261 325.84 327.477 327.056C328.693 328.272 330.341 328.88 332.421 328.88C335.429 328.88 337.733 327.552 339.333 324.896L342.453 326.864C340.149 330.608 336.645 332.48 331.941 332.48ZM332.421 312.8C330.533 312.8 328.997 313.312 327.813 314.336C326.629 315.328 325.877 316.768 325.557 318.656H338.661C338.533 316.896 337.893 315.488 336.741 314.432C335.621 313.344 334.181 312.8 332.421 312.8ZM372.811 332H362.731V298.4H372.811C376.075 298.4 378.971 299.104 381.499 300.512C384.027 301.92 386.011 303.888 387.451 306.416C388.891 308.912 389.611 311.84 389.611 315.2C389.611 318.56 388.891 321.504 387.451 324.032C386.011 326.528 384.027 328.48 381.499 329.888C378.971 331.296 376.075 332 372.811 332ZM372.811 302.48H366.811V327.92H372.811C375.339 327.92 377.547 327.408 379.435 326.384C381.355 325.328 382.843 323.856 383.899 321.968C384.987 320.048 385.531 317.792 385.531 315.2C385.531 312.576 384.987 310.32 383.899 308.432C382.843 306.544 381.355 305.088 379.435 304.064C377.547 303.008 375.339 302.48 372.811 302.48ZM396.268 315.008L394.396 312.176C395.228 311.568 396.364 310.96 397.804 310.352C399.276 309.744 401.036 309.44 403.084 309.44C405.644 309.44 407.724 310.032 409.324 311.216C410.924 312.368 411.724 314.016 411.724 316.16V332H407.884V329.024C407.18 330.176 406.124 331.04 404.716 331.616C403.308 332.192 401.932 332.48 400.588 332.48C399.244 332.48 397.98 332.208 396.796 331.664C395.644 331.088 394.716 330.272 394.012 329.216C393.308 328.16 392.956 326.88 392.956 325.376C392.956 323.232 393.708 321.52 395.212 320.24C396.748 318.928 398.876 318.272 401.596 318.272C403.068 318.272 404.316 318.448 405.34 318.8C406.396 319.12 407.244 319.488 407.884 319.904V316.688C407.884 315.184 407.388 314.16 406.396 313.616C405.436 313.072 404.268 312.8 402.892 312.8C401.228 312.8 399.836 313.072 398.716 313.616C397.596 314.16 396.78 314.624 396.268 315.008ZM396.844 325.184C396.844 326.464 397.276 327.456 398.14 328.16C399.036 328.832 400.188 329.168 401.596 329.168C403.356 329.168 404.844 328.64 406.06 327.584C407.276 326.528 407.884 325.12 407.884 323.36V322.544C406.988 322.096 406.076 321.776 405.148 321.584C404.22 321.392 403.244 321.296 402.22 321.296C400.364 321.296 399.004 321.648 398.14 322.352C397.276 323.024 396.844 323.968 396.844 325.184ZM414.865 309.92H418.465V302.24H422.305V309.92H425.905V313.52H422.305V332H418.465V313.52H414.865V309.92ZM426.396 309.92H429.996V302.24H433.836V309.92H437.436V313.52H433.836V332H429.996V313.52H426.396V309.92ZM441.288 300.8C441.288 300.064 441.544 299.44 442.056 298.928C442.6 298.416 443.224 298.16 443.928 298.16C444.664 298.16 445.288 298.416 445.8 298.928C446.312 299.44 446.568 300.064 446.568 300.8C446.568 301.504 446.312 302.128 445.8 302.672C445.288 303.184 444.664 303.44 443.928 303.44C443.224 303.44 442.6 303.184 442.056 302.672C441.544 302.128 441.288 301.504 441.288 300.8ZM442.008 309.92H445.848V332H442.008V309.92ZM453.756 294.56H457.596V332H453.756V294.56ZM462.899 320.96C462.899 318.72 463.395 316.736 464.387 315.008C465.411 313.28 466.787 311.92 468.515 310.928C470.243 309.936 472.179 309.44 474.323 309.44C476.499 309.44 478.435 309.936 480.131 310.928C481.859 311.92 483.219 313.28 484.211 315.008C485.235 316.736 485.747 318.72 485.747 320.96C485.747 323.168 485.235 325.152 484.211 326.912C483.219 328.64 481.859 330 480.131 330.992C478.435 331.984 476.499 332.48 474.323 332.48C472.179 332.48 470.243 331.984 468.515 330.992C466.787 330 465.411 328.64 464.387 326.912C463.395 325.152 462.899 323.168 462.899 320.96ZM466.787 320.96C466.787 322.496 467.107 323.856 467.747 325.04C468.419 326.224 469.315 327.168 470.435 327.872C471.587 328.544 472.883 328.88 474.323 328.88C475.763 328.88 477.043 328.544 478.163 327.872C479.315 327.168 480.211 326.224 480.851 325.04C481.523 323.856 481.859 322.496 481.859 320.96C481.859 319.424 481.523 318.064 480.851 316.88C480.211 315.664 479.315 314.72 478.163 314.048C477.043 313.376 475.763 313.04 474.323 313.04C472.883 313.04 471.587 313.376 470.435 314.048C469.315 314.72 468.419 315.664 467.747 316.88C467.107 318.064 466.787 319.424 466.787 320.96ZM511.653 294.56H515.253C513.589 298.144 512.373 301.936 511.605 305.936C510.837 309.936 510.453 313.984 510.453 318.08C510.453 322.144 510.837 326.176 511.605 330.176C512.373 334.176 513.589 337.984 515.253 341.6H511.653C509.733 337.984 508.325 334.176 507.429 330.176C506.565 326.176 506.133 322.144 506.133 318.08C506.133 313.984 506.565 309.936 507.429 305.936C508.325 301.936 509.733 298.144 511.653 294.56ZM522.912 315.2C522.912 317.792 523.488 320.08 524.64 322.064C525.824 324.048 527.36 325.6 529.248 326.72C531.136 327.84 533.184 328.4 535.392 328.4C537.76 328.4 539.856 327.936 541.68 327.008C543.504 326.08 545.008 324.88 546.192 323.408V328.784C544.784 330.032 543.248 330.96 541.584 331.568C539.92 332.176 537.856 332.48 535.392 332.48C533.056 332.48 530.864 332.064 528.816 331.232C526.8 330.368 525.024 329.168 523.488 327.632C521.952 326.064 520.752 324.224 519.888 322.112C519.024 320 518.592 317.696 518.592 315.2C518.592 312.704 519.024 310.4 519.888 308.288C520.752 306.176 521.952 304.352 523.488 302.816C525.024 301.248 526.8 300.048 528.816 299.216C530.864 298.352 533.056 297.92 535.392 297.92C537.856 297.92 539.92 298.224 541.584 298.832C543.248 299.44 544.784 300.368 546.192 301.616V306.992C545.008 305.488 543.504 304.288 541.68 303.392C539.856 302.464 537.76 302 535.392 302C533.184 302 531.136 302.56 529.248 303.68C527.36 304.8 525.824 306.352 524.64 308.336C523.488 310.288 522.912 312.576 522.912 315.2ZM553.131 298.4H557.211V320.96C557.211 323.264 557.835 325.12 559.083 326.528C560.331 327.936 562.155 328.64 564.555 328.64C566.955 328.64 568.779 327.936 570.027 326.528C571.275 325.12 571.899 323.264 571.899 320.96V298.4H575.979V320.96C575.979 323.168 575.499 325.152 574.539 326.912C573.611 328.64 572.299 330 570.603 330.992C568.907 331.984 566.891 332.48 564.555 332.48C562.251 332.48 560.235 331.984 558.507 330.992C556.811 330 555.483 328.64 554.523 326.912C553.595 325.152 553.131 323.168 553.131 320.96V298.4ZM584.666 321.824C585.786 323.872 587.034 325.52 588.41 326.768C589.818 328.016 591.53 328.64 593.546 328.64C595.338 328.64 596.778 328.144 597.866 327.152C598.954 326.16 599.498 324.896 599.498 323.36C599.498 321.856 599.146 320.656 598.442 319.76C597.738 318.864 596.81 318.144 595.658 317.6C594.538 317.024 593.338 316.512 592.058 316.064C591.226 315.776 590.298 315.408 589.274 314.96C588.25 314.48 587.274 313.888 586.346 313.184C585.418 312.448 584.65 311.552 584.042 310.496C583.466 309.44 583.178 308.144 583.178 306.608C583.178 304.944 583.594 303.456 584.426 302.144C585.258 300.832 586.41 299.808 587.882 299.072C589.354 298.304 591.034 297.92 592.922 297.92C594.746 297.92 596.33 298.272 597.674 298.976C599.05 299.648 600.218 300.528 601.178 301.616C602.138 302.672 602.89 303.792 603.434 304.976L599.93 306.992C599.514 306.16 598.986 305.344 598.346 304.544C597.706 303.744 596.922 303.088 595.994 302.576C595.098 302.064 593.994 301.808 592.682 301.808C590.858 301.808 589.53 302.256 588.698 303.152C587.866 304.016 587.45 304.992 587.45 306.08C587.45 307.488 588.01 308.72 589.13 309.776C590.25 310.832 592.282 311.872 595.226 312.896C596.122 313.216 597.066 313.632 598.058 314.144C599.05 314.656 599.962 315.312 600.794 316.112C601.658 316.88 602.362 317.824 602.906 318.944C603.45 320.032 603.722 321.344 603.722 322.88C603.722 324.832 603.226 326.528 602.234 327.968C601.274 329.408 600.01 330.528 598.442 331.328C596.874 332.096 595.194 332.48 593.402 332.48C591.578 332.48 589.882 332.096 588.314 331.328C586.778 330.528 585.418 329.488 584.234 328.208C583.082 326.896 582.138 325.504 581.402 324.032L584.666 321.824ZM619.795 332H609.715V298.4H619.795C623.059 298.4 625.955 299.104 628.483 300.512C631.011 301.92 632.995 303.888 634.435 306.416C635.875 308.912 636.595 311.84 636.595 315.2C636.595 318.56 635.875 321.504 634.435 324.032C632.995 326.528 631.011 328.48 628.483 329.888C625.955 331.296 623.059 332 619.795 332ZM619.795 302.48H613.795V327.92H619.795C622.323 327.92 624.531 327.408 626.419 326.384C628.339 325.328 629.827 323.856 630.883 321.968C631.971 320.048 632.515 317.792 632.515 315.2C632.515 312.576 631.971 310.32 630.883 308.432C629.827 306.544 628.339 305.088 626.419 304.064C624.531 303.008 622.323 302.48 619.795 302.48ZM643.54 341.6H639.94C641.636 337.984 642.852 334.176 643.588 330.176C644.356 326.176 644.74 322.144 644.74 318.08C644.74 313.984 644.356 309.936 643.588 305.936C642.852 301.936 641.636 298.144 639.94 294.56H643.54C645.46 298.144 646.852 301.936 647.716 305.936C648.612 309.936 649.06 313.984 649.06 318.08C649.06 322.144 648.612 326.176 647.716 330.176C646.852 334.176 645.46 337.984 643.54 341.6Z" fill="#AC3791"/>
<defs>
<filter id="filter0_d" x="0" y="0" width="1248" height="501" filterUnits="userSpaceOnUse" color-interpolation-filters="sRGB">
<feFlood flood-opacity="0" result="BackgroundImageFix"/>
<feColorMatrix in="SourceAlpha" type="matrix" values="0 0 0 0 0 0 0 0 0 0 0 0 0 0 0 0 0 0 127 0"/>
<feOffset dx="4" dy="4"/>
<feGaussianBlur stdDeviation="2"/>
<feColorMatrix type="matrix" values="0 0 0 0 0 0 0 0 0 0 0 0 0 0 0 0 0 0 0.25 0"/>
<feBlend mode="normal" in2="BackgroundImageFix" result="effect1_dropShadow"/>
<feBlend mode="normal" in="SourceGraphic" in2="effect1_dropShadow" result="shape"/>
</filter>
<linearGradient id="paint0_linear" x1="28.9477" y1="56.1472" x2="845.269" y2="833.859" gradientUnits="userSpaceOnUse">
<stop stop-color="#98DCFC"/>
<stop offset="1" stop-color="#FDF1C5"/>
</linearGradient>
</defs>
</svg>
