<svg width="1248" height="501" viewBox="0 0 1248 501" fill="none" xmlns="http://www.w3.org/2000/svg">
<g filter="url(#filter0_d)">
<rect width="1240" height="493" rx="10" fill="white"/>
</g>
<path d="M717.463 306.805C821.192 224.546 1109.04 396.66 1240 493H0V0C95.3735 7.31811 294.505 46.0207 328.045 142.286C369.969 262.618 587.801 409.629 717.463 306.805Z" fill="url(#paint0_linear)" fill-opacity="0.9"/>
<path d="M89.92 171.44H85.36L90.16 160.4H92.8L89.92 171.44ZM99.52 171.44H94.96L99.76 160.4H102.4L99.52 171.44ZM102.123 192.08C102.123 191.344 102.379 190.72 102.891 190.208C103.435 189.696 104.059 189.44 104.763 189.44C105.499 189.44 106.123 189.696 106.635 190.208C107.147 190.72 107.403 191.344 107.403 192.08C107.403 192.784 107.147 193.408 106.635 193.952C106.123 194.464 105.499 194.72 104.763 194.72C104.059 194.72 103.435 194.464 102.891 193.952C102.379 193.408 102.123 192.784 102.123 192.08ZM116.513 192.08C116.513 191.344 116.769 190.72 117.281 190.208C117.825 189.696 118.449 189.44 119.153 189.44C119.889 189.44 120.513 189.696 121.025 190.208C121.537 190.72 121.793 191.344 121.793 192.08C121.793 192.784 121.537 193.408 121.025 193.952C120.513 194.464 119.889 194.72 119.153 194.72C118.449 194.72 117.825 194.464 117.281 193.952C116.769 193.408 116.513 192.784 116.513 192.08ZM130.904 192.08C130.904 191.344 131.16 190.72 131.672 190.208C132.216 189.696 132.84 189.44 133.544 189.44C134.28 189.44 134.904 189.696 135.416 190.208C135.928 190.72 136.184 191.344 136.184 192.08C136.184 192.784 135.928 193.408 135.416 193.952C134.904 194.464 134.28 194.72 133.544 194.72C132.84 194.72 132.216 194.464 131.672 193.952C131.16 193.408 130.904 192.784 130.904 192.08ZM145.486 177.008L143.614 174.176C144.446 173.568 145.582 172.96 147.022 172.352C148.494 171.744 150.254 171.44 152.302 171.44C154.862 171.44 156.942 172.032 158.542 173.216C160.142 174.368 160.942 176.016 160.942 178.16V194H157.102V191.024C156.398 192.176 155.342 193.04 153.934 193.616C152.526 194.192 151.15 194.48 149.806 194.48C148.462 194.48 147.198 194.208 146.014 193.664C144.862 193.088 143.934 192.272 143.23 191.216C142.526 190.16 142.174 188.88 142.174 187.376C142.174 185.232 142.926 183.52 144.43 182.24C145.966 180.928 148.094 180.272 150.814 180.272C152.286 180.272 153.534 180.448 154.558 180.8C155.614 181.12 156.462 181.488 157.102 181.904V178.688C157.102 177.184 156.606 176.16 155.614 175.616C154.654 175.072 153.486 174.8 152.11 174.8C150.446 174.8 149.054 175.072 147.934 175.616C146.814 176.16 145.998 176.624 145.486 177.008ZM146.062 187.184C146.062 188.464 146.494 189.456 147.358 190.16C148.254 190.832 149.406 191.168 150.814 191.168C152.574 191.168 154.062 190.64 155.278 189.584C156.494 188.528 157.102 187.12 157.102 185.36V184.544C156.206 184.096 155.294 183.776 154.366 183.584C153.438 183.392 152.462 183.296 151.438 183.296C149.582 183.296 148.222 183.648 147.358 184.352C146.494 185.024 146.062 185.968 146.062 187.184ZM169.172 182.96C169.172 184.496 169.492 185.856 170.132 187.04C170.804 188.224 171.7 189.168 172.82 189.872C173.972 190.544 175.268 190.88 176.708 190.88C178.5 190.88 180.1 190.48 181.508 189.68C182.916 188.88 183.876 187.936 184.388 186.848V191.648C183.62 192.544 182.516 193.248 181.076 193.76C179.668 194.24 178.212 194.48 176.708 194.48C174.564 194.48 172.628 193.984 170.9 192.992C169.172 192 167.796 190.64 166.772 188.912C165.78 187.152 165.284 185.168 165.284 182.96C165.284 180.72 165.78 178.736 166.772 177.008C167.796 175.28 169.172 173.92 170.9 172.928C172.628 171.936 174.564 171.44 176.708 171.44C178.212 171.44 179.668 171.696 181.076 172.208C182.516 172.688 183.62 173.376 184.388 174.272V179.072C183.876 177.984 182.916 177.04 181.508 176.24C180.1 175.44 178.5 175.04 176.708 175.04C175.268 175.04 173.972 175.376 172.82 176.048C171.7 176.72 170.804 177.664 170.132 178.88C169.492 180.064 169.172 181.424 169.172 182.96ZM187.006 171.92H190.606V164.24H194.446V171.92H198.046V175.52H194.446V194H190.606V175.52H187.006V171.92ZM201.897 162.8C201.897 162.064 202.153 161.44 202.665 160.928C203.209 160.416 203.833 160.16 204.537 160.16C205.273 160.16 205.897 160.416 206.409 160.928C206.921 161.44 207.177 162.064 207.177 162.8C207.177 163.504 206.921 164.128 206.409 164.672C205.897 165.184 205.273 165.44 204.537 165.44C203.833 165.44 203.209 165.184 202.665 164.672C202.153 164.128 201.897 163.504 201.897 162.8ZM202.617 171.92H206.457V194H202.617V171.92ZM210.766 171.92H215.086L221.326 187.52L227.566 171.92H231.886L221.326 195.68L210.766 171.92ZM235.506 162.8C235.506 162.064 235.762 161.44 236.274 160.928C236.818 160.416 237.442 160.16 238.146 160.16C238.882 160.16 239.506 160.416 240.018 160.928C240.53 161.44 240.786 162.064 240.786 162.8C240.786 163.504 240.53 164.128 240.018 164.672C239.506 165.184 238.882 165.44 238.146 165.44C237.442 165.44 236.818 165.184 236.274 164.672C235.762 164.128 235.506 163.504 235.506 162.8ZM236.226 171.92H240.066V194H236.226V171.92ZM244.615 171.92H248.215V164.24H252.055V171.92H255.655V175.52H252.055V194H248.215V175.52H244.615V171.92ZM259.506 162.8C259.506 162.064 259.762 161.44 260.274 160.928C260.818 160.416 261.442 160.16 262.146 160.16C262.882 160.16 263.506 160.416 264.018 160.928C264.53 161.44 264.786 162.064 264.786 162.8C264.786 163.504 264.53 164.128 264.018 164.672C263.506 165.184 262.882 165.44 262.146 165.44C261.442 165.44 260.818 165.184 260.274 164.672C259.762 164.128 259.506 163.504 259.506 162.8ZM260.226 171.92H264.066V194H260.226V171.92ZM280.519 194.48C278.471 194.48 276.647 194 275.047 193.04C273.479 192.048 272.247 190.688 271.351 188.96C270.487 187.232 270.055 185.232 270.055 182.96C270.055 180.656 270.503 178.64 271.399 176.912C272.327 175.184 273.607 173.84 275.239 172.88C276.903 171.92 278.823 171.44 280.999 171.44C284.231 171.44 286.775 172.448 288.631 174.464C290.487 176.48 291.415 179.248 291.415 182.768C291.415 182.992 291.399 183.232 291.367 183.488C291.367 183.712 291.367 183.856 291.367 183.92H273.991C274.151 186.128 274.839 187.84 276.055 189.056C277.271 190.272 278.919 190.88 280.999 190.88C284.007 190.88 286.311 189.552 287.911 186.896L291.031 188.864C288.727 192.608 285.223 194.48 280.519 194.48ZM280.999 174.8C279.111 174.8 277.575 175.312 276.391 176.336C275.207 177.328 274.455 178.768 274.135 180.656H287.239C287.111 178.896 286.471 177.488 285.319 176.432C284.199 175.344 282.759 174.8 280.999 174.8ZM297.59 187.232C298.262 188.256 299.078 189.136 300.038 189.872C301.03 190.608 302.214 190.976 303.59 190.976C304.678 190.976 305.526 190.736 306.134 190.256C306.774 189.744 307.094 189.056 307.094 188.192C307.094 187.424 306.838 186.784 306.326 186.272C305.846 185.728 305.222 185.28 304.454 184.928C303.686 184.544 302.87 184.192 302.006 183.872C301.046 183.488 300.07 183.04 299.078 182.528C298.118 181.984 297.302 181.296 296.63 180.464C295.99 179.6 295.67 178.528 295.67 177.248C295.67 175.936 296.006 174.848 296.678 173.984C297.382 173.12 298.278 172.48 299.366 172.064C300.486 171.648 301.638 171.44 302.822 171.44C304.582 171.44 306.182 171.856 307.622 172.688C309.062 173.52 310.118 174.544 310.79 175.76L307.718 177.728C307.11 176.896 306.342 176.208 305.414 175.664C304.518 175.12 303.494 174.848 302.342 174.848C301.542 174.848 300.854 175.024 300.278 175.376C299.702 175.728 299.414 176.272 299.414 177.008C299.414 177.904 299.878 178.64 300.806 179.216C301.766 179.76 302.838 180.272 304.022 180.752C305.302 181.264 306.47 181.824 307.526 182.432C308.582 183.008 309.414 183.712 310.022 184.544C310.662 185.376 310.982 186.448 310.982 187.76C310.982 189.68 310.278 191.28 308.87 192.56C307.494 193.84 305.67 194.48 303.398 194.48C301.926 194.48 300.598 194.224 299.414 193.712C298.23 193.168 297.222 192.48 296.39 191.648C295.59 190.816 294.982 189.968 294.566 189.104L297.59 187.232ZM331.58 177.008L329.708 174.176C330.54 173.568 331.676 172.96 333.116 172.352C334.588 171.744 336.348 171.44 338.396 171.44C340.956 171.44 343.036 172.032 344.636 173.216C346.236 174.368 347.036 176.016 347.036 178.16V194H343.196V191.024C342.492 192.176 341.436 193.04 340.028 193.616C338.62 194.192 337.244 194.48 335.9 194.48C334.556 194.48 333.292 194.208 332.108 193.664C330.956 193.088 330.028 192.272 329.324 191.216C328.62 190.16 328.268 188.88 328.268 187.376C328.268 185.232 329.02 183.52 330.524 182.24C332.06 180.928 334.188 180.272 336.908 180.272C338.38 180.272 339.628 180.448 340.652 180.8C341.708 181.12 342.556 181.488 343.196 181.904V178.688C343.196 177.184 342.7 176.16 341.708 175.616C340.748 175.072 339.58 174.8 338.204 174.8C336.54 174.8 335.148 175.072 334.028 175.616C332.908 176.16 332.092 176.624 331.58 177.008ZM332.156 187.184C332.156 188.464 332.588 189.456 333.452 190.16C334.348 190.832 335.5 191.168 336.908 191.168C338.668 191.168 340.156 190.64 341.372 189.584C342.588 188.528 343.196 187.12 343.196 185.36V184.544C342.3 184.096 341.388 183.776 340.46 183.584C339.532 183.392 338.556 183.296 337.532 183.296C335.676 183.296 334.316 183.648 333.452 184.352C332.588 185.024 332.156 185.968 332.156 187.184ZM364.049 176.144C363.538 175.76 363.074 175.488 362.658 175.328C362.242 175.136 361.714 175.04 361.074 175.04C359.634 175.04 358.658 175.568 358.146 176.624C357.634 177.648 357.378 178.96 357.378 180.56V194H353.538V171.92H357.378V174.464C357.986 173.536 358.706 172.8 359.538 172.256C360.37 171.712 361.202 171.44 362.034 171.44C362.834 171.44 363.57 171.552 364.242 171.776C364.946 171.968 365.586 172.368 366.162 172.976L364.049 176.144ZM367.368 182.96C367.368 180.72 367.863 178.736 368.855 177.008C369.88 175.28 371.256 173.92 372.984 172.928C374.712 171.936 376.648 171.44 378.792 171.44C380.968 171.44 382.904 171.936 384.6 172.928C386.328 173.92 387.688 175.28 388.68 177.008C389.704 178.736 390.216 180.72 390.216 182.96C390.216 185.168 389.704 187.152 388.68 188.912C387.688 190.64 386.328 192 384.6 192.992C382.904 193.984 380.968 194.48 378.792 194.48C376.648 194.48 374.712 193.984 372.984 192.992C371.256 192 369.88 190.64 368.855 188.912C367.863 187.152 367.368 185.168 367.368 182.96ZM371.256 182.96C371.256 184.496 371.576 185.856 372.216 187.04C372.888 188.224 373.784 189.168 374.904 189.872C376.056 190.544 377.352 190.88 378.792 190.88C380.232 190.88 381.512 190.544 382.632 189.872C383.784 189.168 384.68 188.224 385.32 187.04C385.992 185.856 386.328 184.496 386.328 182.96C386.328 181.424 385.992 180.064 385.32 178.88C384.68 177.664 383.784 176.72 382.632 176.048C381.512 175.376 380.232 175.04 378.792 175.04C377.352 175.04 376.056 175.376 374.904 176.048C373.784 176.72 372.888 177.664 372.216 178.88C371.576 180.064 371.256 181.424 371.256 182.96ZM399.331 185.36C399.331 187.12 399.731 188.48 400.531 189.44C401.331 190.4 402.499 190.88 404.035 190.88C405.731 190.88 407.091 190.368 408.115 189.344C409.139 188.32 409.651 186.992 409.651 185.36V171.92H413.491V194H409.651V190.544C408.179 193.168 405.987 194.48 403.075 194.48C400.771 194.48 398.931 193.696 397.555 192.128C396.179 190.56 395.491 188.464 395.491 185.84V171.92H399.331V185.36ZM434.869 180.56C434.869 176.88 433.301 175.04 430.165 175.04C428.501 175.04 427.141 175.552 426.085 176.576C425.061 177.6 424.549 178.928 424.549 180.56V194H420.709V171.92H424.549V175.376C425.989 172.752 428.181 171.44 431.125 171.44C433.461 171.44 435.301 172.224 436.645 173.792C438.021 175.328 438.709 177.424 438.709 180.08V194H434.869V180.56ZM444.008 182.96C444.008 180.56 444.504 178.512 445.496 176.816C446.488 175.088 447.816 173.76 449.48 172.832C451.144 171.904 452.968 171.44 454.952 171.44C456.584 171.44 458.04 171.808 459.32 172.544C460.632 173.28 461.688 174.336 462.488 175.712V156.56H466.328V194H462.488V190.208C461.688 191.584 460.632 192.64 459.32 193.376C458.04 194.112 456.584 194.48 454.952 194.48C452.968 194.48 451.144 194.016 449.48 193.088C447.816 192.16 446.488 190.832 445.496 189.104C444.504 187.376 444.008 185.328 444.008 182.96ZM447.896 182.96C447.896 184.656 448.232 186.096 448.904 187.28C449.608 188.464 450.536 189.36 451.688 189.968C452.84 190.576 454.088 190.88 455.432 190.88C456.552 190.88 457.656 190.576 458.744 189.968C459.832 189.36 460.728 188.464 461.432 187.28C462.136 186.096 462.488 184.656 462.488 182.96C462.488 181.264 462.136 179.824 461.432 178.64C460.728 177.456 459.832 176.56 458.744 175.952C457.656 175.344 456.552 175.04 455.432 175.04C454.088 175.04 452.84 175.344 451.688 175.952C450.536 176.56 449.608 177.456 448.904 178.64C448.232 179.824 447.896 181.264 447.896 182.96ZM496.238 194.48C494.19 194.48 492.366 194 490.766 193.04C489.198 192.048 487.966 190.688 487.07 188.96C486.206 187.232 485.774 185.232 485.774 182.96C485.774 180.656 486.222 178.64 487.118 176.912C488.046 175.184 489.326 173.84 490.958 172.88C492.622 171.92 494.542 171.44 496.718 171.44C499.95 171.44 502.494 172.448 504.35 174.464C506.206 176.48 507.134 179.248 507.134 182.768C507.134 182.992 507.118 183.232 507.086 183.488C507.086 183.712 507.086 183.856 507.086 183.92H489.71C489.87 186.128 490.558 187.84 491.774 189.056C492.99 190.272 494.638 190.88 496.718 190.88C499.726 190.88 502.03 189.552 503.63 186.896L506.75 188.864C504.446 192.608 500.942 194.48 496.238 194.48ZM496.718 174.8C494.83 174.8 493.294 175.312 492.11 176.336C490.926 177.328 490.174 178.768 489.854 180.656H502.958C502.83 178.896 502.19 177.488 501.038 176.432C499.918 175.344 498.478 174.8 496.718 174.8ZM542.637 180.08V194H538.797V180.56C538.797 178.672 538.445 177.28 537.741 176.384C537.069 175.488 536.013 175.04 534.573 175.04C533.005 175.04 531.757 175.536 530.829 176.528C529.901 177.488 529.437 178.832 529.437 180.56V194H525.597V180.56C525.597 178.672 525.245 177.28 524.541 176.384C523.869 175.488 522.813 175.04 521.373 175.04C519.805 175.04 518.557 175.536 517.629 176.528C516.701 177.488 516.237 178.832 516.237 180.56V194H512.397V171.92H516.237V175.136C517.549 172.672 519.581 171.44 522.333 171.44C523.869 171.44 525.181 171.808 526.269 172.544C527.389 173.248 528.205 174.256 528.717 175.568C530.253 172.816 532.525 171.44 535.533 171.44C537.805 171.44 539.549 172.192 540.765 173.696C542.013 175.2 542.637 177.328 542.637 180.08ZM547.93 182.96C547.93 180.72 548.426 178.736 549.418 177.008C550.442 175.28 551.818 173.92 553.546 172.928C555.274 171.936 557.21 171.44 559.354 171.44C561.53 171.44 563.466 171.936 565.162 172.928C566.89 173.92 568.25 175.28 569.242 177.008C570.266 178.736 570.778 180.72 570.778 182.96C570.778 185.168 570.266 187.152 569.242 188.912C568.25 190.64 566.89 192 565.162 192.992C563.466 193.984 561.53 194.48 559.354 194.48C557.21 194.48 555.274 193.984 553.546 192.992C551.818 192 550.442 190.64 549.418 188.912C548.426 187.152 547.93 185.168 547.93 182.96ZM551.818 182.96C551.818 184.496 552.138 185.856 552.778 187.04C553.45 188.224 554.346 189.168 555.466 189.872C556.618 190.544 557.914 190.88 559.354 190.88C560.794 190.88 562.074 190.544 563.194 189.872C564.346 189.168 565.242 188.224 565.882 187.04C566.554 185.856 566.89 184.496 566.89 182.96C566.89 181.424 566.554 180.064 565.882 178.88C565.242 177.664 564.346 176.72 563.194 176.048C562.074 175.376 560.794 175.04 559.354 175.04C557.914 175.04 556.618 175.376 555.466 176.048C554.346 176.72 553.45 177.664 552.778 178.88C552.138 180.064 551.818 181.424 551.818 182.96ZM572.693 171.92H576.293V164.24H580.133V171.92H583.733V175.52H580.133V194H576.293V175.52H572.693V171.92ZM587.584 162.8C587.584 162.064 587.84 161.44 588.352 160.928C588.896 160.416 589.52 160.16 590.224 160.16C590.96 160.16 591.584 160.416 592.096 160.928C592.608 161.44 592.864 162.064 592.864 162.8C592.864 163.504 592.608 164.128 592.096 164.672C591.584 165.184 590.96 165.44 590.224 165.44C589.52 165.44 588.896 165.184 588.352 164.672C587.84 164.128 587.584 163.504 587.584 162.8ZM588.304 171.92H592.144V194H588.304V171.92ZM598.133 182.96C598.133 180.72 598.629 178.736 599.621 177.008C600.645 175.28 602.021 173.92 603.749 172.928C605.477 171.936 607.413 171.44 609.557 171.44C611.733 171.44 613.669 171.936 615.365 172.928C617.093 173.92 618.453 175.28 619.445 177.008C620.469 178.736 620.981 180.72 620.981 182.96C620.981 185.168 620.469 187.152 619.445 188.912C618.453 190.64 617.093 192 615.365 192.992C613.669 193.984 611.733 194.48 609.557 194.48C607.413 194.48 605.477 193.984 603.749 192.992C602.021 192 600.645 190.64 599.621 188.912C598.629 187.152 598.133 185.168 598.133 182.96ZM602.021 182.96C602.021 184.496 602.341 185.856 602.981 187.04C603.653 188.224 604.549 189.168 605.669 189.872C606.821 190.544 608.117 190.88 609.557 190.88C610.997 190.88 612.277 190.544 613.397 189.872C614.549 189.168 615.445 188.224 616.085 187.04C616.757 185.856 617.093 184.496 617.093 182.96C617.093 181.424 616.757 180.064 616.085 178.88C615.445 177.664 614.549 176.72 613.397 176.048C612.277 175.376 610.997 175.04 609.557 175.04C608.117 175.04 606.821 175.376 605.669 176.048C604.549 176.72 603.653 177.664 602.981 178.88C602.341 180.064 602.021 181.424 602.021 182.96ZM640.416 180.56C640.416 176.88 638.848 175.04 635.712 175.04C634.048 175.04 632.688 175.552 631.632 176.576C630.608 177.6 630.096 178.928 630.096 180.56V194H626.256V171.92H630.096V175.376C631.536 172.752 633.728 171.44 636.672 171.44C639.008 171.44 640.848 172.224 642.192 173.792C643.568 175.328 644.256 177.424 644.256 180.08V194H640.416V180.56ZM654.979 188.72L658.819 190.16L653.539 202.16L650.755 201.152L654.979 188.72ZM679.143 195.44H683.031C683.031 196.496 683.319 197.472 683.895 198.368C684.471 199.296 685.287 200.032 686.343 200.576C687.399 201.152 688.647 201.44 690.087 201.44C691.207 201.44 692.311 201.168 693.399 200.624C694.487 200.08 695.383 199.216 696.087 198.032C696.823 196.88 697.191 195.376 697.191 193.52V190.208C696.391 191.584 695.335 192.64 694.023 193.376C692.743 194.112 691.287 194.48 689.655 194.48C687.671 194.48 685.847 194.016 684.183 193.088C682.519 192.16 681.191 190.832 680.199 189.104C679.207 187.376 678.711 185.328 678.711 182.96C678.711 180.56 679.207 178.512 680.199 176.816C681.191 175.088 682.519 173.76 684.183 172.832C685.847 171.904 687.671 171.44 689.655 171.44C691.287 171.44 692.743 171.808 694.023 172.544C695.335 173.28 696.391 174.336 697.191 175.712V171.92H701.031V193.52C701.031 196.048 700.503 198.16 699.447 199.856C698.391 201.584 697.031 202.88 695.367 203.744C693.703 204.608 691.943 205.04 690.087 205.04C687.943 205.04 686.039 204.64 684.375 203.84C682.743 203.04 681.463 201.904 680.535 200.432C679.607 198.992 679.143 197.328 679.143 195.44ZM682.599 182.96C682.599 184.656 682.935 186.096 683.607 187.28C684.311 188.464 685.239 189.36 686.391 189.968C687.543 190.576 688.791 190.88 690.135 190.88C691.255 190.88 692.359 190.576 693.447 189.968C694.535 189.36 695.431 188.464 696.135 187.28C696.839 186.096 697.191 184.656 697.191 182.96C697.191 181.264 696.839 179.824 696.135 178.64C695.431 177.456 694.535 176.56 693.447 175.952C692.359 175.344 691.255 175.04 690.135 175.04C688.791 175.04 687.543 175.344 686.391 175.952C685.239 176.56 684.311 177.456 683.607 178.64C682.935 179.824 682.599 181.264 682.599 182.96ZM718.518 176.144C718.006 175.76 717.542 175.488 717.126 175.328C716.71 175.136 716.182 175.04 715.542 175.04C714.102 175.04 713.126 175.568 712.614 176.624C712.102 177.648 711.846 178.96 711.846 180.56V194H708.006V171.92H711.846V174.464C712.454 173.536 713.174 172.8 714.006 172.256C714.838 171.712 715.67 171.44 716.502 171.44C717.302 171.44 718.038 171.552 718.71 171.776C719.414 171.968 720.054 172.368 720.63 172.976L718.518 176.144ZM721.836 182.96C721.836 180.72 722.332 178.736 723.324 177.008C724.348 175.28 725.724 173.92 727.452 172.928C729.18 171.936 731.116 171.44 733.26 171.44C735.436 171.44 737.372 171.936 739.068 172.928C740.796 173.92 742.156 175.28 743.148 177.008C744.172 178.736 744.684 180.72 744.684 182.96C744.684 185.168 744.172 187.152 743.148 188.912C742.156 190.64 740.796 192 739.068 192.992C737.372 193.984 735.436 194.48 733.26 194.48C731.116 194.48 729.18 193.984 727.452 192.992C725.724 192 724.348 190.64 723.324 188.912C722.332 187.152 721.836 185.168 721.836 182.96ZM725.724 182.96C725.724 184.496 726.044 185.856 726.684 187.04C727.356 188.224 728.252 189.168 729.372 189.872C730.524 190.544 731.82 190.88 733.26 190.88C734.7 190.88 735.98 190.544 737.1 189.872C738.252 189.168 739.148 188.224 739.788 187.04C740.46 185.856 740.796 184.496 740.796 182.96C740.796 181.424 740.46 180.064 739.788 178.88C739.148 177.664 738.252 176.72 737.1 176.048C735.98 175.376 734.7 175.04 733.26 175.04C731.82 175.04 730.524 175.376 729.372 176.048C728.252 176.72 727.356 177.664 726.684 178.88C726.044 180.064 725.724 181.424 725.724 182.96ZM745.896 171.92H750.216L755.736 186.272L761.736 170.24L768.168 186.368L773.736 171.92H778.056L768.456 195.68L761.784 179.6L755.496 195.68L745.896 171.92ZM778.521 171.92H782.121V164.24H785.961V171.92H789.561V175.52H785.961V194H782.121V175.52H778.521V171.92ZM807.573 180.56C807.573 176.88 806.005 175.04 802.869 175.04C801.205 175.04 799.845 175.568 798.789 176.624C797.765 177.648 797.253 178.96 797.253 180.56V194H793.413V156.56H797.253V175.424C797.925 174.208 798.821 173.248 799.941 172.544C801.093 171.808 802.389 171.44 803.829 171.44C806.101 171.44 807.925 172.176 809.301 173.648C810.709 175.088 811.413 177.232 811.413 180.08V194H807.573V180.56ZM863.262 180.08V194H859.422V180.56C859.422 178.672 859.07 177.28 858.366 176.384C857.694 175.488 856.638 175.04 855.198 175.04C853.63 175.04 852.382 175.536 851.454 176.528C850.526 177.488 850.062 178.832 850.062 180.56V194H846.222V180.56C846.222 178.672 845.87 177.28 845.166 176.384C844.494 175.488 843.438 175.04 841.998 175.04C840.43 175.04 839.182 175.536 838.254 176.528C837.326 177.488 836.862 178.832 836.862 180.56V194H833.022V171.92H836.862V175.136C838.174 172.672 840.206 171.44 842.958 171.44C844.494 171.44 845.806 171.808 846.894 172.544C848.014 173.248 848.83 174.256 849.342 175.568C850.878 172.816 853.15 171.44 856.158 171.44C858.43 171.44 860.174 172.192 861.39 173.696C862.638 175.2 863.262 177.328 863.262 180.08ZM870.475 162.8C870.475 162.064 870.731 161.44 871.243 160.928C871.787 160.416 872.411 160.16 873.115 160.16C873.851 160.16 874.475 160.416 874.987 160.928C875.499 161.44 875.755 162.064 875.755 162.8C875.755 163.504 875.499 164.128 874.987 164.672C874.475 165.184 873.851 165.44 873.115 165.44C872.411 165.44 871.787 165.184 871.243 164.672C870.731 164.128 870.475 163.504 870.475 162.8ZM871.195 171.92H875.035V194H871.195V171.92ZM897.104 180.56C897.104 176.88 895.536 175.04 892.4 175.04C890.736 175.04 889.376 175.552 888.32 176.576C887.296 177.6 886.784 178.928 886.784 180.56V194H882.944V171.92H886.784V175.376C888.224 172.752 890.416 171.44 893.36 171.44C895.696 171.44 897.536 172.224 898.88 173.792C900.256 175.328 900.944 177.424 900.944 180.08V194H897.104V180.56ZM906.243 182.96C906.243 180.56 906.738 178.512 907.73 176.816C908.723 175.088 910.051 173.76 911.715 172.832C913.379 171.904 915.203 171.44 917.187 171.44C918.819 171.44 920.275 171.808 921.555 172.544C922.867 173.28 923.923 174.336 924.723 175.712V156.56H928.562V194H924.723V190.208C923.923 191.584 922.867 192.64 921.555 193.376C920.275 194.112 918.819 194.48 917.187 194.48C915.203 194.48 913.379 194.016 911.715 193.088C910.051 192.16 908.723 190.832 907.73 189.104C906.738 187.376 906.243 185.328 906.243 182.96ZM910.131 182.96C910.131 184.656 910.467 186.096 911.139 187.28C911.843 188.464 912.771 189.36 913.923 189.968C915.075 190.576 916.323 190.88 917.667 190.88C918.787 190.88 919.891 190.576 920.979 189.968C922.067 189.36 922.963 188.464 923.667 187.28C924.371 186.096 924.723 184.656 924.723 182.96C924.723 181.264 924.371 179.824 923.667 178.64C922.963 177.456 922.067 176.56 920.979 175.952C919.891 175.344 918.787 175.04 917.667 175.04C916.323 175.04 915.075 175.344 913.923 175.952C912.771 176.56 911.843 177.456 911.139 178.64C910.467 179.824 910.131 181.264 910.131 182.96ZM936.45 187.232C937.122 188.256 937.938 189.136 938.898 189.872C939.89 190.608 941.074 190.976 942.45 190.976C943.538 190.976 944.386 190.736 944.994 190.256C945.634 189.744 945.954 189.056 945.954 188.192C945.954 187.424 945.698 186.784 945.186 186.272C944.706 185.728 944.082 185.28 943.314 184.928C942.546 184.544 941.73 184.192 940.866 183.872C939.906 183.488 938.93 183.04 937.938 182.528C936.978 181.984 936.162 181.296 935.49 180.464C934.85 179.6 934.53 178.528 934.53 177.248C934.53 175.936 934.866 174.848 935.538 173.984C936.242 173.12 937.138 172.48 938.226 172.064C939.346 171.648 940.498 171.44 941.682 171.44C943.442 171.44 945.042 171.856 946.482 172.688C947.922 173.52 948.978 174.544 949.65 175.76L946.578 177.728C945.97 176.896 945.202 176.208 944.273 175.664C943.378 175.12 942.354 174.848 941.202 174.848C940.402 174.848 939.714 175.024 939.138 175.376C938.562 175.728 938.273 176.272 938.273 177.008C938.273 177.904 938.738 178.64 939.666 179.216C940.626 179.76 941.698 180.272 942.882 180.752C944.162 181.264 945.33 181.824 946.386 182.432C947.442 183.008 948.274 183.712 948.882 184.544C949.522 185.376 949.842 186.448 949.842 187.76C949.842 189.68 949.138 191.28 947.73 192.56C946.354 193.84 944.53 194.48 942.258 194.48C940.786 194.48 939.458 194.224 938.273 193.712C937.09 193.168 936.082 192.48 935.25 191.648C934.45 190.816 933.842 189.968 933.426 189.104L936.45 187.232ZM963.441 194.48C961.393 194.48 959.569 194 957.969 193.04C956.401 192.048 955.169 190.688 954.273 188.96C953.409 187.232 952.977 185.232 952.977 182.96C952.977 180.656 953.425 178.64 954.321 176.912C955.249 175.184 956.529 173.84 958.161 172.88C959.825 171.92 961.745 171.44 963.921 171.44C967.153 171.44 969.697 172.448 971.553 174.464C973.409 176.48 974.337 179.248 974.337 182.768C974.337 182.992 974.321 183.232 974.289 183.488C974.289 183.712 974.289 183.856 974.289 183.92H956.913C957.073 186.128 957.761 187.84 958.977 189.056C960.193 190.272 961.841 190.88 963.921 190.88C966.929 190.88 969.233 189.552 970.833 186.896L973.953 188.864C971.649 192.608 968.145 194.48 963.441 194.48ZM963.921 174.8C962.033 174.8 960.497 175.312 959.313 176.336C958.129 177.328 957.377 178.768 957.057 180.656H970.161C970.033 178.896 969.393 177.488 968.241 176.432C967.121 175.344 965.681 174.8 963.921 174.8ZM976.24 171.92H979.84V164.24H983.68V171.92H987.28V175.52H983.68V194H979.84V175.52H976.24V171.92ZM992.091 192.08C992.091 191.344 992.347 190.72 992.859 190.208C993.403 189.696 994.027 189.44 994.731 189.44C995.467 189.44 996.091 189.696 996.603 190.208C997.115 190.72 997.371 191.344 997.371 192.08C997.371 192.784 997.115 193.408 996.603 193.952C996.091 194.464 995.467 194.72 994.731 194.72C994.027 194.72 993.403 194.464 992.859 193.952C992.347 193.408 992.091 192.784 992.091 192.08ZM1006.48 192.08C1006.48 191.344 1006.74 190.72 1007.25 190.208C1007.79 189.696 1008.42 189.44 1009.12 189.44C1009.86 189.44 1010.48 189.696 1010.99 190.208C1011.51 190.72 1011.76 191.344 1011.76 192.08C1011.76 192.784 1011.51 193.408 1010.99 193.952C1010.48 194.464 1009.86 194.72 1009.12 194.72C1008.42 194.72 1007.79 194.464 1007.25 193.952C1006.74 193.408 1006.48 192.784 1006.48 192.08ZM1020.87 192.08C1020.87 191.344 1021.13 190.72 1021.64 190.208C1022.18 189.696 1022.81 189.44 1023.51 189.44C1024.25 189.44 1024.87 189.696 1025.38 190.208C1025.9 190.72 1026.15 191.344 1026.15 192.08C1026.15 192.784 1025.9 193.408 1025.38 193.952C1024.87 194.464 1024.25 194.72 1023.51 194.72C1022.81 194.72 1022.18 194.464 1021.64 193.952C1021.13 193.408 1020.87 192.784 1020.87 192.08ZM1030.94 171.92H1034.54V164.24H1038.38V171.92H1041.98V175.52H1038.38V194H1034.54V175.52H1030.94V171.92ZM1059.99 180.56C1059.99 176.88 1058.43 175.04 1055.29 175.04C1053.63 175.04 1052.27 175.568 1051.21 176.624C1050.19 177.648 1049.67 178.96 1049.67 180.56V194H1045.83V156.56H1049.67V175.424C1050.35 174.208 1051.24 173.248 1052.36 172.544C1053.51 171.808 1054.81 171.44 1056.25 171.44C1058.52 171.44 1060.35 172.176 1061.72 173.648C1063.13 175.088 1063.83 177.232 1063.83 180.08V194H1059.99V180.56ZM1069.13 182.96C1069.13 180.72 1069.63 178.736 1070.62 177.008C1071.65 175.28 1073.02 173.92 1074.75 172.928C1076.48 171.936 1078.41 171.44 1080.56 171.44C1082.73 171.44 1084.67 171.936 1086.37 172.928C1088.09 173.92 1089.45 175.28 1090.45 177.008C1091.47 178.736 1091.98 180.72 1091.98 182.96C1091.98 185.168 1091.47 187.152 1090.45 188.912C1089.45 190.64 1088.09 192 1086.37 192.992C1084.67 193.984 1082.73 194.48 1080.56 194.48C1078.41 194.48 1076.48 193.984 1074.75 192.992C1073.02 192 1071.65 190.64 1070.62 188.912C1069.63 187.152 1069.13 185.168 1069.13 182.96ZM1073.02 182.96C1073.02 184.496 1073.34 185.856 1073.98 187.04C1074.65 188.224 1075.55 189.168 1076.67 189.872C1077.82 190.544 1079.12 190.88 1080.56 190.88C1082 190.88 1083.28 190.544 1084.4 189.872C1085.55 189.168 1086.45 188.224 1087.09 187.04C1087.76 185.856 1088.09 184.496 1088.09 182.96C1088.09 181.424 1087.76 180.064 1087.09 178.88C1086.45 177.664 1085.55 176.72 1084.4 176.048C1083.28 175.376 1082 175.04 1080.56 175.04C1079.12 175.04 1077.82 175.376 1076.67 176.048C1075.55 176.72 1074.65 177.664 1073.98 178.88C1073.34 180.064 1073.02 181.424 1073.02 182.96ZM1098.17 187.232C1098.84 188.256 1099.66 189.136 1100.62 189.872C1101.61 190.608 1102.79 190.976 1104.17 190.976C1105.26 190.976 1106.1 190.736 1106.71 190.256C1107.35 189.744 1107.67 189.056 1107.67 188.192C1107.67 187.424 1107.42 186.784 1106.9 186.272C1106.42 185.728 1105.8 185.28 1105.03 184.928C1104.26 184.544 1103.45 184.192 1102.58 183.872C1101.62 183.488 1100.65 183.04 1099.66 182.528C1098.7 181.984 1097.88 181.296 1097.21 180.464C1096.57 179.6 1096.25 178.528 1096.25 177.248C1096.25 175.936 1096.58 174.848 1097.26 173.984C1097.96 173.12 1098.86 172.48 1099.94 172.064C1101.06 171.648 1102.22 171.44 1103.4 171.44C1105.16 171.44 1106.76 171.856 1108.2 172.688C1109.64 173.52 1110.7 174.544 1111.37 175.76L1108.3 177.728C1107.69 176.896 1106.92 176.208 1105.99 175.664C1105.1 175.12 1104.07 174.848 1102.92 174.848C1102.12 174.848 1101.43 175.024 1100.86 175.376C1100.28 175.728 1099.99 176.272 1099.99 177.008C1099.99 177.904 1100.46 178.64 1101.38 179.216C1102.34 179.76 1103.42 180.272 1104.6 180.752C1105.88 181.264 1107.05 181.824 1108.1 182.432C1109.16 183.008 1109.99 183.712 1110.6 184.544C1111.24 185.376 1111.56 186.448 1111.56 187.76C1111.56 189.68 1110.86 191.28 1109.45 192.56C1108.07 193.84 1106.25 194.48 1103.98 194.48C1102.5 194.48 1101.18 194.224 1099.99 193.712C1098.81 193.168 1097.8 192.48 1096.97 191.648C1096.17 190.816 1095.56 189.968 1095.14 189.104L1098.17 187.232ZM1125.16 194.48C1123.11 194.48 1121.29 194 1119.69 193.04C1118.12 192.048 1116.89 190.688 1115.99 188.96C1115.13 187.232 1114.7 185.232 1114.7 182.96C1114.7 180.656 1115.14 178.64 1116.04 176.912C1116.97 175.184 1118.25 173.84 1119.88 172.88C1121.54 171.92 1123.46 171.44 1125.64 171.44C1128.87 171.44 1131.42 172.448 1133.27 174.464C1135.13 176.48 1136.06 179.248 1136.06 182.768C1136.06 182.992 1136.04 183.232 1136.01 183.488C1136.01 183.712 1136.01 183.856 1136.01 183.92H1118.63C1118.79 186.128 1119.48 187.84 1120.7 189.056C1121.91 190.272 1123.56 190.88 1125.64 190.88C1128.65 190.88 1130.95 189.552 1132.55 186.896L1135.67 188.864C1133.37 192.608 1129.86 194.48 1125.16 194.48ZM1125.64 174.8C1123.75 174.8 1122.22 175.312 1121.03 176.336C1119.85 177.328 1119.1 178.768 1118.78 180.656H1131.88C1131.75 178.896 1131.11 177.488 1129.96 176.432C1128.84 175.344 1127.4 174.8 1125.64 174.8ZM86.752 246.008L84.88 243.176C85.712 242.568 86.848 241.96 88.288 241.352C89.76 240.744 91.52 240.44 93.568 240.44C96.128 240.44 98.208 241.032 99.808 242.216C101.408 243.368 102.208 245.016 102.208 247.16V263H98.368V260.024C97.664 261.176 96.608 262.04 95.2 262.616C93.792 263.192 92.416 263.48 91.072 263.48C89.728 263.48 88.464 263.208 87.28 262.664C86.128 262.088 85.2 261.272 84.496 260.216C83.792 259.16 83.44 257.88 83.44 256.376C83.44 254.232 84.192 252.52 85.696 251.24C87.232 249.928 89.36 249.272 92.08 249.272C93.552 249.272 94.8 249.448 95.824 249.8C96.88 250.12 97.728 250.488 98.368 250.904V247.688C98.368 246.184 97.872 245.16 96.88 244.616C95.92 244.072 94.752 243.8 93.376 243.8C91.712 243.8 90.32 244.072 89.2 244.616C88.08 245.16 87.264 245.624 86.752 246.008ZM87.328 256.184C87.328 257.464 87.76 258.456 88.624 259.16C89.52 259.832 90.672 260.168 92.08 260.168C93.84 260.168 95.328 259.64 96.544 258.584C97.76 257.528 98.368 256.12 98.368 254.36V253.544C97.472 253.096 96.56 252.776 95.632 252.584C94.704 252.392 93.728 252.296 92.704 252.296C90.848 252.296 89.488 252.648 88.624 253.352C87.76 254.024 87.328 254.968 87.328 256.184ZM119.221 245.144C118.709 244.76 118.245 244.488 117.829 244.328C117.413 244.136 116.885 244.04 116.245 244.04C114.805 244.04 113.829 244.568 113.317 245.624C112.805 246.648 112.549 247.96 112.549 249.56V263H108.709V240.92H112.549V243.464C113.157 242.536 113.877 241.8 114.709 241.256C115.541 240.712 116.373 240.44 117.205 240.44C118.005 240.44 118.741 240.552 119.413 240.776C120.117 240.968 120.757 241.368 121.333 241.976L119.221 245.144ZM133.003 263.48C130.955 263.48 129.131 263 127.531 262.04C125.963 261.048 124.731 259.688 123.835 257.96C122.971 256.232 122.539 254.232 122.539 251.96C122.539 249.656 122.987 247.64 123.883 245.912C124.811 244.184 126.091 242.84 127.723 241.88C129.387 240.92 131.307 240.44 133.483 240.44C136.715 240.44 139.259 241.448 141.115 243.464C142.971 245.48 143.899 248.248 143.899 251.768C143.899 251.992 143.883 252.232 143.851 252.488C143.851 252.712 143.851 252.856 143.851 252.92H126.475C126.635 255.128 127.323 256.84 128.539 258.056C129.755 259.272 131.403 259.88 133.483 259.88C136.491 259.88 138.795 258.552 140.395 255.896L143.515 257.864C141.211 261.608 137.707 263.48 133.003 263.48ZM133.483 243.8C131.595 243.8 130.059 244.312 128.875 245.336C127.691 246.328 126.939 247.768 126.619 249.656H139.723C139.595 247.896 138.955 246.488 137.803 245.432C136.683 244.344 135.243 243.8 133.483 243.8ZM163.553 231.8C163.553 231.064 163.809 230.44 164.321 229.928C164.865 229.416 165.489 229.16 166.193 229.16C166.929 229.16 167.553 229.416 168.065 229.928C168.577 230.44 168.833 231.064 168.833 231.8C168.833 232.504 168.577 233.128 168.065 233.672C167.553 234.184 166.929 234.44 166.193 234.44C165.489 234.44 164.865 234.184 164.321 233.672C163.809 233.128 163.553 232.504 163.553 231.8ZM164.273 240.92H168.113V263H164.273V240.92ZM206.262 249.08V263H202.422V249.56C202.422 247.672 202.07 246.28 201.366 245.384C200.694 244.488 199.638 244.04 198.198 244.04C196.63 244.04 195.382 244.536 194.454 245.528C193.526 246.488 193.062 247.832 193.062 249.56V263H189.222V249.56C189.222 247.672 188.87 246.28 188.166 245.384C187.494 244.488 186.438 244.04 184.998 244.04C183.43 244.04 182.182 244.536 181.254 245.528C180.326 246.488 179.862 247.832 179.862 249.56V263H176.022V240.92H179.862V244.136C181.174 241.672 183.206 240.44 185.958 240.44C187.494 240.44 188.806 240.808 189.894 241.544C191.014 242.248 191.83 243.256 192.342 244.568C193.878 241.816 196.15 240.44 199.158 240.44C201.43 240.44 203.174 241.192 204.39 242.696C205.638 244.2 206.262 246.328 206.262 249.08ZM217.075 273.56H213.235V240.92H217.075V244.712C217.875 243.336 218.915 242.28 220.195 241.544C221.507 240.808 222.979 240.44 224.611 240.44C226.627 240.44 228.451 240.904 230.083 241.832C231.747 242.76 233.075 244.088 234.067 245.816C235.059 247.512 235.555 249.56 235.555 251.96C235.555 254.328 235.059 256.376 234.067 258.104C233.075 259.832 231.747 261.16 230.083 262.088C228.451 263.016 226.627 263.48 224.611 263.48C222.979 263.48 221.507 263.112 220.195 262.376C218.915 261.64 217.875 260.584 217.075 259.208V273.56ZM231.667 251.96C231.667 250.264 231.315 248.824 230.611 247.64C229.939 246.456 229.027 245.56 227.875 244.952C226.755 244.344 225.507 244.04 224.131 244.04C223.011 244.04 221.907 244.344 220.819 244.952C219.731 245.56 218.835 246.456 218.131 247.64C217.427 248.824 217.075 250.264 217.075 251.96C217.075 253.656 217.427 255.096 218.131 256.28C218.835 257.464 219.731 258.36 220.819 258.968C221.907 259.576 223.011 259.88 224.131 259.88C225.507 259.88 226.755 259.576 227.875 258.968C229.027 258.36 229.939 257.464 230.611 256.28C231.315 255.096 231.667 253.656 231.667 251.96ZM238.93 251.96C238.93 249.72 239.426 247.736 240.418 246.008C241.442 244.28 242.818 242.92 244.546 241.928C246.274 240.936 248.21 240.44 250.354 240.44C252.53 240.44 254.466 240.936 256.162 241.928C257.89 242.92 259.25 244.28 260.242 246.008C261.266 247.736 261.778 249.72 261.778 251.96C261.778 254.168 261.266 256.152 260.242 257.912C259.25 259.64 257.89 261 256.162 261.992C254.466 262.984 252.53 263.48 250.354 263.48C248.21 263.48 246.274 262.984 244.546 261.992C242.818 261 241.442 259.64 240.418 257.912C239.426 256.152 238.93 254.168 238.93 251.96ZM242.818 251.96C242.818 253.496 243.138 254.856 243.778 256.04C244.45 257.224 245.346 258.168 246.466 258.872C247.618 259.544 248.914 259.88 250.354 259.88C251.794 259.88 253.074 259.544 254.194 258.872C255.346 258.168 256.242 257.224 256.882 256.04C257.554 254.856 257.89 253.496 257.89 251.96C257.89 250.424 257.554 249.064 256.882 247.88C256.242 246.664 255.346 245.72 254.194 245.048C253.074 244.376 251.794 244.04 250.354 244.04C248.914 244.04 247.618 244.376 246.466 245.048C245.346 245.72 244.45 246.664 243.778 247.88C243.138 249.064 242.818 250.424 242.818 251.96ZM277.565 245.144C277.053 244.76 276.589 244.488 276.173 244.328C275.757 244.136 275.229 244.04 274.589 244.04C273.149 244.04 272.173 244.568 271.661 245.624C271.149 246.648 270.893 247.96 270.893 249.56V263H267.053V240.92H270.893V243.464C271.501 242.536 272.221 241.8 273.053 241.256C273.885 240.712 274.717 240.44 275.549 240.44C276.349 240.44 277.085 240.552 277.757 240.776C278.461 240.968 279.101 241.368 279.677 241.976L277.565 245.144ZM280.146 240.92H283.746V233.24H287.586V240.92H291.186V244.52H287.586V263H283.746V244.52H280.146V240.92ZM296.19 246.008L294.318 243.176C295.15 242.568 296.286 241.96 297.726 241.352C299.198 240.744 300.958 240.44 303.006 240.44C305.566 240.44 307.646 241.032 309.246 242.216C310.846 243.368 311.646 245.016 311.646 247.16V263H307.806V260.024C307.102 261.176 306.046 262.04 304.638 262.616C303.23 263.192 301.854 263.48 300.51 263.48C299.166 263.48 297.902 263.208 296.718 262.664C295.566 262.088 294.638 261.272 293.934 260.216C293.23 259.16 292.878 257.88 292.878 256.376C292.878 254.232 293.63 252.52 295.134 251.24C296.67 249.928 298.798 249.272 301.518 249.272C302.99 249.272 304.238 249.448 305.262 249.8C306.318 250.12 307.166 250.488 307.806 250.904V247.688C307.806 246.184 307.31 245.16 306.318 244.616C305.358 244.072 304.19 243.8 302.814 243.8C301.15 243.8 299.758 244.072 298.638 244.616C297.518 245.16 296.702 245.624 296.19 246.008ZM296.766 256.184C296.766 257.464 297.198 258.456 298.062 259.16C298.958 259.832 300.11 260.168 301.518 260.168C303.278 260.168 304.766 259.64 305.982 258.584C307.198 257.528 307.806 256.12 307.806 254.36V253.544C306.91 253.096 305.998 252.776 305.07 252.584C304.142 252.392 303.166 252.296 302.142 252.296C300.286 252.296 298.926 252.648 298.062 253.352C297.198 254.024 296.766 254.968 296.766 256.184ZM332.307 249.56C332.307 245.88 330.739 244.04 327.603 244.04C325.939 244.04 324.579 244.552 323.523 245.576C322.499 246.6 321.987 247.928 321.987 249.56V263H318.147V240.92H321.987V244.376C323.427 241.752 325.619 240.44 328.563 240.44C330.899 240.44 332.739 241.224 334.083 242.792C335.459 244.328 336.147 246.424 336.147 249.08V263H332.307V249.56ZM340.006 240.92H343.606V233.24H347.446V240.92H351.046V244.52H347.446V263H343.606V244.52H340.006V240.92ZM367.608 240.92H369.768V232.76C369.768 230.136 370.328 228.2 371.448 226.952C372.568 225.704 374.136 225.08 376.152 225.08C377.176 225.08 378.04 225.288 378.744 225.704C379.48 226.088 380.024 226.52 380.376 227L378.264 230.168C377.944 229.624 377.56 229.288 377.112 229.16C376.696 229 376.296 228.92 375.912 228.92C375.208 228.92 374.648 229.24 374.232 229.88C373.816 230.52 373.608 231.64 373.608 233.24V240.92H378.648V244.52H373.608V263H369.768V244.52H367.608V240.92ZM381.102 251.96C381.102 249.72 381.598 247.736 382.59 246.008C383.614 244.28 384.99 242.92 386.718 241.928C388.446 240.936 390.382 240.44 392.526 240.44C394.702 240.44 396.638 240.936 398.334 241.928C400.062 242.92 401.422 244.28 402.414 246.008C403.438 247.736 403.95 249.72 403.95 251.96C403.95 254.168 403.438 256.152 402.414 257.912C401.422 259.64 400.062 261 398.334 261.992C396.638 262.984 394.702 263.48 392.526 263.48C390.382 263.48 388.446 262.984 386.718 261.992C384.99 261 383.614 259.64 382.59 257.912C381.598 256.152 381.102 254.168 381.102 251.96ZM384.99 251.96C384.99 253.496 385.31 254.856 385.95 256.04C386.622 257.224 387.518 258.168 388.638 258.872C389.79 259.544 391.086 259.88 392.526 259.88C393.966 259.88 395.246 259.544 396.366 258.872C397.518 258.168 398.414 257.224 399.054 256.04C399.726 254.856 400.062 253.496 400.062 251.96C400.062 250.424 399.726 249.064 399.054 247.88C398.414 246.664 397.518 245.72 396.366 245.048C395.246 244.376 393.966 244.04 392.526 244.04C391.086 244.04 389.79 244.376 388.638 245.048C387.518 245.72 386.622 246.664 385.95 247.88C385.31 249.064 384.99 250.424 384.99 251.96ZM419.737 245.144C419.225 244.76 418.761 244.488 418.345 244.328C417.929 244.136 417.401 244.04 416.761 244.04C415.321 244.04 414.345 244.568 413.833 245.624C413.321 246.648 413.065 247.96 413.065 249.56V263H409.225V240.92H413.065V243.464C413.673 242.536 414.393 241.8 415.225 241.256C416.057 240.712 416.889 240.44 417.721 240.44C418.521 240.44 419.257 240.552 419.929 240.776C420.633 240.968 421.273 241.368 421.849 241.976L419.737 245.144ZM451.829 240.92H456.629L447.029 250.04L457.589 263H452.789L443.669 251.816V263H439.829V225.56H443.669V248.648L451.829 240.92ZM461.209 231.8C461.209 231.064 461.465 230.44 461.977 229.928C462.521 229.416 463.145 229.16 463.849 229.16C464.585 229.16 465.209 229.416 465.721 229.928C466.233 230.44 466.489 231.064 466.489 231.8C466.489 232.504 466.233 233.128 465.721 233.672C465.209 234.184 464.585 234.44 463.849 234.44C463.145 234.44 462.521 234.184 461.977 233.672C461.465 233.128 461.209 232.504 461.209 231.8ZM461.929 240.92H465.769V263H461.929V240.92ZM471.758 251.96C471.758 249.56 472.254 247.512 473.246 245.816C474.238 244.088 475.566 242.76 477.23 241.832C478.894 240.904 480.718 240.44 482.702 240.44C484.334 240.44 485.79 240.808 487.07 241.544C488.382 242.28 489.438 243.336 490.238 244.712V225.56H494.078V263H490.238V259.208C489.438 260.584 488.382 261.64 487.07 262.376C485.79 263.112 484.334 263.48 482.702 263.48C480.718 263.48 478.894 263.016 477.23 262.088C475.566 261.16 474.238 259.832 473.246 258.104C472.254 256.376 471.758 254.328 471.758 251.96ZM475.646 251.96C475.646 253.656 475.982 255.096 476.654 256.28C477.358 257.464 478.286 258.36 479.438 258.968C480.59 259.576 481.838 259.88 483.182 259.88C484.302 259.88 485.406 259.576 486.494 258.968C487.582 258.36 488.478 257.464 489.182 256.28C489.886 255.096 490.238 253.656 490.238 251.96C490.238 250.264 489.886 248.824 489.182 247.64C488.478 246.456 487.582 245.56 486.494 244.952C485.406 244.344 484.302 244.04 483.182 244.04C481.838 244.04 480.59 244.344 479.438 244.952C478.286 245.56 477.358 246.456 476.654 247.64C475.982 248.824 475.646 250.264 475.646 251.96ZM501.965 256.232C502.637 257.256 503.453 258.136 504.413 258.872C505.405 259.608 506.589 259.976 507.965 259.976C509.053 259.976 509.901 259.736 510.509 259.256C511.149 258.744 511.469 258.056 511.469 257.192C511.469 256.424 511.213 255.784 510.701 255.272C510.221 254.728 509.597 254.28 508.829 253.928C508.061 253.544 507.245 253.192 506.381 252.872C505.421 252.488 504.445 252.04 503.453 251.528C502.493 250.984 501.677 250.296 501.005 249.464C500.365 248.6 500.045 247.528 500.045 246.248C500.045 244.936 500.381 243.848 501.053 242.984C501.757 242.12 502.653 241.48 503.741 241.064C504.861 240.648 506.013 240.44 507.197 240.44C508.957 240.44 510.557 240.856 511.997 241.688C513.437 242.52 514.493 243.544 515.165 244.76L512.093 246.728C511.485 245.896 510.717 245.208 509.789 244.664C508.893 244.12 507.869 243.848 506.717 243.848C505.917 243.848 505.229 244.024 504.653 244.376C504.077 244.728 503.789 245.272 503.789 246.008C503.789 246.904 504.253 247.64 505.181 248.216C506.141 248.76 507.213 249.272 508.397 249.752C509.677 250.264 510.845 250.824 511.901 251.432C512.957 252.008 513.789 252.712 514.397 253.544C515.037 254.376 515.357 255.448 515.357 256.76C515.357 258.68 514.653 260.28 513.245 261.56C511.869 262.84 510.045 263.48 507.773 263.48C506.301 263.48 504.973 263.224 503.789 262.712C502.605 262.168 501.597 261.48 500.765 260.648C499.965 259.816 499.357 258.968 498.941 258.104L501.965 256.232ZM520.639 229.4H525.199L520.399 240.44H517.759L520.639 229.4ZM530.239 229.4H534.799L529.999 240.44H527.359L530.239 229.4ZM82.24 322.4V318.8H91.84V322.4H82.24ZM114.965 309.296L112.469 332H108.389L112.469 296.72L125.909 321.056L139.349 296.72L143.429 332H139.349L136.853 309.296L125.909 328.88L114.965 309.296ZM159.44 314.144C158.928 313.76 158.464 313.488 158.048 313.328C157.632 313.136 157.104 313.04 156.464 313.04C155.024 313.04 154.048 313.568 153.536 314.624C153.024 315.648 152.768 316.96 152.768 318.56V332H148.928V309.92H152.768V312.464C153.376 311.536 154.096 310.8 154.928 310.256C155.76 309.712 156.592 309.44 157.424 309.44C158.224 309.44 158.96 309.552 159.632 309.776C160.336 309.968 160.976 310.368 161.552 310.976L159.44 314.144ZM163.482 330.08C163.482 329.344 163.738 328.72 164.25 328.208C164.794 327.696 165.418 327.44 166.122 327.44C166.858 327.44 167.482 327.696 167.994 328.208C168.506 328.72 168.762 329.344 168.762 330.08C168.762 330.784 168.506 331.408 167.994 331.952C167.482 332.464 166.858 332.72 166.122 332.72C165.418 332.72 164.794 332.464 164.25 331.952C163.738 331.408 163.482 330.784 163.482 330.08ZM184.487 336.992C185.191 338.144 186.455 338.72 188.279 338.72C189.015 338.72 189.735 338.384 190.439 337.712C191.175 337.072 191.543 335.968 191.543 334.4V298.4H195.383V334.88C195.383 337.504 194.727 339.44 193.415 340.688C192.103 341.936 190.311 342.56 188.039 342.56C186.759 342.56 185.591 342.272 184.535 341.696C183.447 341.152 182.727 340.64 182.375 340.16L184.487 336.992ZM203.986 315.008L202.114 312.176C202.946 311.568 204.082 310.96 205.522 310.352C206.994 309.744 208.754 309.44 210.802 309.44C213.362 309.44 215.442 310.032 217.042 311.216C218.642 312.368 219.442 314.016 219.442 316.16V332H215.602V329.024C214.898 330.176 213.842 331.04 212.434 331.616C211.026 332.192 209.65 332.48 208.306 332.48C206.962 332.48 205.698 332.208 204.514 331.664C203.362 331.088 202.434 330.272 201.73 329.216C201.026 328.16 200.674 326.88 200.674 325.376C200.674 323.232 201.426 321.52 202.93 320.24C204.466 318.928 206.594 318.272 209.314 318.272C210.786 318.272 212.034 318.448 213.058 318.8C214.114 319.12 214.962 319.488 215.602 319.904V316.688C215.602 315.184 215.106 314.16 214.114 313.616C213.154 313.072 211.986 312.8 210.61 312.8C208.946 312.8 207.554 313.072 206.434 313.616C205.314 314.16 204.498 314.624 203.986 315.008ZM204.562 325.184C204.562 326.464 204.994 327.456 205.858 328.16C206.754 328.832 207.906 329.168 209.314 329.168C211.074 329.168 212.562 328.64 213.778 327.584C214.994 326.528 215.602 325.12 215.602 323.36V322.544C214.706 322.096 213.794 321.776 212.866 321.584C211.938 321.392 210.962 321.296 209.938 321.296C208.082 321.296 206.722 321.648 205.858 322.352C204.994 323.024 204.562 323.968 204.562 325.184ZM256.184 318.08V332H252.344V318.56C252.344 316.672 251.992 315.28 251.288 314.384C250.616 313.488 249.56 313.04 248.12 313.04C246.552 313.04 245.304 313.536 244.376 314.528C243.448 315.488 242.984 316.832 242.984 318.56V332H239.144V318.56C239.144 316.672 238.792 315.28 238.088 314.384C237.416 313.488 236.36 313.04 234.92 313.04C233.352 313.04 232.104 313.536 231.176 314.528C230.248 315.488 229.784 316.832 229.784 318.56V332H225.944V309.92H229.784V313.136C231.096 310.672 233.128 309.44 235.88 309.44C237.416 309.44 238.728 309.808 239.816 310.544C240.936 311.248 241.752 312.256 242.264 313.568C243.8 310.816 246.072 309.44 249.08 309.44C251.352 309.44 253.096 310.192 254.312 311.696C255.56 313.2 256.184 315.328 256.184 318.08ZM271.941 332.48C269.893 332.48 268.069 332 266.469 331.04C264.901 330.048 263.669 328.688 262.773 326.96C261.909 325.232 261.477 323.232 261.477 320.96C261.477 318.656 261.925 316.64 262.821 314.912C263.749 313.184 265.029 311.84 266.661 310.88C268.325 309.92 270.245 309.44 272.421 309.44C275.653 309.44 278.197 310.448 280.053 312.464C281.909 314.48 282.837 317.248 282.837 320.768C282.837 320.992 282.821 321.232 282.789 321.488C282.789 321.712 282.789 321.856 282.789 321.92H265.413C265.573 324.128 266.261 325.84 267.477 327.056C268.693 328.272 270.341 328.88 272.421 328.88C275.429 328.88 277.733 327.552 279.333 324.896L282.453 326.864C280.149 330.608 276.645 332.48 271.941 332.48ZM272.421 312.8C270.533 312.8 268.997 313.312 267.813 314.336C266.629 315.328 265.877 316.768 265.557 318.656H278.661C278.533 316.896 277.893 315.488 276.741 314.432C275.621 313.344 274.181 312.8 272.421 312.8ZM289.012 325.232C289.684 326.256 290.5 327.136 291.46 327.872C292.452 328.608 293.636 328.976 295.012 328.976C296.1 328.976 296.948 328.736 297.556 328.256C298.196 327.744 298.516 327.056 298.516 326.192C298.516 325.424 298.26 324.784 297.748 324.272C297.268 323.728 296.644 323.28 295.876 322.928C295.108 322.544 294.292 322.192 293.428 321.872C292.468 321.488 291.492 321.04 290.5 320.528C289.54 319.984 288.724 319.296 288.052 318.464C287.412 317.6 287.092 316.528 287.092 315.248C287.092 313.936 287.428 312.848 288.1 311.984C288.804 311.12 289.7 310.48 290.788 310.064C291.908 309.648 293.06 309.44 294.244 309.44C296.004 309.44 297.604 309.856 299.044 310.688C300.484 311.52 301.54 312.544 302.212 313.76L299.14 315.728C298.532 314.896 297.764 314.208 296.836 313.664C295.94 313.12 294.916 312.848 293.764 312.848C292.964 312.848 292.276 313.024 291.7 313.376C291.124 313.728 290.836 314.272 290.836 315.008C290.836 315.904 291.3 316.64 292.228 317.216C293.188 317.76 294.26 318.272 295.444 318.752C296.724 319.264 297.892 319.824 298.948 320.432C300.004 321.008 300.836 321.712 301.444 322.544C302.084 323.376 302.404 324.448 302.404 325.76C302.404 327.68 301.7 329.28 300.292 330.56C298.916 331.84 297.092 332.48 294.82 332.48C293.348 332.48 292.02 332.224 290.836 331.712C289.652 331.168 288.644 330.48 287.812 329.648C287.012 328.816 286.404 327.968 285.988 327.104L289.012 325.232ZM342.634 322.16C342.634 324.368 342.122 326.208 341.098 327.68C340.106 329.12 338.746 330.208 337.018 330.944C335.322 331.648 333.386 332 331.21 332H322.09V298.4H330.73C333.738 298.4 336.154 299.088 337.978 300.464C339.802 301.84 340.714 303.952 340.714 306.8C340.714 308.528 340.218 309.984 339.226 311.168C338.234 312.32 336.874 313.152 335.146 313.664C337.354 314.112 339.146 315.04 340.522 316.448C341.93 317.824 342.634 319.728 342.634 322.16ZM330.73 302H326.17V311.984H330.73C332.426 311.984 333.834 311.552 334.954 310.688C336.074 309.824 336.634 308.608 336.634 307.04C336.634 305.44 336.074 304.208 334.954 303.344C333.834 302.448 332.426 302 330.73 302ZM326.17 328.4H331.21C333.386 328.4 335.146 327.84 336.49 326.72C337.866 325.568 338.554 323.968 338.554 321.92C338.554 319.84 337.866 318.256 336.49 317.168C335.146 316.08 333.386 315.536 331.21 315.536H326.17V328.4ZM357.16 332.48C355.112 332.48 353.288 332 351.688 331.04C350.12 330.048 348.888 328.688 347.992 326.96C347.128 325.232 346.696 323.232 346.696 320.96C346.696 318.656 347.144 316.64 348.04 314.912C348.968 313.184 350.248 311.84 351.88 310.88C353.544 309.92 355.464 309.44 357.64 309.44C360.872 309.44 363.416 310.448 365.272 312.464C367.128 314.48 368.056 317.248 368.056 320.768C368.056 320.992 368.04 321.232 368.008 321.488C368.008 321.712 368.008 321.856 368.008 321.92H350.632C350.792 324.128 351.48 325.84 352.696 327.056C353.912 328.272 355.56 328.88 357.64 328.88C360.648 328.88 362.952 327.552 364.552 324.896L367.672 326.864C365.368 330.608 361.864 332.48 357.16 332.48ZM357.64 312.8C355.752 312.8 354.216 313.312 353.032 314.336C351.848 315.328 351.096 316.768 350.776 318.656H363.88C363.752 316.896 363.112 315.488 361.96 314.432C360.84 313.344 359.4 312.8 357.64 312.8ZM381.863 332.48C379.815 332.48 377.991 332 376.391 331.04C374.823 330.048 373.591 328.688 372.695 326.96C371.831 325.232 371.399 323.232 371.399 320.96C371.399 318.656 371.847 316.64 372.743 314.912C373.671 313.184 374.951 311.84 376.583 310.88C378.247 309.92 380.167 309.44 382.343 309.44C385.575 309.44 388.119 310.448 389.975 312.464C391.831 314.48 392.759 317.248 392.759 320.768C392.759 320.992 392.743 321.232 392.711 321.488C392.711 321.712 392.711 321.856 392.711 321.92H375.335C375.495 324.128 376.183 325.84 377.399 327.056C378.615 328.272 380.263 328.88 382.343 328.88C385.351 328.88 387.655 327.552 389.255 324.896L392.375 326.864C390.071 330.608 386.567 332.48 381.863 332.48ZM382.343 312.8C380.455 312.8 378.919 313.312 377.735 314.336C376.551 315.328 375.799 316.768 375.479 318.656H388.583C388.455 316.896 387.815 315.488 386.663 314.432C385.543 313.344 384.103 312.8 382.343 312.8ZM398.934 325.232C399.606 326.256 400.422 327.136 401.382 327.872C402.374 328.608 403.558 328.976 404.934 328.976C406.022 328.976 406.87 328.736 407.478 328.256C408.118 327.744 408.438 327.056 408.438 326.192C408.438 325.424 408.182 324.784 407.67 324.272C407.19 323.728 406.566 323.28 405.798 322.928C405.03 322.544 404.214 322.192 403.35 321.872C402.39 321.488 401.414 321.04 400.422 320.528C399.462 319.984 398.646 319.296 397.974 318.464C397.334 317.6 397.014 316.528 397.014 315.248C397.014 313.936 397.35 312.848 398.022 311.984C398.726 311.12 399.622 310.48 400.71 310.064C401.83 309.648 402.982 309.44 404.166 309.44C405.926 309.44 407.526 309.856 408.966 310.688C410.406 311.52 411.462 312.544 412.134 313.76L409.062 315.728C408.454 314.896 407.686 314.208 406.758 313.664C405.862 313.12 404.838 312.848 403.686 312.848C402.886 312.848 402.198 313.024 401.622 313.376C401.046 313.728 400.758 314.272 400.758 315.008C400.758 315.904 401.222 316.64 402.15 317.216C403.11 317.76 404.182 318.272 405.366 318.752C406.646 319.264 407.814 319.824 408.87 320.432C409.926 321.008 410.758 321.712 411.366 322.544C412.006 323.376 412.326 324.448 412.326 325.76C412.326 327.68 411.622 329.28 410.214 330.56C408.838 331.84 407.014 332.48 404.742 332.48C403.27 332.48 401.942 332.224 400.758 331.712C399.574 331.168 398.566 330.48 397.734 329.648C396.934 328.816 396.326 327.968 395.91 327.104L398.934 325.232ZM415.461 320.96C415.461 318.72 415.957 316.736 416.949 315.008C417.973 313.28 419.349 311.92 421.077 310.928C422.805 309.936 424.741 309.44 426.885 309.44C429.061 309.44 430.997 309.936 432.693 310.928C434.421 311.92 435.781 313.28 436.773 315.008C437.797 316.736 438.309 318.72 438.309 320.96C438.309 323.168 437.797 325.152 436.773 326.912C435.781 328.64 434.421 330 432.693 330.992C430.997 331.984 429.061 332.48 426.885 332.48C424.741 332.48 422.805 331.984 421.077 330.992C419.349 330 417.973 328.64 416.949 326.912C415.957 325.152 415.461 323.168 415.461 320.96ZM419.349 320.96C419.349 322.496 419.669 323.856 420.309 325.04C420.981 326.224 421.877 327.168 422.997 327.872C424.149 328.544 425.445 328.88 426.885 328.88C428.325 328.88 429.605 328.544 430.725 327.872C431.877 327.168 432.773 326.224 433.413 325.04C434.085 323.856 434.421 322.496 434.421 320.96C434.421 319.424 434.085 318.064 433.413 316.88C432.773 315.664 431.877 314.72 430.725 314.048C429.605 313.376 428.325 313.04 426.885 313.04C425.445 313.04 424.149 313.376 422.997 314.048C421.877 314.72 420.981 315.664 420.309 316.88C419.669 318.064 419.349 319.424 419.349 320.96ZM457.744 318.56C457.744 314.88 456.176 313.04 453.04 313.04C451.376 313.04 450.016 313.552 448.96 314.576C447.936 315.6 447.424 316.928 447.424 318.56V332H443.584V309.92H447.424V313.376C448.864 310.752 451.056 309.44 454 309.44C456.336 309.44 458.176 310.224 459.52 311.792C460.896 313.328 461.584 315.424 461.584 318.08V332H457.744V318.56ZM489.434 294.56H493.034C491.37 298.144 490.154 301.936 489.386 305.936C488.618 309.936 488.234 313.984 488.234 318.08C488.234 322.144 488.618 326.176 489.386 330.176C490.154 334.176 491.37 337.984 493.034 341.6H489.434C487.514 337.984 486.106 334.176 485.21 330.176C484.346 326.176 483.914 322.144 483.914 318.08C483.914 313.984 484.346 309.936 485.21 305.936C486.106 301.936 487.514 298.144 489.434 294.56ZM500.693 315.2C500.693 317.792 501.269 320.08 502.421 322.064C503.605 324.048 505.141 325.6 507.029 326.72C508.917 327.84 510.965 328.4 513.173 328.4C515.541 328.4 517.637 327.936 519.461 327.008C521.285 326.08 522.789 324.88 523.973 323.408V328.784C522.565 330.032 521.029 330.96 519.365 331.568C517.701 332.176 515.637 332.48 513.173 332.48C510.837 332.48 508.645 332.064 506.597 331.232C504.581 330.368 502.805 329.168 501.269 327.632C499.733 326.064 498.533 324.224 497.669 322.112C496.805 320 496.373 317.696 496.373 315.2C496.373 312.704 496.805 310.4 497.669 308.288C498.533 306.176 499.733 304.352 501.269 302.816C502.805 301.248 504.581 300.048 506.597 299.216C508.645 298.352 510.837 297.92 513.173 297.92C515.637 297.92 517.701 298.224 519.365 298.832C521.029 299.44 522.565 300.368 523.973 301.616V306.992C522.789 305.488 521.285 304.288 519.461 303.392C517.637 302.464 515.541 302 513.173 302C510.965 302 508.917 302.56 507.029 303.68C505.141 304.8 503.605 306.352 502.421 308.336C501.269 310.288 500.693 312.576 500.693 315.2ZM530.913 298.4H534.993V320.96C534.993 323.264 535.617 325.12 536.865 326.528C538.113 327.936 539.937 328.64 542.337 328.64C544.737 328.64 546.561 327.936 547.809 326.528C549.057 325.12 549.681 323.264 549.681 320.96V298.4H553.76V320.96C553.76 323.168 553.281 325.152 552.321 326.912C551.393 328.64 550.081 330 548.385 330.992C546.689 331.984 544.673 332.48 542.337 332.48C540.033 332.48 538.017 331.984 536.289 330.992C534.593 330 533.265 328.64 532.305 326.912C531.377 325.152 530.913 323.168 530.913 320.96V298.4ZM562.447 321.824C563.567 323.872 564.815 325.52 566.191 326.768C567.599 328.016 569.311 328.64 571.327 328.64C573.119 328.64 574.559 328.144 575.647 327.152C576.735 326.16 577.279 324.896 577.279 323.36C577.279 321.856 576.927 320.656 576.223 319.76C575.519 318.864 574.591 318.144 573.439 317.6C572.319 317.024 571.119 316.512 569.839 316.064C569.007 315.776 568.079 315.408 567.055 314.96C566.031 314.48 565.055 313.888 564.127 313.184C563.199 312.448 562.431 311.552 561.823 310.496C561.247 309.44 560.959 308.144 560.959 306.608C560.959 304.944 561.375 303.456 562.207 302.144C563.039 300.832 564.191 299.808 565.663 299.072C567.135 298.304 568.815 297.92 570.703 297.92C572.527 297.92 574.111 298.272 575.455 298.976C576.831 299.648 577.999 300.528 578.959 301.616C579.919 302.672 580.671 303.792 581.215 304.976L577.711 306.992C577.295 306.16 576.767 305.344 576.127 304.544C575.487 303.744 574.703 303.088 573.775 302.576C572.879 302.064 571.775 301.808 570.463 301.808C568.639 301.808 567.311 302.256 566.479 303.152C565.647 304.016 565.231 304.992 565.231 306.08C565.231 307.488 565.791 308.72 566.911 309.776C568.031 310.832 570.063 311.872 573.007 312.896C573.903 313.216 574.847 313.632 575.839 314.144C576.831 314.656 577.743 315.312 578.575 316.112C579.439 316.88 580.143 317.824 580.687 318.944C581.231 320.032 581.503 321.344 581.503 322.88C581.503 324.832 581.007 326.528 580.015 327.968C579.055 329.408 577.791 330.528 576.223 331.328C574.655 332.096 572.975 332.48 571.183 332.48C569.359 332.48 567.663 332.096 566.095 331.328C564.559 330.528 563.199 329.488 562.015 328.208C560.863 326.896 559.919 325.504 559.183 324.032L562.447 321.824ZM597.576 332H587.496V298.4H597.576C600.84 298.4 603.736 299.104 606.264 300.512C608.792 301.92 610.776 303.888 612.216 306.416C613.656 308.912 614.376 311.84 614.376 315.2C614.376 318.56 613.656 321.504 612.216 324.032C610.776 326.528 608.792 328.48 606.264 329.888C603.736 331.296 600.84 332 597.576 332ZM597.576 302.48H591.576V327.92H597.576C600.104 327.92 602.312 327.408 604.2 326.384C606.12 325.328 607.608 323.856 608.664 321.968C609.752 320.048 610.296 317.792 610.296 315.2C610.296 312.576 609.752 310.32 608.664 308.432C607.608 306.544 606.12 305.088 604.2 304.064C602.312 303.008 600.104 302.48 597.576 302.48ZM621.321 341.6H617.721C619.417 337.984 620.633 334.176 621.369 330.176C622.137 326.176 622.521 322.144 622.521 318.08C622.521 313.984 622.137 309.936 621.369 305.936C620.633 301.936 619.417 298.144 617.721 294.56H621.321C623.241 298.144 624.633 301.936 625.497 305.936C626.393 309.936 626.841 313.984 626.841 318.08C626.841 322.144 626.393 326.176 625.497 330.176C624.633 334.176 623.241 337.984 621.321 341.6Z" fill="#AC3791"/>
<defs>
<filter id="filter0_d" x="0" y="0" width="1248" height="501" filterUnits="userSpaceOnUse" color-interpolation-filters="sRGB">
<feFlood flood-opacity="0" result="BackgroundImageFix"/>
<feColorMatrix in="SourceAlpha" type="matrix" values="0 0 0 0 0 0 0 0 0 0 0 0 0 0 0 0 0 0 127 0"/>
<feOffset dx="4" dy="4"/>
<feGaussianBlur stdDeviation="2"/>
<feColorMatrix type="matrix" values="0 0 0 0 0 0 0 0 0 0 0 0 0 0 0 0 0 0 0.25 0"/>
<feBlend mode="normal" in2="BackgroundImageFix" result="effect1_dropShadow"/>
<feBlend mode="normal" in="SourceGraphic" in2="effect1_dropShadow" result="shape"/>
</filter>
<linearGradient id="paint0_linear" x1="28.9477" y1="56.1472" x2="845.269" y2="833.859" gradientUnits="userSpaceOnUse">
<stop stop-color="#98DCFC"/>
<stop offset="1" stop-color="#FDF1C5"/>
</linearGradient>
</defs>
</svg>
